<svg viewBox="0 0 683 396" fill="none" xmlns="http://www.w3.org/2000/svg">
<path d="M127.6 139.6C117.2 153.2 106.133 168 94.4 184C82.6667 200 72.8 216.4 64.8 233.2H127.6V139.6ZM186 66.8V233.2H215.6V282H186V344H127.6V282H8V238.4C13.8667 226.667 21.2 213.467 30 198.8C38.8 183.867 48.5333 168.667 59.2 153.2C70.1333 137.467 81.6 122.133 93.6 107.2C105.6 92.2667 117.6 78.8 129.6 66.8H186ZM440.944 204.8C440.944 251.467 432.01 287.333 414.144 312.4C396.544 337.2 372.144 349.6 340.944 349.6C309.744 349.6 285.21 337.2 267.344 312.4C249.744 287.333 240.944 251.467 240.944 204.8C240.944 181.6 243.21 161.067 247.744 143.2C252.544 125.333 259.344 110.267 268.144 98C276.944 85.7333 287.477 76.4 299.744 70C312.01 63.6 325.744 60.4 340.944 60.4C372.144 60.4 396.544 72.9333 414.144 98C432.01 122.8 440.944 158.4 440.944 204.8ZM380.144 204.8C380.144 190.933 379.477 178.4 378.144 167.2C376.81 155.733 374.677 145.867 371.744 137.6C368.81 129.333 364.81 122.933 359.744 118.4C354.677 113.867 348.41 111.6 340.944 111.6C333.477 111.6 327.21 113.867 322.144 118.4C317.344 122.933 313.344 129.333 310.144 137.6C307.21 145.867 305.077 155.733 303.744 167.2C302.41 178.4 301.744 190.933 301.744 204.8C301.744 218.667 302.41 231.333 303.744 242.8C305.077 254.267 307.21 264.133 310.144 272.4C313.344 280.667 317.344 287.067 322.144 291.6C327.21 296.133 333.477 298.4 340.944 298.4C348.41 298.4 354.677 296.133 359.744 291.6C364.81 287.067 368.81 280.667 371.744 272.4C374.677 264.133 376.81 254.267 378.144 242.8C379.477 231.333 380.144 218.667 380.144 204.8ZM582.288 139.6C571.888 153.2 560.821 168 549.088 184C537.354 200 527.488 216.4 519.488 233.2H582.288V139.6ZM640.688 66.8V233.2H670.288V282H640.688V344H582.288V282H462.688V238.4C468.554 226.667 475.888 213.467 484.688 198.8C493.488 183.867 503.221 168.667 513.888 153.2C524.821 137.467 536.288 122.133 548.288 107.2C560.288 92.2667 572.288 78.8 584.288 66.8H640.688Z" fill="#E3EEF2"/>
<path d="M315.426 200.469C343.629 200.469 371.833 200.469 400.039 200.469C400.807 200.469 401.578 200.201 402.346 200.06C403.492 200.21 404.639 200.492 405.785 200.495C416.447 200.526 427.11 200.512 437.775 200.512H440.303C440.807 204.221 440.016 205.164 436.783 205.299C435.96 205.334 434.585 205.679 434.444 206.163C433.754 208.571 433.395 211.071 432.891 213.686L436.485 214.066C436.674 216.08 435.995 216.943 433.966 216.92C433.318 216.92 432.2 217.783 432.074 218.414C430.905 224.168 429.881 229.957 428.878 235.745C428.686 236.865 428.958 238.082 428.689 239.172C428.13 241.396 427.448 243.587 426.648 245.735C425.935 247.663 424.891 249.4 422.55 250.514L424.656 240.758H398.155C397.468 247.556 396.811 254.024 396.115 260.883H412.418C411.515 263.027 410.297 263.826 408.405 263.803C404.217 263.752 400.03 263.786 395.702 263.786C395.332 266.997 395.017 269.917 394.653 272.829C394.504 274.003 394.246 275.162 394.037 276.328C393.936 277.881 393.84 279.435 393.75 280.989L392.386 282.882L389.457 287.313C388.671 287.359 387.889 287.457 387.104 287.448C382.182 287.393 377.261 287.336 372.343 287.235C370.955 287.209 370.336 287.707 370.313 289.177C370.256 291.559 369.995 293.933 369.818 296.312L366.762 295.078C366.842 292.945 366.922 290.815 367 288.688L367.473 287.854C366.544 287.537 365.621 286.962 364.69 286.947C359.448 286.858 354.205 286.979 348.966 286.867C346.96 286.824 346.438 287.764 346.558 289.456C346.679 291.148 346.845 292.779 346.994 294.439C347.16 297.892 347.304 301.359 347.501 304.817C347.579 306.187 347.788 307.545 349.625 307.602C349.685 308.629 349.743 309.657 349.803 310.684C348.37 310.549 347.797 311.107 347.951 312.609C348.203 314.657 348.344 316.717 348.373 318.78C348.373 320.311 348.848 320.84 350.436 320.837C354.395 320.837 358.35 321.076 362.308 321.099C363.237 321.099 364.168 320.621 365.1 320.363L368.43 319.37C368.313 320.774 369.204 320.808 370.25 320.808C374.667 320.783 379.084 320.737 383.498 320.84C385.378 320.883 386.247 320.325 386.218 318.317C386.192 316.755 386.504 315.184 386.691 313.618L389.944 314.556C389.798 316.57 389.657 318.559 389.485 320.791C395.851 320.791 401.859 320.82 407.866 320.742C408.399 320.742 409.299 320.138 409.394 319.675C410.03 316.841 410.486 313.967 411.076 310.692H396.115L399.97 307.392C403.372 307.392 406.777 307.461 410.173 307.309C410.844 307.277 411.93 306.469 412.056 305.87C413.329 299.779 414.438 293.654 415.662 287.192H405.206L409.19 283.877C410.853 283.877 412.524 283.828 414.18 283.944C415.76 284.053 416.499 283.443 416.703 281.863C416.906 280.284 417.31 278.756 417.626 277.205L421.386 274.256L419.666 283.906C424.969 283.906 430.105 283.944 435.235 283.843C435.671 283.843 436.276 282.98 436.485 282.404C438.447 276.949 440.365 271.476 442.237 265.984C442.444 265.383 442.358 264.678 442.429 263.683H434.287L437.508 260.84C438.941 260.826 440.374 260.673 441.779 260.84C443.639 261.053 444.358 260.265 444.932 258.538C446.74 252.957 448.775 247.45 450.647 241.888C450.79 241.46 450.343 240.832 450.171 240.3C450.532 239.316 450.892 238.333 451.252 237.351C451.593 237.178 452.149 237.081 452.243 236.819C453.467 233.337 454.628 229.83 455.803 226.329L457.735 221.035L457.715 221.066C457.89 220.594 458.062 220.12 458.236 219.645C458.864 218.028 459.549 216.431 460.111 214.791C461.75 210.03 463.344 205.251 464.952 200.475C465.906 200.475 466.867 200.391 467.818 200.475C469.165 200.601 469.764 200.02 470.203 198.748C472.496 192.059 474.943 185.41 477.268 178.729C477.747 177.357 477.959 175.895 478.294 174.477C479.309 171.454 480.324 168.431 481.341 165.408C484.207 160.85 489.312 161.489 493.522 160.361C503.78 157.611 514.159 155.338 524.503 152.881C526.119 152.495 527.759 152.196 529.375 151.83C531.771 151.292 533.643 152.213 534.09 154.178C534.594 156.402 533.485 158.068 530.957 158.695C526.876 159.705 522.783 160.658 518.693 161.621C509.203 163.851 499.719 166.095 490.22 168.282C488.655 168.645 487.586 169.332 487.414 171.033L474.516 208.554C473.562 210.795 472.484 212.993 471.673 215.286C465.726 232.089 459.864 248.92 453.903 265.72C447.127 284.845 440.318 303.957 433.475 323.056C432.639 325.406 432.229 327.576 433.57 330.107C435.527 333.846 437.18 337.737 438.514 341.743C443.888 357.61 433.395 374.001 416.803 375.843C414.994 376.041 413.169 376.061 411.357 376.257C410.707 376.329 410.087 376.671 409.451 376.89C404.332 375.106 399.133 375.771 393.974 376.493C393.765 376.522 393.581 376.737 393.383 376.87C392.747 376.66 392.111 376.266 391.472 376.266C362.29 376.248 333.109 376.248 303.93 376.266C303.692 376.266 303.454 376.294 303.216 376.309C298.533 376.197 293.852 376.064 289.172 376.021C288.705 376.021 288.234 376.53 287.764 376.804C286.406 376.611 285.05 376.314 283.686 376.251C281.619 376.156 279.544 376.306 277.481 376.208C274.806 376.084 273.385 374.712 273.433 372.499C273.488 370.16 274.735 369.13 277.65 369.127C322.679 369.127 367.709 369.127 412.739 369.127C423.1 369.127 430.351 363.281 432.639 353.116C433.561 349.016 432.527 345.221 430.919 341.51C428.743 336.472 426.557 331.44 424.195 325.996H291.018C286.182 325.996 285.285 325.331 284.139 320.575C278.297 296.216 272.469 271.844 266.655 247.461C263.821 235.629 260.955 223.803 258.056 211.986C257.919 211.411 257.406 210.956 257.067 210.444C256.996 209.221 257.068 207.969 256.827 206.784C256.053 202.989 257.947 200.5 261.805 200.454C264.27 200.42 266.735 200.454 269.2 200.454C278.422 200.41 287.641 200.362 296.859 200.311L315.426 200.469ZM342.637 287.549H323.635C324.159 288.832 324.595 289.893 325.033 290.958C324.85 291.372 324.46 291.804 324.512 292.198C324.965 296.948 325.458 301.693 326.022 306.428C326.065 306.788 326.73 307.346 327.109 307.349C332.812 307.41 338.519 307.389 344.549 307.389C344.223 303.235 343.922 299.382 343.621 295.53C343.294 292.877 342.966 290.221 342.637 287.56V287.549ZM325.842 213.894H338.74C338.539 210.829 338.364 208.168 338.166 205.337H314.549C314.901 208.28 315.217 210.924 315.572 213.894H325.842ZM266.294 213.404H280.602C280.146 211.083 279.771 208.729 279.169 206.439C279.037 205.941 278.088 205.34 277.506 205.331C272.654 205.245 267.799 205.256 262.946 205.331C262.442 205.331 261.949 205.941 261.45 206.266C261.759 208.016 261.997 209.782 262.39 211.511C263.009 214.245 263.505 214.455 266.294 213.416V213.404ZM269.097 217.283H263.837C265.225 223.172 266.641 228.602 267.736 234.094C268.254 236.683 269.332 237.702 271.992 237.403C274.182 237.155 276.42 237.403 278.633 237.328C279.779 237.291 280.908 237.023 282.046 236.859L285.145 237.434C283.849 230.618 282.677 224.323 281.419 218.048C281.344 217.68 280.487 217.234 279.986 217.228C276.351 217.199 272.726 217.26 269.097 217.286V217.283ZM302.101 205.383H282.445C282.648 206.571 282.814 207.5 282.969 208.43C283.861 213.845 283.861 213.871 289.275 213.836C295.787 213.793 302.296 213.701 308.805 213.629H312.176C311.849 210.775 311.545 208.125 311.233 205.383H302.101ZM396.527 213.416C397.72 214.314 398.37 214.046 398.411 212.521C398.448 211.129 398.459 209.736 398.482 208.344C398.617 207.423 398.752 206.505 398.932 205.294C391.363 205.294 383.985 205.268 376.608 205.348C376.132 205.348 375.283 206.122 375.258 206.577C375.12 208.928 375.192 211.29 375.192 213.816C382.182 213.816 388.924 213.816 395.665 213.799C395.954 213.807 396.241 213.557 396.527 213.416ZM300.591 263.766H293.474C294.706 270.329 295.81 276.175 296.913 282.022C297.163 283.362 297.773 284.015 299.304 283.978C303.91 283.866 308.524 283.961 313.133 283.909C313.778 283.909 314.42 283.529 315.062 283.334L320.164 284.197C319.447 277.643 318.782 271.719 318.157 265.783C318.003 264.307 317.332 263.832 315.839 263.847C310.766 263.896 305.684 263.803 300.591 263.766ZM392.34 217.732C392.148 217.596 391.956 217.349 391.767 217.346C386.459 217.3 381.162 217.248 375.842 217.312C375.43 217.312 374.71 218.134 374.667 218.624C374.277 222.885 374.008 227.157 373.704 231.424V236.891H395.539C396.295 230.149 397.023 223.656 397.832 216.362L392.34 217.732ZM316.896 223.958C317.249 227.986 317.558 232.04 318.011 236.071C318.06 236.525 318.903 237.239 319.387 237.244C322.073 237.282 324.761 237.135 327.45 237.052H340.327C339.952 234.851 339.599 232.782 339.25 230.722C339.407 230.38 339.717 230.029 339.705 229.692C339.568 225.883 339.445 222.068 339.132 218.27C339.089 217.766 338.017 217.004 337.378 216.958C335.16 216.822 332.936 216.814 330.717 216.932C330.224 216.952 329.754 217.47 329.284 217.76L315.784 216.897C316.22 219.645 316.564 221.803 316.908 223.961L316.896 223.958ZM390.801 279.518C391.311 274.34 391.821 269.184 392.334 263.982H371.815C371.368 270.64 370.933 277.13 370.48 283.892H381.041C382.475 283.912 383.885 283.952 385.309 283.949C389.835 283.926 389.835 283.921 390.812 279.521L390.801 279.518ZM340.849 250.243C340.697 247.099 340.542 243.951 340.382 240.657H318.55C319.295 247.165 319.983 253.475 320.803 259.767C320.854 260.164 321.826 260.719 322.374 260.728C328.249 260.794 334.125 260.805 340.001 260.699C340.539 260.699 341.528 259.738 341.511 259.26C341.419 256.242 341.095 253.241 340.849 250.243ZM345.372 240.717C344.131 240.191 343.603 240.576 343.704 241.946C344.154 248.008 344.564 254.07 345.008 260.132C345.369 260.36 345.727 260.785 346.088 260.785C353.162 260.831 360.236 260.869 367.298 260.757C367.84 260.757 368.754 259.663 368.829 259.002C369.15 256.162 369.227 253.296 369.388 250.436C369.565 247.286 369.737 244.132 369.926 240.717H345.372ZM298.028 260.889H317.518C316.759 254.09 316.085 247.784 315.274 241.494C315.217 241.068 314.128 240.476 313.531 240.47C305.833 240.401 298.137 240.424 290.441 240.441C290.072 240.441 289.705 240.588 288.945 240.752C289.805 244.222 290.625 247.571 291.447 250.917C291.617 252.499 291.691 254.099 291.972 255.661C292.889 260.739 292.918 260.736 298.028 260.889ZM369.465 234.031C369.838 232.468 370.408 230.923 370.546 229.338C370.884 225.417 371.027 221.475 371.256 217.404H342.38C342.666 223.328 342.864 229.105 343.268 234.865C343.371 236.324 344.472 237.078 346.134 237.052C351.376 236.968 356.619 237.02 361.861 237.023C364.441 237.141 367.1 237.616 369.628 237.25C371.162 237.009 370.996 234.949 369.465 234.016V234.031ZM425.195 236.908C426.391 230.868 427.585 224.833 428.778 218.805C429.13 217.009 428.021 216.871 426.665 216.874C418.726 216.9 410.787 216.932 402.847 216.874C401.194 216.874 400.623 217.496 400.509 219.081C400.311 221.846 399.913 224.599 399.649 227.359C399.336 230.486 399.076 233.619 398.763 236.914L425.195 236.908ZM285.004 217.375C284.927 217.651 284.887 217.937 284.887 218.224C285.996 224.171 287.079 230.121 288.312 236.042C288.421 236.571 289.496 237.262 290.129 237.268C297.839 237.354 305.549 237.328 313.259 237.314C313.789 237.259 314.315 237.163 314.83 237.026C314.079 230.408 313.339 223.906 312.597 217.378L285.004 217.375ZM368.41 263.985H345.028C345.383 270.435 345.696 276.705 346.146 282.974C346.177 283.423 347.206 284.151 347.774 284.154C352.701 284.171 357.628 284.027 362.555 283.99C367.14 283.952 367.298 283.99 367.656 279.602C368.089 274.435 368.181 269.27 368.422 263.967L368.41 263.985ZM322.503 307.43C322.503 306.264 322.583 305.47 322.503 304.696C321.929 299.805 321.201 294.937 320.757 290.04C320.571 287.983 319.765 287.267 317.788 287.29C311.909 287.353 306.036 287.307 300.155 287.321C299.578 287.354 299.004 287.423 298.435 287.528C298.341 287.891 298.243 288.055 298.266 288.193C299.375 294.281 300.473 300.372 301.663 306.443C301.743 306.843 302.522 307.384 302.978 307.389C309.404 307.424 315.821 307.404 322.514 307.404L322.503 307.43ZM371.924 260.892C377.854 260.892 383.638 260.782 389.408 260.946C391.778 261.013 392.925 260.564 393.134 257.877C393.572 252.217 394.392 246.587 395.069 240.835H373.105C372.715 247.453 372.337 253.938 371.936 260.866L371.924 260.892ZM321.193 264.057C321.889 270.386 322.523 276.523 323.331 282.655C323.4 283.184 324.609 283.923 325.309 283.946C329.035 284.076 332.761 284.01 336.487 284.01H342.99C342.557 277.084 342.15 270.559 341.743 264.057H321.193ZM269.518 240.752C270.716 245.859 271.889 250.62 272.938 255.408C274.13 260.854 274.084 260.875 279.733 260.875C281.003 260.875 282.276 260.918 283.545 260.875C285.474 260.794 287.398 260.65 289.447 260.526C288.415 254.953 287.598 249.772 286.42 244.676C286.088 243.238 284.775 241.028 283.757 240.936C279.151 240.49 274.471 240.717 269.541 240.717L269.518 240.752ZM275.265 263.861C275.414 264.782 275.477 265.392 275.612 265.984C276.472 269.776 277.392 273.563 278.257 277.361C279.768 283.964 279.759 283.978 286.541 283.978C287.733 283.978 288.928 283.978 290.12 283.978H293.889C292.706 277.476 291.642 271.46 290.464 265.466C290.347 264.862 289.553 263.947 289.051 263.933C284.566 263.766 280.052 263.827 275.288 263.827L275.265 263.861ZM434.441 287.278C431.289 287.278 428.448 287.241 425.605 287.278C423.478 287.316 420.801 286.723 419.391 287.782C418.136 288.725 418.219 291.539 417.82 293.536C416.929 298.033 416.101 302.541 415.186 307.384C419.047 307.384 422.61 307.312 426.164 307.421C427.574 307.464 428.11 306.846 428.514 305.652C430.334 300.294 432.223 294.963 434.054 289.612C434.272 288.999 434.281 288.291 434.441 287.278ZM281.313 287.278C281.146 287.822 281.026 287.989 281.066 288.121C282.485 294.229 283.901 300.335 285.383 306.426C285.478 306.658 285.628 306.863 285.82 307.024C286.013 307.184 286.241 307.295 286.486 307.346C290.347 307.415 294.21 307.387 298.068 307.387C298.143 306.728 298.26 306.4 298.203 306.103C297.108 300.254 296.022 294.405 294.835 288.576C294.732 288.069 293.938 287.347 293.454 287.333C289.412 287.244 285.4 287.287 281.313 287.287V287.278ZM371.741 205.472H341.525C341.755 208.349 341.967 210.996 342.196 213.873C351.74 213.873 361.018 213.894 370.299 213.807C370.783 213.807 371.638 212.898 371.675 212.369C371.83 210.159 371.741 207.929 371.741 205.481V205.472ZM431.177 205.403H402.34C401.993 208.228 401.658 210.936 401.308 213.787H429.798C430.254 211.051 430.687 208.413 431.177 205.412V205.403ZM324.194 320.82C323.89 317.687 323.738 314.994 323.294 312.347C323.19 311.731 322.107 310.839 321.459 310.825C315.747 310.704 310.029 310.75 304.311 310.747C303.19 310.747 302.488 310.98 302.812 312.424C303.313 314.666 303.554 316.967 304.082 319.203C304.225 319.819 304.987 320.742 305.48 320.751C311.568 320.857 317.662 320.82 324.194 320.82ZM326.724 310.874C326.985 313.929 327.097 316.709 327.559 319.425C327.659 320 329.014 320.745 329.811 320.771C333.858 320.909 337.911 320.834 341.961 320.834H345.226C344.985 317.235 344.779 314.102 344.564 310.874H326.724ZM286.4 310.874C287.128 313.872 287.776 316.711 288.538 319.522C288.673 320.017 289.275 320.742 289.685 320.754C293.293 320.849 296.905 320.808 300.937 320.808C300.278 317.238 299.696 314.09 299.103 310.874H286.4ZM412.658 320.837C416.129 320.837 419.059 320.869 421.985 320.808C422.458 320.808 423.209 320.492 423.344 320.138C424.453 317.198 425.444 314.211 426.631 310.785C422.518 310.785 418.975 310.761 415.433 310.822C415.072 310.822 414.476 311.279 414.404 311.613C413.805 314.545 413.283 317.494 412.658 320.837Z" fill="#A5C2D4"/>
<path d="M421.371 274.279L417.611 277.228L409.176 283.906L405.206 287.215L397.998 292.938C397.768 288.792 396.782 285.043 392.738 282.911L393.741 281.029L397.685 276.825C396.252 275.571 395.063 278.73 394.04 276.368C394.249 275.217 394.507 274.043 394.656 272.869C395.02 269.958 395.335 267.037 395.705 263.826C400.033 263.826 404.22 263.792 408.408 263.844C410.299 263.867 411.518 263.067 412.42 260.923H396.118C396.814 254.064 397.47 247.596 398.158 240.798H424.659L422.552 250.554C424.894 249.441 425.937 247.703 426.651 245.775C427.451 243.627 428.132 241.436 428.692 239.212C428.961 238.122 428.692 236.911 428.881 235.786C429.884 229.997 430.907 224.208 432.077 218.454C432.203 217.827 433.321 216.952 433.968 216.961C435.998 216.992 436.677 216.118 436.488 214.106L432.894 213.727C433.398 211.111 433.753 208.611 434.447 206.203C434.587 205.717 435.963 205.371 436.786 205.34C440.013 205.204 440.798 204.261 440.305 200.552H437.777C427.112 200.552 416.45 200.552 405.788 200.535C404.642 200.535 403.495 200.247 402.349 200.1C402.804 198.909 405.106 198.693 404.108 196.74C404.768 196.841 405.619 197.258 406.06 196.993C414.048 192.203 422.787 189.513 431.787 187.499C432.383 187.363 432.848 186.635 433.375 186.164H437.262C437.029 186.451 436.86 186.848 436.562 187.009C434.106 188.356 431.589 189.599 429.168 191.003C428.262 191.527 427.548 192.387 426.336 193.457C431.589 194.453 435.894 193.44 440.139 192.306C441.572 191.918 443.175 191.155 444.12 190.059C448.595 184.88 454.224 182.498 460.931 182.363C467.159 184.627 468.047 186.27 466.62 192.939C466.075 195.483 465.499 198.02 464.935 200.561C463.327 205.334 461.733 210.113 460.094 214.875C459.52 216.515 458.847 218.111 458.219 219.728C458.044 220.203 457.872 220.678 457.697 221.15L457.718 221.118C457.076 222.885 456.432 224.649 455.786 226.412C454.271 230.085 452.753 233.759 451.234 237.434C450.877 238.418 450.517 239.401 450.154 240.383C448.554 244.273 447.087 248.224 445.298 252.024C444.456 253.817 443.109 255.422 441.782 256.916C440.495 258.374 438.938 259.588 437.499 260.912L434.278 263.755L421.371 274.279Z" fill="#00AA78"/>
<path d="M315.426 200.469L296.864 200.351C296.823 200.117 296.738 199.894 296.615 199.692C288.988 191.82 281.522 183.75 272.035 178.021C266.001 174.376 259.696 174.698 253.341 177.158C251.3 177.949 249.274 178.763 247.239 179.569C233.235 177.043 219.23 174.516 205.224 171.988C194.816 170.106 184.411 168.218 174.011 166.323L173.229 159.357L173.154 159.317C173.203 158.974 173.249 158.632 173.297 158.29C172.774 156.082 172.25 153.876 171.727 151.672C200.357 151.672 228.987 151.736 257.618 151.615C268.426 151.569 277.807 155.067 284.846 163.166C295.282 175.193 305.156 187.709 315.262 200.023C315.341 200.161 315.396 200.312 315.426 200.469Z" fill="#18465B"/>
<path d="M247.238 179.589C249.273 178.784 251.299 177.969 253.34 177.178C259.694 174.71 266 174.387 272.033 178.041C281.52 183.77 288.987 191.852 296.614 199.712C296.737 199.914 296.822 200.138 296.863 200.371C287.645 200.419 278.426 200.467 269.204 200.515C266.74 200.515 264.275 200.489 261.81 200.515C257.952 200.564 256.057 203.052 256.831 206.845C257.072 208.03 257 209.281 257.072 210.504L211.737 270.553C211.164 271.313 210.565 272.061 209.98 272.812L200.952 271.897L195.965 269.538L209.017 243.741L210.514 240.864L212.311 237.426C212.913 236.294 213.513 235.161 214.113 234.028C221.322 220.793 228.499 207.558 235.756 194.343C238.648 189.078 241.918 184.075 246.831 180.406C247.052 180.251 247.109 179.868 247.238 179.589Z" fill="#296684"/>
<path d="M433.373 186.143C432.846 186.604 432.382 187.343 431.785 187.478C422.786 189.492 414.047 192.183 406.059 196.973C405.617 197.238 404.766 196.821 404.107 196.72C393.591 181.937 383.57 166.861 377.133 149.724C375.193 144.569 375.961 141.602 380.151 138.075C384.407 134.493 389.323 132.067 394.628 130.54C407.059 126.955 419.527 123.496 431.977 119.989C432.629 122.368 433.281 124.746 433.932 127.124C422.706 133.391 411.482 139.659 400.26 145.929C398.326 147.011 399.234 148.257 400.183 149.451C405.621 156.293 411.057 163.137 416.491 169.982C419.054 173.222 421.716 176.401 424.029 179.811C426.013 182.734 428.441 184.702 431.906 185.381C432.436 185.485 432.886 185.884 433.373 186.143Z" fill="#009F5C"/>
<path d="M474.48 208.62L487.378 171.099C489.849 174.195 490.072 178.004 490.648 181.681C493.168 197.756 495.698 213.842 500.858 229.324C502.738 234.82 505.068 240.15 507.825 245.26C509.227 247.901 511.715 250.028 513.956 252.125C514.922 253.029 515.022 253.644 514.653 254.738C512.612 260.78 508.393 264.52 502.159 265.044C489.568 266.094 483.139 262.492 478.768 251.521C474.982 242.026 474.222 231.999 474.079 221.918C474.033 217.49 474.34 213.053 474.48 208.62Z" fill="#5E4F7D"/>
<path d="M481.312 165.465C480.298 168.486 479.282 171.509 478.265 174.534C475.623 178.044 472.118 180.124 467.824 180.91C468.649 179.445 470.805 178.013 468.48 176.306C467.311 175.499 465.9 175.12 464.485 175.233C460.315 175.731 458.317 174.684 457.388 170.604C456.911 168.51 456.712 166.363 456.798 164.217C456.973 160.189 457.451 156.184 457.804 152.164L449.168 155.887C454.462 146.226 462.974 144.603 470.011 148.294C476.374 151.635 480.415 156.727 481.255 164.07C481.255 164.243 481.255 164.418 481.278 164.591L481.312 165.465Z" fill="#5E4F7D"/>
<path d="M449.158 155.89L457.794 152.167C457.442 156.195 456.963 160.197 456.788 164.22C456.705 166.369 456.906 168.519 457.387 170.615C458.316 174.695 460.314 175.743 464.484 175.245C465.899 175.131 467.31 175.51 468.479 176.318C470.804 178.013 468.648 179.445 467.823 180.921C465.768 182.596 463.326 182.36 460.927 182.337C454.22 182.472 448.602 184.863 444.117 190.033C443.171 191.127 441.574 191.892 440.136 192.28C435.891 193.431 431.586 194.435 426.332 193.431C427.544 192.361 428.258 191.501 429.164 190.977C431.586 189.576 434.102 188.33 436.559 186.984C436.845 186.822 437.026 186.425 437.258 186.138C440.388 185.136 440.737 182.092 441.732 179.65C442.019 178.968 440.981 177.733 440.52 176.773C438.513 172.618 439.327 168.645 441.761 165.091C443.979 161.852 446.673 158.943 449.158 155.89Z" fill="#F8CBC0"/>
<path d="M173.23 159.377L174.012 166.343C170.825 167.462 167.681 168.728 164.439 169.66C161.692 170.42 158.895 170.988 156.07 171.361C155.187 171.487 153.748 171.165 153.35 170.543C152.372 169.019 154.098 168.78 154.958 168.34C158.111 166.731 161.309 165.224 165.087 163.388C162.017 161.831 159.492 160.445 156.875 159.256C154.978 158.393 153.843 157.05 152.788 155.249C148.027 147.103 147.342 138.25 147.875 129.144C147.913 128.477 148.214 127.826 148.391 127.168L149.091 126.88L153.631 133.851C153.774 136.841 153.7 139.861 154.118 142.811C154.665 146.663 156.712 149.675 160.137 151.669C164.525 154.216 168.87 156.808 173.23 159.377Z" fill="#00A3DD"/>
<path d="M481.563 299.336C486.06 303.615 490.339 307.738 494.681 311.794C496.731 313.708 498.075 315.822 497.12 318.723C495.828 322.638 490.56 323.432 487.588 320.363C483.194 315.834 478.657 311.443 473.945 306.762C472.205 308.474 470.468 310.163 468.754 311.872C465.888 314.735 462.915 317.508 460.204 320.504C458.178 322.748 454.606 322.854 452.23 320.918C449.912 319.025 450.058 315.451 452.445 313C456.469 308.863 460.539 304.768 464.655 300.717C465.819 299.567 466.226 298.729 464.853 297.397C461.007 293.657 457.315 289.773 453.463 286.044C449.677 282.376 449.711 278.365 453.924 276.063C455.013 275.467 457.077 275.404 458.029 276.063C460.608 277.838 462.924 280.051 465.194 282.246C467.754 284.723 470.141 287.382 472.617 289.942C473.603 290.961 474.529 290.774 475.484 289.807C479.597 285.661 483.747 281.558 487.86 277.415C489.691 275.568 491.543 274.696 494.208 276.011C497.453 277.611 498.576 281.766 496.051 284.404C492.325 288.297 488.462 292.063 484.675 295.913C483.793 296.807 482.982 297.771 481.563 299.336ZM468.633 298.79C468.423 299.121 468.191 299.438 467.94 299.739C463.752 303.963 459.53 308.155 455.377 312.399C454.334 313.469 453.21 314.62 452.634 315.955C451.952 317.54 452.603 319.12 454.067 320.135C455.787 321.303 457.389 320.898 458.797 319.491C463.239 315.043 467.705 310.621 472.093 306.121C473.457 304.722 474.483 304.708 475.859 306.121C480.176 310.569 484.567 314.942 488.969 319.307C491.096 321.413 493.248 321.321 495.157 319.186C496.387 317.805 496.017 315.402 494.366 313.808C489.989 309.553 485.653 305.255 481.259 301.019C479.8 299.615 479.482 298.565 481.193 296.94C485.699 292.664 490.018 288.19 494.378 283.759C496.318 281.786 496.355 279.881 494.618 278.094C493.185 276.624 490.629 276.926 488.886 278.687C485.272 282.353 481.591 285.955 477.994 289.637C473.583 294.149 474.555 294.094 469.737 289.298C465.913 285.5 462.124 281.668 458.226 277.95C456.848 276.638 455.208 276.708 453.741 278.034C451.889 279.708 451.975 282.191 454.065 284.292C458.9 289.148 463.764 293.947 468.633 298.79Z" fill="#BDD6EC"/>
<path d="M200.958 271.897L209.986 272.812C209.582 278.675 209.195 284.539 208.765 290.397C208.702 291.26 208.438 292.103 208.238 293.104L205.945 293.3C205.483 288.863 205.036 284.553 204.512 279.599C202.101 281.826 199.969 283.627 198.031 285.641C196.478 287.247 194.396 288.23 192.173 288.406C185.71 289.076 179.327 288.78 173.179 286.392C170.969 285.529 168.753 284.694 166.586 283.757C166.085 283.541 165.744 282.954 165.328 282.539C165.813 282.094 166.225 281.432 166.793 281.245C168.444 280.701 170.158 280.347 171.843 279.918C174.506 280.727 177.188 281.475 179.825 282.358C183.313 283.529 186.931 283.423 189.797 281.429C193.792 278.644 197.263 275.108 200.958 271.897Z" fill="#00A3DD"/>
<path d="M290.522 66.2411C293.595 69.383 296.877 72.709 300.127 76.0666C302.059 78.0605 302.294 80.5578 300.775 82.2554C300.395 82.6837 299.933 83.0299 299.416 83.273C298.899 83.5161 298.338 83.6509 297.767 83.6692C297.196 83.6875 296.628 83.5889 296.096 83.3795C295.565 83.17 295.082 82.8542 294.676 82.451C291.302 78.9985 288.017 75.4452 284.584 71.8056L273.876 82.2583C272.084 84.0018 269.442 84.1054 267.948 82.4942C266.249 80.6614 266.538 77.4275 268.347 75.7329C271.402 72.8758 274.366 69.921 277.275 66.9115C277.547 66.6238 277.341 65.4384 276.965 65.0327C274.223 62.0578 271.339 59.2123 268.576 56.2574C266.126 53.6363 266.163 51.1016 268.559 48.9984C270.032 47.7094 271.666 47.6288 273.047 48.9379C276.141 51.8707 279.156 54.8841 282.093 57.978C284.01 59.992 284.22 59.9315 286.089 57.978C289.035 54.9167 292.108 51.9647 295.326 49.1854C297.143 47.6087 299.413 47.9655 300.849 49.5652C302.125 50.9865 301.936 54.1456 300.482 55.6849L290.522 66.2411ZM287.748 66.572C288.585 65.4528 288.748 65.1766 288.963 64.9551C292.262 61.6176 295.59 58.3117 298.852 54.9426C299.921 53.8377 300.875 52.5344 299.545 50.998C298.215 49.4616 296.865 49.7752 295.487 51.1303C292.271 54.2952 288.94 57.3421 285.756 60.5386C284.377 61.9197 283.386 61.6435 282.168 60.3861C279.187 57.3076 276.117 54.3182 273.125 51.2541C271.835 49.9334 270.545 49.3321 269.052 50.8541C267.559 52.3761 268.232 53.6651 269.525 54.9426C272.695 58.0671 275.77 61.2896 278.983 64.3767C280.173 65.5276 280.247 66.2987 279.02 67.4783C275.868 70.4993 272.893 73.6786 269.763 76.7082C268.416 78.0116 267.536 79.3264 268.846 81.0239C270.084 82.6323 271.546 82.4136 273.489 80.4744C276.593 77.3815 279.708 74.3 282.749 71.1438C283.818 70.0332 284.592 69.993 285.687 71.1179C288.668 74.2051 291.729 77.2146 294.779 80.2356C295.338 80.788 295.948 81.585 296.61 81.6742C297.559 81.7921 298.94 81.6742 299.459 81.0757C299.978 80.4773 300.07 78.9812 299.726 78.141C299.302 77.1053 298.293 76.268 297.433 75.4595C294.243 72.4874 291.013 69.5614 287.748 66.572Z" fill="#BDD6EC"/>
<path d="M393.345 376.936C393.543 376.804 393.726 376.588 393.936 376.559C399.118 375.837 404.305 375.172 409.413 376.956C413.001 381.56 413.54 386.362 410.949 390.643C407.567 396.239 400.382 397.677 394.758 393.882C389.805 390.542 388.642 383.237 392.273 378.219C392.611 377.77 392.993 377.362 393.345 376.936ZM407.152 384.834C407.152 381.16 404.827 378.737 401.319 378.792C398.453 378.826 395.28 381.942 395.237 384.765C395.188 388.14 397.925 390.775 401.514 390.807C404.879 390.818 407.143 388.424 407.152 384.834Z" fill="#296684"/>
<path d="M287.729 376.878C288.199 376.605 288.669 376.09 289.136 376.096C293.816 376.145 298.497 376.277 303.18 376.384C306.591 379.876 307.826 383.973 306.19 388.652C304.642 393.083 301.286 395.531 296.711 395.868C292.231 396.201 288.382 394.651 286.032 390.536C283.739 386.508 283.917 382.48 286.39 378.547C286.804 377.966 287.251 377.408 287.729 376.878ZM295.556 390.787C298.941 390.815 301.552 388.217 301.598 384.773C301.644 381.649 298.915 378.849 295.76 378.78C292.604 378.711 289.741 381.522 289.64 384.842C289.549 387.901 292.392 390.761 295.556 390.787Z" fill="#296684"/>
<path d="M214.116 234.036C213.516 235.17 212.915 236.303 212.313 237.434C211.932 236.637 211.72 235.685 211.147 235.069C209.141 232.911 207.028 230.857 204.927 228.794C203.907 227.79 203.706 226.987 204.881 225.834C208.158 222.626 211.282 219.262 214.518 216.011C215.862 214.659 216.2 213.157 214.882 211.813C213.506 210.415 212.064 210.95 210.754 212.297C207.653 215.499 204.417 218.569 201.359 221.811C200.035 223.218 199.161 223.118 197.882 221.771C194.815 218.537 191.594 215.441 188.475 212.276C187.171 210.944 185.876 210.421 184.408 211.951C183.035 213.39 183.548 214.63 184.801 215.864C188.023 219.058 191.158 222.344 194.426 225.488C195.721 226.734 195.664 227.566 194.391 228.788C191.175 231.873 188.057 235.061 184.95 238.254C183.13 240.124 183.199 242.452 185.171 242.858C186.317 243.097 188.037 242.57 188.931 241.753C192.58 238.384 196.011 234.776 199.794 230.978C202.445 233.619 205.039 236.263 207.707 238.824C208.536 239.621 209.573 240.205 210.516 240.884L209.02 243.761C208.582 242.981 208.266 242.09 207.682 241.442C205.71 239.27 203.632 237.193 201.62 235.061C200.427 233.798 199.295 233.599 197.974 234.931C195.125 237.808 192.242 240.648 189.315 243.436C187.487 245.182 184.42 245.093 182.929 243.376C181.64 241.891 181.984 238.884 183.634 237.29C186.991 234.051 190.353 230.811 194.271 227.033C190.476 223.46 187.019 220.229 183.586 216.963C182.006 215.464 181.76 213.643 182.643 211.715C183.526 209.788 185.222 209.396 187.059 209.701C187.965 209.9 188.795 210.355 189.45 211.013C192.359 213.822 195.228 216.679 198.023 219.607C199.338 220.989 200.316 220.879 201.562 219.518C204.291 216.535 207.131 213.658 209.903 210.717C212.196 208.295 214.678 209.385 216.495 211.12C217.986 212.558 217.59 215.545 215.75 217.326C213.125 219.861 210.45 222.344 207.857 224.907C207.143 225.609 206.633 226.518 206.186 227.12C208.358 229.421 210.319 231.594 212.382 233.651C212.738 233.985 213.526 233.91 214.116 234.036Z" fill="#BDD6EC"/>
<path d="M173.228 159.377C168.869 156.808 164.524 154.216 160.147 151.678C156.707 149.684 154.664 146.672 154.128 142.819C153.709 139.87 153.784 136.849 153.641 133.86C154.38 134.395 155.214 134.838 155.842 135.483C160.904 140.684 165.925 145.924 170.967 151.146C171.207 151.35 171.465 151.532 171.738 151.69C172.261 153.895 172.785 156.101 173.308 158.307C173.26 158.649 173.214 158.995 173.165 159.337L173.228 159.377Z" fill="#F8CBC0"/>
<path d="M408.979 19.3491C409.495 29.1775 400.633 38.7929 390.464 38.5282C379.03 38.2405 371.67 30.3053 371.363 19.6282C371.059 9.12372 379.692 0.874919 390.194 0.638993C400.593 0.428961 409.489 9.88905 408.979 19.3491ZM390.369 36.6552C399.452 37.7802 407.603 28.0669 407.566 19.4642C407.532 10.1883 399.483 1.96249 390.214 2.15238C381.249 2.33939 373.031 9.63299 372.951 19.6829C372.891 27.8885 381.031 37.7284 390.369 36.6552Z" fill="#BDD6EC"/>
<path d="M200.955 271.897C197.26 275.108 193.789 278.644 189.794 281.423C186.927 283.417 183.31 283.523 179.822 282.352C177.185 281.469 174.503 280.721 171.84 279.913L195.967 269.538L200.955 271.897Z" fill="#F8CBC0"/>
<path d="M433.931 127.124C433.278 124.746 432.626 122.368 431.977 119.989C436.66 118.142 441.24 115.898 446.075 114.649C447.867 114.189 450.263 116.047 452.367 116.89C452.797 117.06 453.146 117.428 453.53 117.702C453.672 118.922 453.811 120.143 453.949 121.364C452.928 123.554 449.85 125.105 447.511 124.624C446.973 124.515 446.431 124.426 445.892 124.336C445.319 123.842 444.728 122.898 444.189 122.932C442.06 123.045 439.95 123.465 437.884 123.758C438.021 125.197 438.11 126.129 438.199 127.067L433.931 127.124Z" fill="#F8CBC0"/>
<path d="M502.11 115.213C510.709 115.121 517.487 122.265 517.407 130.934C517.332 139.459 510.72 147.155 500.829 146.695C493.887 146.373 486.057 140.417 486.266 130.442C486.438 122.36 493.557 114.747 502.11 115.213ZM501.955 144.937C509.456 145.374 515.985 138.291 515.922 131.055C515.845 122.527 509.903 116.738 501.379 116.758C493.641 116.778 487.868 123.315 487.805 130.502C487.733 138.737 493.873 144.94 501.955 144.94V144.937Z" fill="#BDD6EC"/>
<path d="M130.138 108.688C130.127 110.769 129.703 112.827 128.89 114.742C128.078 116.657 126.894 118.39 125.407 119.84C123.92 121.291 122.16 122.429 120.23 123.189C118.3 123.949 116.238 124.316 114.165 124.267C106.274 124.075 98.3438 117.52 99.0431 107.617C99.3154 103.779 100.356 100.24 103.119 97.7832C105.581 95.5936 108.739 92.8431 111.66 92.7625C123.262 92.4345 129.935 98.1399 130.138 108.688ZM100.525 108.613C100.794 117.82 107.255 122.564 114.306 122.682C121.649 122.806 128.68 117.791 128.611 108.106C128.559 101.253 122.81 94.4773 114.412 94.4428C106.974 94.414 100.244 101.132 100.531 108.616L100.525 108.613Z" fill="#BDD6EC"/>
<path d="M453.95 121.364C453.81 120.144 453.671 118.924 453.531 117.702L464.6 113.34C465.79 112.871 466.753 112.563 467.372 114.301C467.945 115.924 467.277 116.488 465.999 116.954C461.981 118.417 457.964 119.887 453.95 121.364Z" fill="#A5C2D4"/>
<path d="M438.214 127.055C438.125 126.117 438.036 125.179 437.898 123.747C439.951 123.459 442.06 123.033 444.204 122.921C444.743 122.892 445.336 123.83 445.907 124.325L438.214 127.055Z" fill="#A5C2D4"/>
<path d="M481.269 164.594C481.269 164.421 481.255 164.245 481.246 164.073C481.313 164.189 481.369 164.311 481.413 164.438C481.422 164.473 481.321 164.539 481.269 164.594Z" fill="#A5C2D4"/>
<path d="M425.193 236.893H398.75C399.054 233.599 399.323 230.466 399.636 227.338C399.922 224.579 400.309 221.826 400.496 219.061C400.61 217.476 401.181 216.843 402.834 216.854C410.774 216.917 418.713 216.886 426.652 216.854C428.008 216.854 429.117 216.989 428.765 218.785C427.58 224.823 426.39 230.859 425.193 236.893Z" fill="#00AA78"/>
<path d="M285.004 217.361H312.597C313.339 223.889 314.079 230.406 314.83 237.009C314.315 237.146 313.789 237.242 313.259 237.296C305.549 237.296 297.839 237.337 290.129 237.25C289.496 237.25 288.409 236.554 288.312 236.025C287.079 230.103 285.996 224.154 284.887 218.206C284.888 217.92 284.927 217.636 285.004 217.361Z" fill="#296684"/>
<path d="M291.451 250.902C290.629 247.556 289.803 244.207 288.949 240.737C289.709 240.573 290.076 240.427 290.445 240.427C298.141 240.409 305.837 240.386 313.535 240.455C314.143 240.455 315.221 241.054 315.278 241.48C316.086 247.769 316.763 254.076 317.522 260.875H298.032L291.451 250.902Z" fill="#296684"/>
<path d="M345.371 240.714H369.934C369.745 244.129 369.573 247.283 369.395 250.433C369.235 253.293 369.158 256.159 368.837 258.999C368.762 259.66 367.848 260.745 367.306 260.754C360.235 260.866 353.161 260.828 346.096 260.782C345.735 260.782 345.377 260.357 345.016 260.132C345.145 259.292 345.383 258.452 345.385 257.609C345.403 251.97 345.38 246.348 345.371 240.714Z" fill="#00AA78"/>
<path d="M368.421 263.968C368.181 269.27 368.089 274.435 367.668 279.573C367.309 283.97 367.14 283.923 362.566 283.961C357.639 283.998 352.712 284.142 347.785 284.125C347.212 284.125 346.188 283.394 346.157 282.945C345.707 276.687 345.394 270.418 345.039 263.956L368.421 263.968Z" fill="#00AA78"/>
<path d="M371.934 260.866C372.335 253.938 372.713 247.453 373.1 240.809H395.084C394.407 246.564 393.588 252.191 393.149 257.851C392.94 260.538 391.793 260.987 389.423 260.921C383.648 260.757 377.864 260.866 371.934 260.866Z" fill="#00AA78"/>
<path d="M321.227 264.028H341.791C342.198 270.53 342.605 277.056 343.038 283.981H336.535C332.809 283.981 329.083 284.047 325.357 283.918C324.657 283.895 323.448 283.155 323.379 282.626C322.545 276.495 321.912 270.343 321.227 264.028Z" fill="#296684"/>
<path d="M340.85 250.243C341.096 253.244 341.423 256.245 341.512 259.252C341.529 259.738 340.54 260.69 340.001 260.69C334.129 260.797 328.25 260.785 322.374 260.719C321.827 260.719 320.855 260.144 320.804 259.758C319.993 253.466 319.296 247.156 318.551 240.648H332.056C334.787 243.909 337.525 247.17 340.271 250.431C340.319 250.5 340.649 250.313 340.85 250.243Z" fill="#296684"/>
<path d="M381.054 283.883H370.492C370.945 277.122 371.381 270.631 371.828 263.973H392.347C391.834 269.187 391.324 274.354 390.813 279.51L381.054 283.883Z" fill="#00AA78"/>
<path d="M392.724 282.911C396.768 285.043 397.754 288.792 397.983 292.938C397.507 295.792 397.037 298.652 394.782 300.775L392.042 304.855L396.47 304.279V306.218L399.952 307.415C398.668 308.514 397.384 309.614 396.1 310.715L390.018 311.187L393.458 314.249L393.01 315.011L389.921 314.579L386.665 313.642C386.091 312.203 383.346 313 383.609 310.681C383.626 308.422 382.853 306.978 380.256 307.315C380.044 307.343 379.786 306.998 379.551 306.828C382.873 305.709 382.873 305.709 381.692 302.8C381.847 301.606 381.666 300.211 382.216 299.25C384.509 295.222 387.009 291.3 389.433 287.341C390.412 285.866 391.387 284.39 392.36 282.911L392.54 282.931L392.724 282.911Z" fill="#F8CBC0"/>
<path d="M339.26 230.713C339.61 232.785 339.962 234.853 340.338 237.043H327.46C325.582 234.431 323.794 231.746 321.796 229.232C320.306 227.358 318.546 225.701 316.907 223.949C316.563 221.791 316.219 219.633 315.777 216.883L329.277 217.746L339.26 230.713Z" fill="#18465B"/>
<path d="M392.35 217.732L397.85 216.365C397.031 223.659 396.303 230.152 395.557 236.893H373.723V231.427C374.101 231.303 374.545 231.272 374.843 231.047C380.687 226.622 386.522 222.184 392.35 217.732Z" fill="#00AA78"/>
<path d="M368.414 319.407L365.084 320.4C361.011 320.587 356.901 320.492 353.952 317.218C352.255 315.33 351.154 312.902 349.787 310.721C349.727 309.694 349.67 308.667 349.609 307.643C349.678 306.932 349.718 306.204 349.821 305.508C350.085 303.623 350.76 301.82 351.799 300.229C352.838 298.637 354.215 297.296 355.832 296.301C357.448 295.307 359.264 294.684 361.148 294.477C363.033 294.27 364.94 294.484 366.732 295.104L369.787 296.338C372.348 298.154 374.248 300.759 375.199 303.758C375.39 304.953 375.572 306.146 375.746 307.338L375.574 310.727C374.138 314.404 372.049 317.552 368.414 319.407ZM362.682 298.116C357.016 298.076 353.066 301.857 353.092 307.502C353.12 313.633 357.302 316.76 362.335 317.247C367.586 317.756 372.143 312.891 372.235 307.372C372.327 302.297 368.059 298.162 362.691 298.122L362.682 298.116Z" fill="#FDD269"/>
<path d="M431.175 205.412C430.685 208.413 430.252 211.051 429.802 213.796H401.312C401.662 210.944 401.998 208.237 402.344 205.412H431.175Z" fill="#00AA78"/>
<path d="M315.062 283.331C309.343 277.962 305.293 271.31 300.963 264.874C300.756 264.566 300.719 264.14 300.602 263.772C305.683 263.806 310.765 263.898 315.844 263.841C317.337 263.841 318.008 264.301 318.163 265.777C318.782 271.704 319.447 277.628 320.169 284.191L315.062 283.331Z" fill="#296684"/>
<path d="M308.813 213.632C302.304 213.704 295.795 213.796 289.283 213.839C283.86 213.873 283.86 213.839 282.978 208.433C282.823 207.503 282.657 206.574 282.453 205.386H302.109L308.813 213.632Z" fill="#296684"/>
<path d="M282.047 236.862L269.098 217.297C272.726 217.271 276.352 217.211 279.989 217.251C280.485 217.251 281.342 217.703 281.422 218.071C282.692 224.346 283.864 230.641 285.148 237.457L282.047 236.862Z" fill="#296684"/>
<path d="M261.445 206.269C261.944 205.944 262.437 205.34 262.941 205.334C267.794 205.259 272.649 205.248 277.502 205.334C278.075 205.334 279.032 205.944 279.164 206.442C279.769 208.743 280.144 211.085 280.597 213.407H266.289L261.445 206.269Z" fill="#296684"/>
<path d="M339.835 294.454C334.499 295.029 329.655 293.458 325.032 290.97C324.593 289.905 324.157 288.843 323.633 287.56H342.636C341.701 289.86 340.768 292.158 339.835 294.454Z" fill="#296684"/>
<path d="M366.981 288.714C360.866 290.565 354.746 292.41 348.62 294.249C348.078 294.369 347.528 294.445 346.975 294.477C346.829 292.817 346.657 291.157 346.539 289.494C346.422 287.831 346.94 286.849 348.947 286.904C354.186 287.016 359.428 286.904 364.671 286.985C365.602 286.985 366.525 287.56 367.454 287.891L366.981 288.714Z" fill="#00AA78"/>
<path d="M316.906 223.961C318.546 225.713 320.305 227.37 321.796 229.243C323.802 231.758 325.582 234.442 327.459 237.055C324.771 237.138 322.083 237.285 319.397 237.247C318.913 237.247 318.07 236.528 318.021 236.073C317.568 232.043 317.259 228 316.906 223.961Z" fill="#296684"/>
<path d="M319.638 205.34C321.255 207.463 322.889 209.572 324.482 211.713C324.989 212.397 325.391 213.151 325.841 213.899H315.574C315.219 210.93 314.903 208.286 314.551 205.343L319.638 205.34Z" fill="#18465B"/>
<path d="M308.814 213.632L302.102 205.386H311.242C311.554 208.128 311.858 210.778 312.185 213.632H308.814Z" fill="#18465B"/>
<path d="M340.85 250.243C340.65 250.315 340.32 250.502 340.277 250.445C337.522 247.184 334.783 243.923 332.062 240.663H340.374C340.544 243.948 340.698 247.096 340.85 250.243Z" fill="#18465B"/>
<path d="M345.372 240.714C345.372 246.348 345.404 251.978 345.372 257.609C345.372 258.452 345.131 259.292 345.002 260.132C344.57 254.067 344.143 248.005 343.698 241.943C343.604 240.573 344.131 240.188 345.372 240.714Z" fill="#18465B"/>
<path d="M361.863 237.009L369.464 234.016C370.995 234.949 371.161 237.014 369.631 237.236C367.103 237.601 364.457 237.127 361.863 237.009ZM364.443 237.081V237.429C364.695 237.409 364.947 237.391 365.197 237.36C365.212 237.309 365.218 237.257 365.214 237.204C364.956 237.155 364.701 237.118 364.449 237.081H364.443Z" fill="#00AA78"/>
<path d="M339.836 294.454C340.77 292.152 341.704 289.85 342.636 287.549C342.963 290.211 343.291 292.871 343.619 295.53L340.037 296.364C339.959 295.645 339.896 295.049 339.836 294.454Z" fill="#00AA78"/>
<path d="M451.238 237.383C452.757 233.709 454.274 230.035 455.79 226.36C454.615 229.862 453.454 233.369 452.23 236.85C452.135 237.112 451.579 237.21 451.238 237.383Z" fill="#BDD6EC"/>
<path d="M396.527 213.416L398.482 208.341C398.459 209.736 398.448 211.129 398.41 212.521C398.37 214.055 397.72 214.322 396.527 213.416Z" fill="#00AA78"/>
<path d="M455.781 226.363C456.427 224.6 457.071 222.836 457.713 221.069C457.071 222.843 456.427 224.608 455.781 226.363Z" fill="#BDD6EC"/>
<path d="M392.725 282.911L392.548 282.928L392.367 282.908L393.743 281.029L392.725 282.911Z" fill="#BDD6EC"/>
<path d="M173.152 159.325C173.201 158.983 173.247 158.638 173.296 158.295C173.247 158.652 173.201 158.995 173.152 159.325Z" fill="#00A3DD"/>
<path d="M407.154 384.834C407.154 388.425 404.881 390.818 401.516 390.79C397.927 390.761 395.19 388.125 395.239 384.748C395.282 381.925 398.452 378.809 401.321 378.775C404.829 378.737 407.162 381.154 407.154 384.834Z" fill="#18465B"/>
<path d="M295.555 390.787C292.402 390.761 289.536 387.909 289.639 384.842C289.743 381.522 292.583 378.708 295.759 378.78C298.934 378.852 301.643 381.657 301.597 384.773C301.551 388.217 298.94 390.815 295.555 390.787Z" fill="#18465B"/>
<path d="M394.783 300.775L406.97 298.965C407.191 300.145 407.386 301.192 407.624 302.458L396.471 304.291L392.043 304.866L394.783 300.775Z" fill="#296684"/>
<path d="M383.617 310.692L375.574 310.733L375.746 307.343L379.558 306.84C379.793 307.01 380.051 307.355 380.263 307.326C382.851 306.99 383.634 308.434 383.617 310.692Z" fill="#A5C2D4"/>
<path d="M379.555 306.84L375.743 307.343C375.552 306.15 375.369 304.957 375.195 303.764L381.696 302.797C382.877 305.721 382.877 305.721 379.555 306.84Z" fill="#296684"/>
<path d="M364.449 237.081C364.701 237.118 364.956 237.155 365.208 237.204C365.213 237.257 365.207 237.309 365.191 237.36C364.942 237.391 364.69 237.409 364.438 237.429L364.449 237.081Z" fill="#A5C2D4"/>
<path d="M381.652 28.8437C382.627 24.5827 388.465 22.0133 393.3 23.3311C396.499 24.1942 398.998 26.8326 398.399 29.235C396.107 26.565 393.713 24.6028 390.047 24.505C386.31 24.4072 384.384 27.2469 381.652 28.8437Z" fill="#BDD6EC"/>
<path d="M396.182 17.4818C395.721 16.8632 394.531 15.9339 394.311 14.8118C394.215 14.4371 394.214 14.0441 394.309 13.6692C394.405 13.2942 394.592 12.9495 394.856 12.6667C395.119 12.3839 395.449 12.1723 395.815 12.0514C396.181 11.9305 396.571 11.9042 396.95 11.975C398.037 12.1533 399.53 13.5286 399.731 14.5874C400.034 16.1152 398.948 17.4473 396.182 17.4818Z" fill="#BDD6EC"/>
<path d="M386.084 14.8521C386.052 16.3741 385.224 17.4099 383.347 17.4559C381.538 17.4962 380.81 16.5467 380.767 14.7888C380.721 12.9589 381.722 12.0584 383.329 12.0037C384.937 11.949 386.093 12.7086 386.084 14.8521Z" fill="#BDD6EC"/>
<path d="M509.062 138.345C506.594 137.22 504.287 135.756 501.773 135.129C498.821 134.378 497.239 137.557 494.711 139.056C495.061 135.848 498.282 133.529 501.739 133.434C505.109 133.345 508.583 135.687 509.062 138.345Z" fill="#BDD6EC"/>
<path d="M507.042 124.328C509.151 124.636 509.753 125.539 509.747 126.917C509.747 128.485 508.724 129.412 507.323 129.032C506.437 128.793 505.227 127.645 505.207 126.874C505.187 126.04 506.382 125.176 507.042 124.328Z" fill="#BDD6EC"/>
<path d="M496.815 124.451C497.322 125.246 498.357 126.158 498.211 126.805C498.013 127.668 496.918 128.359 496.204 129.124C495.474 128.376 494.255 127.685 494.161 126.863C494.075 126.112 495.204 125.22 495.797 124.388L496.815 124.451Z" fill="#BDD6EC"/>
<path d="M121.903 115.906C119.323 114.825 116.879 112.989 114.471 113.029C112.124 113.064 109.805 115.014 107.546 116.09C107.317 114.301 109.189 112.35 112.419 111.346C115.812 110.287 119.997 112.249 121.903 115.906Z" fill="#BDD6EC"/>
<path d="M116.816 104.516C118.321 103.486 119.144 102.502 120.09 102.372C121.523 102.159 122.669 103.287 122.365 104.674C122.176 105.537 120.901 106.688 120.044 106.743C119.187 106.797 118.321 105.621 116.816 104.516Z" fill="#BDD6EC"/>
<path d="M111.448 104.061C111.176 106.161 110.319 106.636 108.889 106.636C107.459 106.636 106.401 106.018 106.825 104.576C107.089 103.681 108.146 102.562 108.98 102.436C109.703 102.326 110.617 103.471 111.448 104.061Z" fill="#BDD6EC"/>
</svg>
