<svg width="482" height="376" viewBox="0 0 482 376" fill="none" xmlns="http://www.w3.org/2000/svg">
<path d="M76.1936 116.596C77.7302 115.555 79.1421 114.668 80.4793 113.68C84.9017 110.411 89.9415 108.568 95.1953 107.249C96.9817 106.802 98.3047 105.87 99.6314 104.594C103.113 101.244 106.556 97.7707 110.456 94.9678C114.931 91.7581 119.93 89.1757 125.429 88.1553C127.968 87.6848 130.668 88.0802 133.782 88.0819C135.274 86.9949 135.751 85.1401 135.447 82.7719C135.21 80.7786 135.239 78.7619 135.535 76.7753C136.223 71.9584 139.444 69.9644 143.267 71.7575C143.486 71.8346 143.714 71.8853 143.945 71.9083C145.618 70.4751 145.636 70.4821 147.419 72.4321C149.311 71.5313 151.057 71.825 152.74 73.1769C154.359 74.4751 156.143 75.5592 157.801 76.81C160.543 78.8818 161.166 81.6443 160.529 84.9433C160.253 86.3791 160.199 88.005 160.586 89.3882C161.429 92.4128 159.452 95.6091 156.389 96.0328C154.803 96.2565 153.206 96.398 151.606 96.4564C150.113 96.5077 148.614 96.3875 147.078 96.3416C146.45 97.2327 145.728 98.1884 145.093 99.1966C144.851 99.5932 144.73 100.053 144.748 100.517C144.84 101.88 145.017 103.236 145.194 104.593C145.385 106.108 145.392 107.531 144.618 108.987C143.799 110.53 143.466 112.321 142.764 113.938C140.688 118.73 137.417 122.674 133.937 126.51C130.359 130.45 126.756 134.336 122.461 137.503C120.907 138.649 119.317 139.756 117.683 140.78C112.449 144.062 106.681 146.279 101.032 148.61C95.0385 151.075 88.6302 152.508 82.2019 153.41C77.3618 154.091 72.4839 154.46 67.598 154.517C64.5896 154.551 61.5152 153.959 58.5712 153.237C55.2291 152.419 51.8705 151.422 48.7444 150.006C43.8205 147.781 39.8237 144.388 37.3945 139.365C37.0084 138.568 36.1645 137.954 35.4412 137.365C34.5182 136.614 33.8797 137.519 33.0872 137.845C30.969 138.72 28.8272 139.577 26.4331 139.404C22.5142 139.137 20.982 137.844 20.3278 133.989C20.2521 133.515 20.1342 132.996 20.2435 132.547C21.0092 129.365 20.5087 126.158 20.5842 122.964C20.6136 121.482 21.1026 119.986 21.5219 118.535C22.0885 116.624 23.9757 116.104 25.4512 115.247C26.2464 114.788 26.9898 114.542 27.0913 113.484C27.1272 113.123 27.4468 112.773 27.6854 112.452C29.4772 110.042 31.2384 109.814 33.8691 111.304C36.2934 112.678 37.1789 115.138 38.5328 117.273C38.8291 117.747 38.9441 118.341 39.2612 118.794C39.5118 119.151 39.9458 119.376 40.2995 119.662C40.5166 119.309 40.6614 118.868 40.9631 118.618C42.5371 117.313 44.0951 115.976 45.7661 114.802C48.8113 112.664 52.4092 112.448 55.9327 112.296C60.0957 112.114 64.2853 112.264 68.2934 113.559C71.0117 114.448 73.6545 115.612 76.1936 116.596Z" fill="white" fill-opacity="0.1"/>
<path d="M264.99 108.606C263.778 107.118 262.682 105.838 261.652 104.496C260.149 102.53 258.441 100.703 257.918 98.1171C257.624 96.6669 257.638 95.2594 258.11 93.9331C258.398 93.1293 259.064 92.3458 259.759 91.821C262.649 89.6436 265.622 87.5683 268.814 85.8523C272.006 84.1363 275.311 82.7736 278.905 82.486C281.16 82.3087 283.471 82.5419 285.712 82.8832C288.078 83.2417 289.996 85.6094 290.517 87.9322C291.279 91.3303 290.829 94.6571 290.184 98.2086C291.584 98.3601 292.94 98.5646 294.288 98.621C294.752 98.6413 295.404 98.4286 295.674 98.0869C296.919 96.5144 298.058 94.8576 299.181 93.3036C299.741 93.4127 300.167 93.6433 300.432 93.5228C302.093 92.7706 303.558 93.5721 305.094 93.9583C305.736 94.1209 306.438 94.0366 307.107 94.0643C307.048 92.1438 306.891 90.4997 306.973 88.8479C307.104 86.1744 308.318 83.9201 310.033 81.9101C310.577 81.2756 311.298 81.1933 311.946 81.8636C312.476 82.4585 312.935 83.1136 313.313 83.8156C315.054 86.7829 315.998 89.9847 315.779 93.437C315.676 95.1517 315.354 96.8539 315.084 98.5543C314.964 99.3018 315.128 99.8638 315.745 100.329C316.8 101.131 317.816 101.983 318.982 102.916C319.708 101.615 320.354 100.269 321.175 99.0251C323.232 95.9171 325.71 93.2645 329.382 92.0311C329.791 91.8889 330.245 91.843 330.607 91.6305C333.459 89.9616 336.666 89.7606 339.823 89.3474C340.783 89.2202 341.499 89.594 342.068 90.3991C341.046 101.699 335.121 108.957 324.167 112.133C323.883 113.043 323.512 114.021 323.258 115.026C323.14 115.499 323.095 115.793 322.558 116.096C321.679 116.594 321.579 118.028 322.134 118.893C322.773 119.871 323.339 120.887 324.042 121.811C324.426 122.341 324.938 122.766 325.529 123.046C328.82 124.415 332.13 125.737 335.459 127.011C336.429 127.38 337.501 127.474 338.48 127.824C340.503 128.546 342.557 129.231 344.486 130.161C347.307 131.523 349.753 133.306 350.621 136.617C351.245 139.003 350.186 142.162 348.22 143.669C346.819 144.759 345.567 145.997 344.217 147.131C340.505 150.26 336.771 153.363 333.069 156.491C331.669 157.67 330.461 159.191 328.88 160.015C326.956 161.009 325.537 162.503 324.122 163.957C321.462 166.696 318.528 169.077 315.523 171.399C312.859 173.455 310.31 175.68 307.509 177.532C305.764 178.683 304.221 180.38 301.902 180.515C301.715 180.545 301.538 180.62 301.386 180.733C297.602 183.088 293.587 182.871 289.506 181.776C284.981 180.561 280.681 178.771 276.42 176.834C274.329 175.886 272.425 174.666 270.416 173.582C268.36 172.478 266.273 171.421 264.152 170.448C261.076 169.038 257.947 167.745 254.861 166.358C252.627 165.354 250.475 164.148 248.201 163.253C242.495 161.015 237.237 157.838 231.631 155.405C229.561 154.508 227.516 153.554 225.495 152.544C222.252 150.924 221.238 148.113 221.552 144.695C221.647 143.788 221.838 142.894 222.122 142.027C222.735 140.073 224.007 138.734 225.796 137.658C229.005 135.739 232.052 133.555 235.181 131.511C235.626 131.22 236.186 131.107 236.684 130.893C237.361 130.593 238.145 130.425 238.671 129.958C239.196 129.491 239.763 129.36 240.355 129.113C241.525 128.623 242.601 127.925 243.704 127.291C244.923 126.59 246.098 125.819 247.343 125.159C248.47 124.558 249.094 123.614 249.364 122.439C250.379 118.016 252.928 114.79 256.611 112.172C259.104 110.374 261.967 109.155 264.99 108.606Z" fill="white" fill-opacity="0.1"/>
<path d="M210.651 62.2555C211.482 64.1165 212.258 65.7081 212.912 67.354C213.59 69.0624 214.071 70.855 214.797 72.5398C215.242 73.5587 216.01 74.4598 216.646 75.4033C218.545 78.2113 219.838 81.3845 220.441 84.7201C220.738 86.294 220.873 87.8633 220.562 89.472C220.453 90.0237 220.607 90.6998 220.838 91.2316C222.29 94.5571 223.722 97.8586 225.838 100.881C227.212 102.838 227.977 105.178 227.617 107.705C227.367 109.416 226.666 110.725 224.931 111.354C224.196 111.62 223.61 111.675 222.849 111.312C219.731 109.831 217.915 107.414 217.181 104.072C217.004 103.272 216.523 102.54 216.105 101.604C215.688 102.196 215.319 102.718 214.929 103.231C213.407 105.232 212.049 105.533 210.064 103.968C205.871 100.666 201.673 97.366 198.161 93.2867C195.869 90.6269 193.358 88.1424 191.221 85.3666C189.953 83.717 188.391 82.5597 186.812 81.3211C184.594 79.5801 182.476 77.7092 180.311 75.9042C179.362 75.1104 178.43 74.309 177.431 73.5985C177.07 73.3876 176.641 73.3271 176.236 73.43C174.142 73.9961 172.496 73.2315 171.198 71.6867C170.292 70.612 169.54 69.4055 168.764 68.2278C168.619 68.0083 168.742 67.6288 168.642 67.359C168.41 66.736 168.263 65.9897 167.832 65.5453C165.192 62.8927 162.515 60.2732 159.77 57.7287C158.981 56.9975 157.971 56.4623 156.988 55.9963C153.772 54.4679 150.519 53.0126 147.075 51.436C146.386 51.8106 145.41 52.2224 144.57 52.825C141.083 55.3264 137.352 55.4401 133.521 53.9047C130.56 52.725 127.946 51.0008 126.24 48.1908C125.833 47.5202 125.573 46.7557 125.273 46.0252C125.135 45.6808 125.147 45.2898 124.992 44.9695C123.308 41.6139 123.765 38.3313 125.096 34.9783C126.404 31.6765 128.81 29.6421 131.901 28.1253C133.534 27.3226 134.99 26.153 136.507 25.1221C137.709 24.3048 138.818 23.3183 140.093 22.6392C141.641 21.8137 143.323 21.2413 144.937 20.5406C145.837 20.1504 146.715 19.7036 147.613 19.3084C150.324 18.1117 154.812 16.9936 157.143 16.8617C158.17 15.9827 158.911 15.0896 159.861 14.5838C161.644 13.6351 163.552 12.9208 165.396 12.085C166.057 11.7897 166.756 11.4977 167.312 11.065C170.62 8.49165 174.562 6.8591 178.722 6.33937C183.301 5.72871 187.498 6.77422 191.378 9.24399C191.487 9.30247 191.587 9.3749 191.677 9.45945C194.232 12.31 196.847 15.1846 197.185 19.2203C197.459 22.4793 196.554 25.4164 193.82 27.5427C193.382 27.9222 192.964 28.3244 192.567 28.7477C194.398 30.4314 195.852 32.4835 196.833 34.7692C197.387 36.0028 198.051 37.1844 198.816 38.2996C199.375 39.1236 200.259 39.6724 201.323 39.5075C203.048 39.2422 204.481 39.8647 205.794 40.8569C207.709 42.3051 209.581 43.7945 210.823 45.9307C211.378 46.8822 212.179 47.6953 212.713 48.6584C213.96 50.9 214.713 53.3847 214.635 55.8993C214.545 58.517 213.74 61.0421 210.651 62.2555Z" fill="white" fill-opacity="0.1"/>
<path d="M304.75 44.9595C308.054 47.137 310.206 49.9797 310.81 53.8552C311.29 56.9004 309.664 59.7221 307.084 61.0428C303.145 63.0577 298.612 61.9568 295.951 58.6205C294.756 57.11 293.813 55.4048 292.73 53.8029C292.313 53.1838 291.848 52.5988 291.339 52.0533C290.687 51.3601 290.004 51.2237 288.533 51.4276C288.791 51.9376 288.995 52.4062 289.258 52.8399C289.464 53.1791 289.821 53.4403 289.966 53.7964C290.112 54.1525 290.254 54.6797 290.134 55.039C289.958 55.5394 289.412 55.4729 288.961 55.3457C287.716 54.9909 286.466 54.642 285.232 54.2601C284.52 54.0385 283.818 53.773 283.129 53.4834C281.697 52.881 281.453 53.0118 280.211 54.0282C278.389 55.5212 277.444 57.644 276.049 59.4387C273.673 62.5002 271.437 65.6998 267.931 67.6508C265.801 68.8371 263.785 70.2617 261.556 71.1931C259.652 71.9851 257.645 72.847 255.429 72.4811C255.029 72.415 254.584 72.7024 254.151 72.7663C252.022 73.0859 249.919 72.908 247.835 72.4034C246.292 72.03 244.716 71.7662 243.214 71.2523C241.214 70.5795 239.499 69.3313 237.953 67.9379C236.111 66.2779 234.189 64.6447 232.984 62.415C232.137 60.8507 231.34 59.2506 230.648 57.6124C230.09 56.2898 229.524 54.9191 229.309 53.5114C228.837 50.38 228.436 47.24 228.868 44.0337C229.29 40.7798 230.327 37.6357 231.925 34.7694C232.649 33.4751 233.285 32.1314 234.028 30.8485C234.416 30.2188 234.866 29.6292 235.372 29.0887C237.474 26.7272 239.876 24.7214 242.672 23.236C243.594 22.7442 244.576 22.3736 245.593 22.1336C247.341 21.7277 249.126 21.4773 250.887 21.1542C251.458 21.048 251.971 21.5348 252.635 21.1123C253.047 20.8545 253.797 21.0875 254.387 21.1775C255.019 21.2711 255.661 21.6325 256.26 21.5581C257.597 21.3917 258.771 21.8502 260.012 22.1597C263.265 22.9706 265.979 24.7496 268.701 26.6088C270.608 27.9161 272.404 29.2806 273.807 31.1449C275.55 33.4668 277.405 35.7016 278.82 38.254C279.047 38.6632 279.392 39.0048 279.724 39.4292C282.336 37.9425 283.785 35.2572 286.215 33.7551C287.308 34.9342 286.095 35.9011 286.414 36.9345C286.693 37.8402 286.497 38.8928 286.513 39.9902L288.272 40.6088C288.64 39.9582 289.134 39.3649 289.332 38.6868C290.032 36.284 291.735 34.5929 293.314 32.8037C293.478 32.6184 293.675 32.4602 293.844 32.2787C295.898 30.0789 298.569 29.1731 301.445 28.9473C302.959 28.831 304.523 29.0781 305.736 30.2342C305.772 30.2691 305.811 30.3001 305.854 30.3268C307.363 31.2412 308.447 32.4629 308.72 34.2766C308.926 35.6406 309.235 36.9985 309.318 38.3675C309.349 39.0555 309.107 39.8489 308.764 40.4719C307.418 42.9451 306.981 43.381 304.75 44.9595Z" fill="white" fill-opacity="0.1"/>
<path d="M46.7428 68.8281C46.2764 73.1386 45.9043 77.0653 45.4068 80.976C45.1453 83.1653 44.7352 85.3344 44.1795 87.4683C43.9915 88.1644 43.0264 88.6451 42.4566 89.2594C41.2922 90.5186 40.0261 90.8568 38.2467 90.5115C35.3798 89.9624 32.3999 89.9911 29.5213 89.4838C24.6085 88.6155 19.6953 87.6851 14.8598 86.4788C9.72468 85.2067 4.61307 83.7175 -0.40212 82.0237C-3.75277 80.8945 -7.15526 79.6021 -10.1129 77.7202C-13.4756 75.5723 -16.4518 72.7545 -19.4927 70.1137C-25.7642 64.6586 -28.5484 57.3191 -29.4602 49.4657C-30.3209 42.0478 -28.6845 34.8976 -23.7875 28.8454C-22.6501 27.4375 -21.5721 25.9803 -20.4635 24.5503C-19.8281 23.7282 -19.1753 22.9892 -17.975 22.971C-17.5788 22.9637 -17.1635 22.5811 -16.804 22.2929C-15.9326 21.6157 -15.1468 20.8219 -14.2305 20.2165C-8.21715 16.2317 -1.4065 13.5959 5.73104 12.4912C9.31796 11.924 12.8714 11.0904 16.4707 10.6965C19.0829 10.4107 21.7163 10.1058 24.4068 10.447C26.3219 10.6901 28.3089 10.3343 30.265 10.2641C37.4828 10.0085 44.6078 10.9872 51.7476 11.7621C53.5314 11.9551 55.253 12.5904 57.0366 12.941C58.7309 13.2748 60.4589 13.4522 62.1522 13.7954C63.3039 14.0275 64.412 14.4626 65.5546 14.7343C66.3446 14.9201 67.1915 14.89 67.9679 15.1125C72.8927 16.5338 77.8478 17.8532 82.4238 20.2829C84.6569 21.4631 87.0803 22.2794 89.3346 23.4189C95.9982 26.8004 101.823 31.2494 105.588 37.8042C109.121 43.9125 110.916 50.8646 110.778 57.9114C110.749 59.8188 110.667 61.7493 110.522 63.661C110.304 66.52 109.423 69.2309 108.155 71.7638C106.495 75.0832 104.006 77.9205 100.926 80.0022C96.6107 82.9194 92.2193 85.8046 87.2491 87.55C84.8676 88.3838 82.3802 88.9338 79.9251 89.5399C79.474 89.6087 79.0129 89.5165 78.6231 89.2796C77.8815 88.8459 77.1874 88.4388 76.2699 88.6118C75.9546 88.639 75.6397 88.5551 75.38 88.3746C70.4868 85.0438 65.0836 82.484 60.5771 78.5693C56.3984 74.9479 51.6362 72.1566 46.7428 68.8281Z" fill="white" fill-opacity="0.1"/>
<path d="M28.1435 230.804C27.9727 232.567 27.7409 234.289 26.5066 235.689C25.7268 236.573 24.9866 236.933 24.1682 236.582C23.2873 236.206 22.6775 235.541 22.6478 234.519C22.622 233.667 22.6698 232.815 22.6488 231.957C22.6114 231.517 22.5509 231.08 22.4674 230.647C21.7268 230.913 21.2054 231.133 20.6614 231.284C20.1173 231.435 19.5188 231.59 18.9469 231.581C17.8255 231.566 17.1346 230.627 17.5759 229.624C17.9934 228.662 18.6596 227.82 19.2087 226.921C19.6082 226.269 20.5038 225.897 20.3118 224.745C19.9286 224.661 19.4858 224.498 19.0372 224.474C15.0316 224.268 11.3196 223.357 7.9382 220.995C5.66358 219.403 3.46397 217.741 1.54828 215.774C-0.221068 213.951 -1.62784 211.861 -2.26462 209.241C-2.95567 206.4 -3.23702 203.475 -3.10016 200.554C-2.95235 197.447 -2.51462 194.331 -1.4322 191.4C-0.834742 189.778 0.176579 188.301 1.06444 186.795C2.3978 184.527 4.3566 182.84 6.32823 181.154C7.92471 179.794 9.39401 178.277 10.8569 176.769C11.1266 176.492 11.206 175.922 11.1883 175.496C11.0997 173.355 11.1377 171.246 11.9642 169.218C12.0587 168.924 12.0636 168.609 11.9782 168.313C11.327 165.684 10.719 163.055 10.7097 160.32C10.707 159.643 10.4529 158.966 10.4325 158.286C10.3828 156.659 10.3779 155.028 10.4131 153.401C10.4339 152.184 11.016 151.538 12.2816 151.174C13.3761 150.859 14.3646 151.297 15.0535 152.124C16.8482 154.287 17.5059 156.919 18.2867 159.51C18.3948 159.919 18.5655 160.309 18.7927 160.666C20.7793 163.557 21.9599 166.771 22.6111 170.189C22.7616 170.977 23.0605 171.629 23.7763 171.969C26.0762 173.061 27.9927 174.827 30.4278 175.683C32.2196 176.317 33.9418 177.168 35.7652 177.669C38.4914 178.417 41.0253 179.549 43.5038 180.862C44.7222 181.507 46.0409 181.973 47.1956 182.713C50.3207 184.683 53.0857 187.119 55.1083 190.209C57.3776 193.672 58.9688 197.424 58.5551 201.739C58.4741 202.528 58.4773 203.324 58.5645 204.112C58.8364 206.419 58.1162 208.582 57.3474 210.637C56.604 212.624 55.4396 214.427 53.934 215.923C52.7501 217.09 51.3668 218.074 49.9913 219.023C48.5887 219.989 46.9713 220.513 45.3019 220.861C44.7914 220.959 44.3264 221.22 43.9769 221.604C45.0876 221.77 46.2205 221.855 47.3045 222.124C48.1199 222.333 48.8979 222.668 49.6103 223.116C50.4133 223.618 50.921 224.408 50.6879 225.41C50.5037 226.212 49.3019 226.908 48.28 226.951C47.9597 226.963 47.6394 226.997 47.319 226.987C46.5068 226.964 46.2112 227.563 45.9989 228.161C45.7867 228.759 46.1518 229.131 46.6448 229.44C47.0853 229.737 47.4969 230.076 47.8743 230.45C48.8985 231.407 49.1792 233.121 48.3699 234.244C48.1943 234.463 47.9765 234.645 47.7295 234.779C47.4824 234.913 47.2111 234.997 46.9313 235.025C44.9805 235.096 43.1128 234.729 41.5859 233.444C41.4354 233.467 41.3104 233.445 41.2401 233.502C39.3237 234.964 37.9145 234.676 36.6552 232.61C35.8941 231.363 35.2798 229.948 33.3681 229.39C34.0655 230.739 34.5444 231.948 35.2662 232.975C35.7898 233.721 35.9818 234.48 36.1293 235.324C36.293 236.206 36.5416 237.071 36.8119 238.18C36.6694 238.41 36.5404 238.649 36.4255 238.894C35.5888 240.786 34.0547 240.909 32.2312 239.563C31.1226 238.744 30.5441 237.487 30.0635 236.258C29.5666 234.978 29.252 233.618 28.8639 232.292C28.7194 231.8 28.5956 231.299 28.4623 230.803L28.1435 230.804Z" fill="white" fill-opacity="0.1"/>
<path d="M365.309 68.0491C365.505 67.0053 365.623 66.3935 365.731 65.7816C368.469 66.0597 370.523 64.6333 371.172 62.0004C372.148 58.0296 373.011 54.0278 374.12 50.0862C374.984 47.0309 376.082 44.0377 377.211 41.0703C377.691 39.8049 378.763 39.0003 380.198 38.9021C382.582 38.7383 383.845 39.894 384.041 42.3423C384.098 43.0525 384.218 43.7577 384.35 44.7354C385.505 43.1597 386.612 41.8264 387.515 40.3806C388.995 37.998 391.066 37.0756 394.108 37.4949C394.338 38.1016 394.64 38.8504 394.904 39.6123C395.007 39.9136 394.917 40.3493 395.103 40.5439C396.215 41.7034 395.939 42.7344 394.922 43.7534C394.785 43.8886 394.676 44.0505 394.604 44.2292C393.863 46.1417 393.134 48.0582 392.395 49.9961C393.317 49.7421 394.262 49.3805 395.238 49.235C396.831 48.9978 397.757 49.755 397.824 51.3727C397.961 54.706 396.491 57.2337 393.699 59.0087C391.627 60.3329 389.568 61.6827 387.488 62.9931C386.452 63.6454 385.448 64.4882 384.308 64.804C382.183 65.3925 380.525 66.9085 378.557 67.5854C376.657 68.2183 374.818 69.0212 373.062 69.9843C372.385 70.3671 371.712 70.7499 371.073 71.1998C368.924 72.6876 368.303 75.75 369.684 77.9381C370.36 79.0133 371.118 79.2038 372.237 78.5605C372.35 78.4973 372.436 78.3359 372.54 78.3196C377.203 77.6615 381.921 76.3456 386.415 78.8991C387.776 79.6718 389.017 80.64 390.097 81.7728C393.214 85.0739 395.732 88.7745 396.854 93.2656C397.296 95.0353 397.642 96.8331 398.1 98.5991C398.269 99.25 398.637 99.8488 398.907 100.476C398.973 100.633 399.097 100.87 399.041 100.963C398.257 102.201 399.109 102.897 399.911 103.566C404.172 107.116 406.438 111.885 408.348 116.935C409.819 120.824 410.37 124.876 410.973 128.925C411.06 129.692 411.381 130.414 411.891 130.993C413.862 133.258 415.649 135.733 416.686 138.532C417.576 140.956 418.652 143.377 418.572 146.073C418.516 147.883 418.493 149.754 419.706 151.293C420.139 151.836 420.663 152.3 421.254 152.664C423.02 153.741 424.85 154.71 426.616 155.786C427.071 156.05 427.439 156.442 427.674 156.913C427.909 157.385 428 157.915 427.936 158.438C427.858 159.375 427.276 159.83 426.352 159.702C422.184 159.12 418.806 157.033 415.771 154.232C413.85 152.458 412.707 150.174 411.807 147.843C411.33 146.612 410.631 146.134 409.599 145.711C407.682 144.922 405.673 144.286 403.897 143.245C399.923 140.931 396.821 137.736 395.125 133.371C394.621 132.078 393.869 131.259 392.52 130.735C390.108 129.799 387.787 128.625 385.446 127.516C385.075 127.338 384.776 126.985 384.478 126.681C383.843 126.03 383.277 125.293 382.601 124.696C379.017 121.483 376.05 117.851 374.674 113.131C374.424 112.271 373.951 111.853 373.131 111.386C368.855 108.96 365.196 105.791 362.506 101.614C362.376 101.396 362.28 101.159 362.224 100.911C361.091 96.4625 360.928 92.0098 362.673 87.7006C363.321 86.1004 364.494 84.7131 365.438 83.2306C365.812 82.6478 366.218 82.0654 366.697 81.3585C364.523 79.5399 362.46 77.811 360.395 76.086C359.501 75.3391 358.542 74.6559 357.717 73.8393C356.324 72.4605 354.592 71.7414 352.788 71.1957C349.427 70.1822 346.041 69.2506 342.662 68.2996C339.224 67.3301 335.751 66.466 332.348 65.3872C329.812 64.5848 327.835 62.8296 326.044 60.9398C324.461 59.2703 325.191 57.0088 327.418 56.3942C328.348 56.1403 329.319 56.0417 330.518 55.8286C330.099 55.2742 329.852 54.7222 329.427 54.4421C327.903 53.4103 327.127 51.8183 326.27 50.3135C325.614 49.1641 325.252 47.805 326.158 46.6316C327.09 45.4273 328.334 45.0267 329.967 45.3114C332.077 45.6828 333.922 46.5916 335.73 47.6076C337.538 48.6236 339.237 49.8322 341.039 50.8619C341.596 51.181 342.333 51.191 343.186 51.3906C343.147 50.6787 343.129 50.2513 343.096 49.8217C343.005 48.6858 342.959 47.4427 344.093 46.8643C345.322 46.2401 346.775 45.952 347.952 46.9928C349.5 48.362 350.947 49.8533 352.398 51.327C353.117 52.054 353.683 52.9474 354.455 53.6046C355.233 54.2639 355.886 55.058 356.382 55.9489C357.148 57.2781 358.274 58.3947 359.261 59.5878C360.078 60.5787 360.98 61.4962 361.722 62.5331C362.211 63.2139 362.45 64.0656 362.867 64.8081C363.454 65.8782 363.967 67.0061 365.309 68.0491Z" fill="white" fill-opacity="0.1"/>
<path d="M-50.3531 201.327C-47.9132 203.316 -45.3418 205.22 -42.9993 207.37C-37.8041 212.134 -32.7271 217.021 -27.5979 221.854C-27.1974 222.227 -26.7743 222.575 -26.3309 222.896C-19.702 227.766 -13.0528 232.607 -6.44101 237.501C-2.52209 240.403 1.26118 243.494 5.24525 246.304C12.586 251.482 19.2293 257.531 26.3163 263.021C28.1553 264.446 29.9665 265.921 31.9006 267.202C34.0254 268.61 34.4382 270.718 33.954 272.804C33.1471 276.287 32.6177 279.844 31.0491 283.163C29.0557 287.385 26.5515 291.103 22.9093 294.081C18.9029 297.349 14.7697 300.416 9.99455 302.449C4.62895 304.727 -0.887363 306.203 -6.85093 305.769C-11.3339 305.431 -15.7803 304.713 -20.1419 303.622C-22.3828 303.065 -24.6135 302.464 -26.8339 301.819C-27.2377 301.702 -27.5155 301.192 -27.913 300.979C-29.6207 300.065 -31.3057 299.085 -33.0835 298.334C-37.8885 296.303 -41.8108 292.959 -45.7997 289.758C-47.8569 288.107 -49.6533 286.071 -51.3284 284.015C-53.5549 281.287 -55.5169 278.343 -57.6488 275.534C-60.6169 271.604 -62.513 267.113 -64.2527 262.588C-66.8931 255.714 -67.8402 248.563 -67.4504 241.17C-67.1839 236.054 -66.484 231.03 -64.9983 226.198C-62.8977 219.381 -60.0281 212.85 -55.9266 206.94C-55.2161 205.913 -54.4805 204.906 -53.7469 203.884C-52.588 202.245 -52.588 202.245 -50.3531 201.327Z" fill="white" fill-opacity="0.1"/>
<path d="M432.606 64.6434C432.441 64.0983 432.381 63.7611 432.241 63.4622C431.798 62.5223 431.778 61.5199 431.695 60.5133C431.615 59.7595 431.456 59.0162 431.221 58.2957C430.988 57.5287 430.649 56.7948 430.373 56.0352C430.228 55.6235 430.177 55.2141 430.635 54.8854C432.031 54.9726 432.578 56.1752 433.362 57.0539C433.868 57.6229 434.321 58.2422 434.788 58.8454C435.085 59.2292 435.35 59.6385 435.657 60.0144C435.893 60.305 436.171 60.563 436.536 60.9463C436.713 60.2716 436.797 59.7012 437.011 59.1859C437.533 57.9332 438.118 56.7077 438.674 55.4697C438.871 55.0307 439.078 54.5949 439.251 54.1454C439.642 53.146 439.999 52.1299 440.396 51.1337C440.528 50.8011 440.794 50.4525 441.178 50.5832C441.488 50.7125 441.737 50.9561 441.873 51.2636C442.041 51.6719 442.063 52.1436 442.12 52.5933C442.248 53.5497 442.299 54.5267 442.5 55.4695C442.736 56.5813 443.098 57.6657 443.464 58.972C443.879 58.5309 444.174 58.2542 444.427 57.9423C445.765 56.2915 447.377 54.9871 449.314 54.1034C450.396 53.6103 451.389 53.0428 452.258 52.1873C452.987 51.4694 453.919 50.958 454.764 50.3572C454.853 50.2955 454.946 50.2129 455.039 50.2113C455.337 50.206 455.721 50.1285 455.912 50.2805C456.102 50.4325 456.159 50.8388 456.108 51.1016C456.028 51.5839 455.868 52.0492 455.632 52.4779C454.602 54.2404 454.037 56.1382 453.664 58.1404C453.394 59.6448 452.91 61.1152 452.366 62.5459C452.003 63.5043 451.382 64.3657 450.857 65.304C450.983 65.3164 451.116 65.3386 451.249 65.3416C452.64 65.3718 454.031 65.3828 455.422 65.4329C457.036 65.4897 458.644 65.6545 460.268 65.4901C460.736 65.4426 461.265 65.6613 461.718 65.8684C462.238 66.1026 462.271 66.7264 461.754 67.0399C461.139 67.4152 460.471 67.7808 459.779 67.9351C458.783 68.1575 457.897 68.5546 457.229 69.28C456.257 70.3365 454.987 70.9192 453.802 71.6356C452.922 72.1686 451.99 72.609 450.987 73.1488C451.123 73.2451 451.267 73.3301 451.417 73.4031C452.83 73.8983 454.235 74.4219 455.665 74.8657C456.568 75.1458 457.544 75.2129 458.421 75.5502C459.005 75.7746 459.509 76.2656 459.975 76.7145C460.203 76.9355 460.034 77.2678 459.719 77.3736C459.403 77.4794 459.026 77.6182 458.703 77.5784C456.626 77.3352 454.625 77.9634 452.581 78.0696C451.58 78.1234 450.587 78.2691 449.595 78.0024C449.482 77.9713 449.343 78.0368 449.013 78.0967C449.355 78.48 449.582 78.7628 449.84 79.0165C450.099 79.2702 450.365 79.4746 450.632 79.7009C451.474 80.4143 451.917 81.2742 451.826 82.4246C451.707 83.9802 451.724 85.551 451.585 87.1049C451.459 88.4993 451.843 89.7738 452.191 91.0865C452.556 92.4612 452.759 93.8787 453.042 95.2758C453.146 95.7954 453.237 96.3332 453.413 96.833C453.537 97.1853 453.416 97.4351 453.265 97.7033C452.834 98.4697 452.392 99.172 451.549 99.6353C449.871 100.561 448.269 101.613 446.645 102.629C446.485 102.729 446.28 102.929 446.28 103.083C446.281 104.032 445.738 104.813 445.352 105.569C444.673 106.899 443.835 108.212 442.168 108.623C441.398 108.813 440.653 109.157 439.941 109.52C438.619 110.19 437.42 109.872 436.281 109.148C435.654 108.75 434.985 108.438 434.404 107.929C432.902 106.625 431.265 106.922 429.634 107.773C428.896 108.159 428.147 108.53 427.379 108.847C426.965 109.032 426.516 109.13 426.061 109.135C425.592 109.119 425.008 109.047 424.688 108.76C424.007 108.165 423.418 107.473 422.939 106.707C422.216 105.5 421.287 104.484 420.29 103.531C419.68 102.941 418.884 102.58 418.037 102.51C416.41 102.373 414.782 102.235 413.16 102.052C412.545 101.99 411.942 101.849 411.364 101.631C411.041 101.503 410.645 101.171 410.574 100.863C410.351 99.8871 409.88 98.9938 409.855 97.9377C409.813 96.1719 409.578 94.3995 409.358 92.6388C409.228 91.6396 408.767 90.7552 407.896 90.1966C406.93 89.576 406.387 88.6147 405.745 87.7285C405.683 87.6456 405.659 87.5281 405.586 87.4604C404.015 85.9771 404.397 84.2855 405.031 82.5492C405.579 81.0504 406.084 79.5368 406.619 78.0337C406.923 77.1799 406.868 76.3211 406.711 75.4548C406.656 75.1471 406.561 74.8401 406.556 74.5305C406.54 73.828 406.569 73.1202 406.211 72.4819C405.789 71.7305 406.11 70.9597 406.325 70.305C406.874 68.629 407.595 67.0067 408.282 65.3786C408.469 64.9355 408.809 64.7041 409.35 64.5356C410.879 64.0605 412.395 63.9653 413.983 64.0335C415.193 64.0803 416.404 63.9432 417.573 63.6269C418.559 63.3602 419.473 62.7761 420.375 62.2543C421.67 61.5068 422.889 60.6293 424.204 59.9249C424.922 59.5401 425.717 59.8593 426.351 60.2946C427.786 61.2827 429.171 62.342 430.592 63.3509C431.176 63.7678 431.8 64.1309 432.606 64.6434Z" fill="white" fill-opacity="0.1"/>
<path d="M79.316 305.603C77.2411 305.152 75.2468 304.663 73.2296 304.311C72.4304 304.171 71.5119 304.133 70.7606 304.387C68.3687 305.199 65.9336 304.913 63.7239 304.201C62.2384 303.722 60.8551 302.327 59.8796 301.006C58.3399 298.92 57.6877 296.512 58.6259 293.838C58.8616 293.161 58.5518 292.139 58.1838 291.437C56.4573 288.136 55.5482 284.601 54.9176 280.965C54.6132 279.218 54.1921 277.49 53.9489 275.736C53.7435 274.45 53.6793 273.145 53.7575 271.845C54.0088 268.805 54.2597 265.752 54.8104 262.759C55.2113 260.667 55.8708 258.633 56.7737 256.704C58.1944 253.63 59.6653 250.535 61.5166 247.715C64.286 243.503 67.797 239.889 71.5037 236.451C74.5949 233.586 78.3745 232.095 82.1144 230.453C85.8543 228.81 89.742 227.875 93.7139 227.16C96.5118 226.67 99.3746 226.686 102.167 227.205C104.534 227.63 106.923 227.955 109.311 228.219C109.88 228.281 110.55 228.021 111.08 227.735C112.69 226.86 114.16 225.656 115.851 225.023C120.943 223.108 125.171 223.893 127.886 228.01C129.201 230.003 129.685 232.219 128.723 234.562C128.617 234.821 128.449 235.124 128.498 235.367C128.792 236.859 128.082 238.111 127.549 239.379C126.914 240.89 126.89 242.28 127.465 243.892C128.657 247.211 129.879 250.566 130.556 254.003C131.475 258.694 131.182 263.458 130.098 268.137C129.505 270.69 128.995 273.271 128.221 275.766C126.945 279.874 124.607 283.399 121.962 286.769C118.933 290.642 115.583 294.143 111.725 297.202C105.341 302.231 97.9238 304.635 90.0929 305.738C86.5732 306.245 82.8921 305.683 79.316 305.603Z" fill="white" fill-opacity="0.1"/>
</svg>
