<svg width="14" height="14" viewBox="0 0 14 14" fill="none" xmlns="http://www.w3.org/2000/svg">
<g clip-path="url(#clip0_2600_5590)">
<path d="M3.23229 6.0365C4.98019 6.0365 6.41735 4.71406 6.41735 3.05157C6.41735 1.42687 4.98019 0.0666504 3.23229 0.0666504C1.46497 0.0666504 0.0666504 1.42687 0.0666504 3.05157C0.0666504 4.71406 1.46497 6.0365 3.23229 6.0365ZM1.69195 12.2622C1.2304 12.8471 1.64702 13.7066 2.39211 13.7066C2.66514 13.7066 2.92313 13.5816 3.09227 13.3672L12.2692 1.73774C12.7308 1.15283 12.3141 0.293354 11.569 0.293354C11.296 0.293354 11.038 0.418412 10.8689 0.632748L1.69195 12.2622ZM3.23229 4.29844C2.51371 4.29844 1.9505 3.75057 1.9505 3.05157C1.9505 2.37146 2.51371 1.80471 3.23229 1.80471C3.95087 1.80471 4.5335 2.37146 4.5335 3.05157C4.5335 3.75057 3.95087 4.29844 3.23229 4.29844ZM7.60204 10.9673C7.60204 12.6109 9.00036 13.9333 10.7677 13.9333C12.5156 13.9333 13.9333 12.6109 13.9333 10.9673C13.9333 9.34258 12.5156 7.98236 10.7677 7.98236C9.00036 7.98236 7.60204 9.34258 7.60204 10.9673ZM9.48589 10.9484C9.48589 10.2683 10.0491 9.70153 10.7677 9.70153C11.4863 9.70153 12.0689 10.2683 12.0689 10.9484C12.0689 11.6474 11.4863 12.1953 10.7677 12.1953C10.0491 12.1953 9.48589 11.6474 9.48589 10.9484Z" fill="#F78C07"/>
</g>
<defs>
<clipPath id="clip0_2600_5590">
<rect width="14" height="14" fill="white"/>
</clipPath>
</defs>
</svg>
