<svg width="204" height="160" viewBox="0 0 204 160" fill="none" xmlns="http://www.w3.org/2000/svg">
<path d="M85.6935 0.766699C85.5783 0.765339 85.4605 0.778116 85.3401 0.808195C83.4477 1.79042 81.7074 3.10866 79.8894 4.24183C79.0164 4.67541 78.8023 5.89258 79.2851 6.68974C81.7249 10.592 84.056 14.5725 86.0567 18.7197C79.5901 15.0026 73.1759 11.1813 66.8272 7.26289C65.0349 5.97527 62.7043 6.17036 60.6468 6.54356C58.5543 6.89489 56.0026 6.8634 54.6621 8.81953C48.8521 18.8649 43.4005 29.1151 37.6094 39.1705C29.2998 41.4391 20.9508 43.6301 12.6294 45.8768C10.4482 46.6223 8.28881 47.4549 6.25755 48.5535C4.7842 49.3844 3.31829 50.3487 2.3348 51.7575C1.60206 52.7686 1.29882 54.1188 1.70517 55.3215C2.62666 57.9471 3.27635 60.7047 3.23139 63.5027C3.30525 64.7098 4.25075 65.5612 5.19322 66.1789C6.54379 67.3624 7.9175 68.5328 9.2353 69.7469C17.1805 85.778 24.8623 101.958 31.6601 118.517C33.1985 121.398 35.1852 124.059 37.6404 126.222C47.7127 135.938 58.4115 145.031 69.7984 153.174C73.5006 155.979 77.769 158.168 82.3913 158.897C86.1721 159.504 90.0827 159.139 93.7372 158.026C117.763 147.763 141.18 136.126 164.258 123.901C167.652 121.71 169.745 118.053 171.162 114.361C171.94 112.382 172.419 110.307 173.036 108.275C176.882 95.0464 181.614 82.0954 186.66 69.2827C186.741 69.1222 186.743 68.8772 186.964 68.8387C191.179 67.2837 195.4 65.7419 199.616 64.1878C200.272 63.9354 200.941 63.4401 200.999 62.6815C201.141 60.5696 201.49 58.4406 202.389 56.5094C202.964 54.0703 201.234 51.5458 198.994 50.6694C176.65 40.7382 155.174 29.0158 133.419 17.8893C130.833 16.8069 127.936 16.4962 125.184 17.0488C122.833 17.5647 120.493 18.1347 118.146 18.6676C118.03 18.6821 117.929 18.6742 117.831 18.627C107.523 13.2109 97.2891 7.63304 87.3741 1.5183C86.8631 1.19344 86.3136 0.774476 85.6914 0.767126L85.6935 0.766699ZM58.2435 8.44688H58.2457C58.2377 8.44709 58.2297 8.44761 58.2218 8.4479C58.229 8.44764 58.2363 8.44707 58.2435 8.44688ZM62.8134 16.7225C69.5409 19.8923 76.1102 23.396 82.5165 27.1748C72.4085 29.9255 62.2703 32.5983 52.1487 35.3135C55.4012 28.9498 58.9684 22.7467 62.8134 16.7225ZM96.0511 17.5555C98.5827 19.0094 101.101 20.5079 103.574 22.0545C101.983 22.3844 100.41 22.7988 98.8208 23.1339C97.5952 21.4525 96.5422 19.5939 96.0511 17.5555Z" fill="#7CD8F1"/>
<path d="M85.6936 0.766511C85.5784 0.76515 85.4606 0.777927 85.3402 0.808007C83.4478 1.79023 81.7075 3.10847 79.8894 4.24164C79.0164 4.67522 78.8023 5.89239 79.2851 6.68955C81.725 10.5918 84.056 14.5723 86.0567 18.7195C79.5901 15.0024 73.1759 11.1811 66.8272 7.2627C65.0349 5.97508 62.7043 6.17017 60.6468 6.54337C58.5543 6.8947 56.0026 6.86321 54.6621 8.81934C48.8522 18.8647 43.4005 29.1149 37.6094 39.1703C29.2998 41.4389 20.9508 43.63 12.6294 45.8766C10.4482 46.6221 8.28882 47.4547 6.25756 48.5533C4.78421 49.3842 3.3183 50.3485 2.33476 51.7573C1.60202 52.7684 1.29883 54.1186 1.70518 55.3213C2.62667 57.9469 3.2764 60.7045 3.2314 63.5025C3.30524 64.7096 4.25076 65.561 5.19323 66.1788C6.5438 67.3622 7.91747 68.5326 9.23526 69.7467C17.1805 85.7778 24.8622 101.958 31.6601 118.517C33.1985 121.398 35.1852 124.059 37.6404 126.222C47.7126 135.938 58.4114 145.031 69.7984 153.174C73.5006 155.979 77.769 158.168 82.3913 158.897C86.1721 159.504 90.0827 159.139 93.7372 158.025C117.763 147.763 141.18 136.126 164.258 123.9C167.652 121.709 169.745 118.053 171.162 114.361C171.94 112.382 172.419 110.306 173.036 108.275C176.882 95.0462 181.614 82.0952 186.66 69.2825C186.741 69.122 186.743 68.877 186.964 68.8385C191.179 67.2835 195.4 65.7417 199.616 64.1877C200.272 63.9352 200.941 63.4399 200.999 62.6813C201.141 60.5694 201.49 58.4404 202.389 56.5092C202.964 54.0701 201.234 51.5456 198.994 50.6693C176.65 40.7367 155.174 29.0143 133.419 17.8878C130.833 16.8054 127.936 16.4947 125.184 17.0473C122.833 17.5632 120.493 18.1332 118.146 18.6661C118.029 18.6806 117.929 18.6727 117.831 18.6255C107.523 13.2094 97.289 7.63154 87.3741 1.5168C86.8632 1.19194 86.3137 0.772975 85.6914 0.765625L85.6936 0.766511ZM85.5153 1.2354C86.1584 1.23835 86.7475 1.77258 87.2758 2.09998C102.214 11.4672 117.977 19.4064 133.626 27.483C135.412 28.4179 137.356 29.2064 138.707 30.767C139.812 31.7974 140.609 33.1493 141.535 34.3512C149.61 45.1924 158.071 55.7422 166.804 66.058C167.659 67.3198 168.109 68.8296 168.252 70.3386C168.412 71.919 168.261 73.655 167.32 74.9886C166.715 75.8439 165.622 76.0132 164.709 76.358C163.895 76.4661 163.015 76.6796 162.232 76.3213C160.295 75.606 158.907 73.9783 157.7 72.3722C149.518 60.3672 141.498 48.2331 134.193 35.6672C134.027 35.3928 133.713 34.9943 134.057 34.7265C135.301 33.5154 136.978 32.8171 138.13 31.4993C136.39 32.5043 134.733 33.7841 132.724 34.1892C132.156 34.3235 131.653 33.9937 131.186 33.7333C114.325 24.6492 97.5725 15.3449 81.2268 5.35422C80.7374 4.9819 80.1484 5.4321 79.8841 5.85737C80.3839 5.54323 81.0232 5.68591 81.4667 6.03374C97.5201 15.8612 113.868 25.2062 130.491 34.0366C131.551 34.7077 132.967 34.86 133.716 35.97C141.098 47.9195 148.633 59.774 156.309 71.5358C157.662 73.6311 159.365 75.8895 161.94 76.4465C160.589 76.4929 158.823 76.4207 157.886 75.2057C149.891 63.2068 141.426 51.5321 133.005 39.832C131.272 38.5094 129.467 37.2708 127.676 36.0234C114.174 27.8349 100.742 19.5172 86.8807 11.9456C86.4281 11.7391 86.0318 11.3908 85.5328 11.2998C85.2086 11.4915 85.5284 11.936 85.6472 12.1762C87.8105 15.2821 89.8401 18.4996 91.555 21.8746C90.19 21.1479 88.8604 20.3468 87.5164 19.5794C87.2477 19.4491 87.166 19.1279 87.0253 18.889C84.7856 14.8179 82.42 10.8146 79.8914 6.91591C79.777 6.73521 79.6708 6.54532 79.618 6.33751C79.3733 5.74555 79.6415 4.86351 80.2882 4.55463C81.9795 3.64503 83.6482 2.64097 85.0604 1.32842C85.2145 1.26345 85.3658 1.23579 85.5143 1.23647L85.5153 1.2354ZM62.7335 6.90124C63.6658 6.89745 64.5779 7.04811 65.431 7.52374C82.9329 18.0145 100.801 27.8783 118.602 37.8489C119.538 38.3267 120.054 39.3255 120.183 40.3353C120.434 42.3492 119.69 44.2712 119.261 46.2016C115.406 62.2641 111.494 78.3127 107.642 94.3766C106.968 96.9715 105.037 99.4544 102.316 100.024C101.251 100.163 100.161 100.177 99.1034 100.069C97.7699 99.9177 96.3503 99.5856 95.3685 98.6087C94.7782 98.0784 94.5086 97.1894 94.7511 96.4281C98.7111 79.9604 102.678 63.4936 106.624 47.0237C106.916 45.0605 107.077 42.6621 105.465 41.2038C90.574 31.0394 75.1742 21.4749 58.7258 14.0196C57.7528 13.5602 56.4869 13.488 55.6035 14.1819C55.0468 14.5813 54.727 15.2026 54.419 15.7954C50.397 23.1282 46.3759 30.461 42.3556 37.7942C42.2814 38.0125 42.0223 38.0095 41.8422 38.0729C40.8604 38.3188 39.8878 38.6006 38.9073 38.8487C44.3786 29.2316 49.8928 19.6329 55.385 10.0255C55.5248 9.78965 55.6555 9.54464 55.8285 9.33113C56.4393 8.34847 57.4045 7.38991 58.6367 7.37591C59.9639 7.24316 61.3697 6.90772 62.7322 6.90217L62.7335 6.90124ZM58.3248 8.44594C57.9278 8.44164 57.5323 8.54828 57.1982 8.78249C57.9834 8.76236 58.7826 8.92202 59.441 9.36609C75.951 18.4896 92.2907 27.9203 108.461 37.6319C109.746 38.3962 111.277 39.3019 111.6 40.8809C111.748 41.8706 111.504 42.869 111.245 43.8206C106.55 60.5565 102.144 77.3733 97.4592 94.1132C97.0489 95.5027 96.8107 97.031 97.2905 98.4336C97.5771 99.2395 98.2955 99.825 99.1112 100.035C99.3498 99.9261 98.8115 99.8613 98.7722 99.751C97.2508 98.5474 97.5129 96.3428 97.9826 94.6815C102.944 76.9914 107.854 59.286 112.845 41.6063C114.961 41.5884 117.231 41.4317 119.266 40.747C119.202 40.7269 119.139 40.7103 119.078 40.6954C116.996 40.7352 114.844 41.0485 112.819 40.4075C112.142 39.1917 110.812 38.6028 109.675 37.9071C93.1672 27.9063 76.4807 18.207 59.5931 8.86472C59.2264 8.59906 58.7744 8.4517 58.3244 8.44683L58.3248 8.44594ZM86.5045 12.1199C86.7082 12.1177 86.8866 12.2478 87.064 12.3351C89.6873 13.8078 92.2871 15.3229 94.8891 16.8328C95.0595 16.9185 95.1154 17.1154 95.1897 17.2782C96.053 19.3446 97.065 21.365 98.1447 23.312C97.1751 23.5277 96.2121 23.7828 95.2377 23.97C94.2655 23.4551 93.3012 22.9099 92.3548 22.346C90.6486 19.0147 88.8842 15.6861 86.6257 12.6882C86.5126 12.5233 86.347 12.3531 86.4156 12.1296C86.4458 12.1233 86.4754 12.1203 86.5045 12.12L86.5045 12.1199ZM57.3701 14.476C57.8009 14.4756 58.2254 14.6037 58.6141 14.7878C59.8213 15.3417 61.0413 15.8711 62.2354 16.4513C58.1326 22.6286 54.4702 29.0876 50.9761 35.625C48.434 36.329 45.8766 36.9857 43.3301 37.6766C47.2346 30.426 51.205 23.2123 55.1129 15.9635C55.4948 15.2144 56.2346 14.6312 57.0713 14.4978C57.171 14.4831 57.2707 14.4761 57.3701 14.476ZM62.8152 16.7221C69.5427 19.8919 76.112 23.3955 82.5183 27.1743C72.4103 29.925 62.2721 32.5978 52.1505 35.313C55.403 28.9493 58.9702 22.7462 62.8152 16.7221ZM127.875 17.4307C130.105 17.4292 132.331 17.8118 134.293 18.8991C155.393 29.736 176.258 41.0721 197.872 50.8755C199.094 51.4141 200.324 52.1137 201.136 53.1987C201.909 54.149 201.871 55.5014 201.488 56.6101C200.802 58.4546 200.574 60.4282 200.436 62.3792C200.188 63.2673 199.259 63.6528 198.516 64.0488C188.463 67.7287 178.409 71.4148 168.337 75.0401C169.957 72.5764 169.191 69.3545 168.03 66.8664C177.969 63.4275 187.941 60.0862 197.893 56.6862C199.354 56.2321 200.881 55.2113 200.981 53.5496C200.75 54.2195 200.113 54.5896 199.529 54.9112C198.088 55.7236 196.508 56.2233 194.954 56.7627C185.89 59.9011 176.831 63.0542 167.775 66.2166C167.718 66.2289 167.66 66.2446 167.607 66.2297C166.434 64.7671 165.182 63.367 163.975 61.9337C163.949 61.8887 163.968 61.8607 164.032 61.8502C171.047 59.5445 178.066 57.2571 185.089 54.9781C186.217 54.5638 187.388 54.1512 188.305 53.3431C188.762 52.9646 188.966 52.2239 188.592 51.7208C187.978 50.8086 186.957 50.3242 186.048 49.7642C169.285 40.3852 151.847 32.3064 134.595 23.8886C131.498 22.2562 127.91 21.6608 124.445 22.079C122.555 21.0946 120.664 20.1089 118.775 19.124C118.669 19.068 118.814 19.0426 118.863 19.0243C120.712 18.5999 122.545 18.1064 124.399 17.7035C125.533 17.5379 126.703 17.4316 127.872 17.4308L127.875 17.4307ZM96.055 17.5551C98.5866 19.009 101.105 20.5075 103.578 22.0541C101.987 22.384 100.414 22.7983 98.8248 23.1334C97.5991 21.4521 96.5461 19.5935 96.055 17.5551ZM104.373 22.5515C106.172 23.536 107.943 24.6792 109.7 25.7682C107.056 26.3833 104.434 27.1805 101.774 27.6771C99.9451 26.6423 98.0479 25.6334 96.2827 24.5444C98.9322 23.8448 101.684 23.2275 104.373 22.5515ZM126.19 22.5965C128.55 22.6139 130.936 23.1506 133.151 23.984C133.545 24.1021 133.922 24.2749 134.292 24.4569C150.733 32.348 167.413 39.8028 183.238 48.9049C184.537 49.7598 186.067 50.2735 187.197 51.3717C187.637 51.7742 187.82 52.5088 187.382 52.9848C186.669 53.7959 185.598 54.1319 184.621 54.509C177.571 56.7452 170.559 59.1275 163.507 61.3356C155.751 52.2672 148.348 42.8812 141.408 33.1691C139.789 30.9956 137.914 28.8526 135.384 27.7387C134.995 27.4889 134.527 27.3537 134.167 27.0676C131.239 25.6456 128.368 24.078 125.458 22.608C125.701 22.5984 125.945 22.5946 126.189 22.5964L126.19 22.5965ZM110.3 26.1603C110.382 26.1617 110.464 26.1891 110.526 26.2433C116.132 29.7202 121.783 33.1342 127.357 36.6584C126.719 45.3392 126.038 54.0939 123.722 62.5205C123.363 64.2644 122.103 65.7699 120.439 66.4082C118.585 67.1642 116.763 68.0043 114.899 68.7336C116.795 60.7975 118.715 52.867 120.618 44.9327C121.082 43.4206 121.455 41.8044 121.125 40.225C120.883 38.9951 120.054 37.9149 118.957 37.3212C113.544 34.2822 108.121 31.2586 102.712 28.2152C102.666 28.1754 102.577 28.1552 102.576 28.0861C105.111 27.4815 107.626 26.7964 110.158 26.1856C110.203 26.1677 110.253 26.1591 110.302 26.1599L110.3 26.1603ZM83.4023 27.7192C85.1483 28.7062 86.9637 29.772 88.5826 30.8837C65.6199 36.9783 42.7393 43.3937 19.6648 49.0639C18.2963 49.4432 16.8816 50.0505 16.0213 51.2348C15.5022 51.9099 15.3549 52.8467 15.6634 53.6456C16.1685 55.0237 17.3447 55.9994 18.4663 56.8766C32.4626 67.9283 45.9779 79.5728 59.373 91.3433C60.9469 93.0523 63.1079 94.2524 65.4307 94.5084C67.9007 94.8273 70.3829 94.2196 72.6607 93.2921C80.6684 90.3747 88.6901 87.4919 96.7314 84.6708C96.1438 87.2014 95.5627 89.7381 94.9142 92.253C85.4376 95.7448 75.9731 99.2734 66.5336 102.865C63.856 103.946 60.8307 103.885 58.0715 103.148C56.7537 102.763 55.4123 102.235 54.437 101.23C38.4452 86.2625 21.9334 71.842 4.83617 58.1477C3.54285 56.9839 3.17582 55.1507 3.21951 53.4794C3.0762 54.4047 2.98446 55.5431 3.04869 56.5582C3.12297 57.2446 3.36984 57.9569 3.96102 58.3682C21.3703 72.2537 37.9755 87.1397 53.9813 102.61C55.4451 104.669 58.1807 105.137 60.5371 105.046C62.2267 104.981 63.8937 104.632 65.512 104.157C75.2343 100.362 84.9723 96.5932 94.7618 92.9797C94.497 94.4397 93.9688 95.8612 93.842 97.3396C94.078 99.3167 96.1071 100.414 97.7246 101.014C87.5209 104.837 77.3521 108.752 67.2051 112.721C65.5535 113.215 63.759 113.642 62.0755 113.498C59.6221 113.361 57.3859 112.109 55.4511 110.676C39.0726 95.4933 22.4914 80.5245 5.60124 65.9141C4.86107 65.3064 3.89452 64.725 3.77087 63.681C3.86656 61.3005 3.52573 58.9152 2.91665 56.6147C2.71566 55.7825 2.36484 54.9635 2.40591 54.0924C2.51646 52.5383 3.59744 51.2595 4.76536 50.3259C8.03364 47.7804 12.1325 46.7286 16.0689 45.7188C38.5099 39.7161 60.9552 33.7203 83.4049 27.7224L83.4023 27.7192ZM89.3363 31.3301C89.4321 31.3319 89.5164 31.4066 89.5988 31.4543C94.6318 34.6258 99.5902 37.9168 104.452 41.3465C106.102 42.5873 106.22 44.8882 105.782 46.7433C103.575 56.0738 101.338 65.3969 99.1218 74.7252C99.0497 74.8464 99.1095 75.0655 98.975 75.1478C85.7629 80.2352 72.3809 84.8733 58.9408 89.3176C58.7796 89.3483 58.5402 89.5093 58.3977 89.3548C45.779 78.185 33.0249 67.1465 19.6896 56.8342C18.2709 55.7968 16.7836 54.2392 17.0654 52.3304C17.4617 50.5921 19.2899 49.8099 20.8646 49.4796C43.9164 44.4101 66.5243 37.5935 89.2711 31.3432C89.2946 31.3346 89.3173 31.3311 89.3394 31.3315L89.3363 31.3301ZM127.742 36.8796C129.391 37.9493 131.031 39.0426 132.664 40.1373C136.291 45.2921 140.008 50.3914 143.604 55.5637C145.988 58.8722 148.315 62.2367 150.64 65.5938C149.511 65.9832 148.374 66.3581 147.234 66.7103C142.919 68.1839 138.577 69.5817 134.257 71.0439C131.554 69.8718 128.945 68.4621 126.561 66.7221C125.313 65.9591 123.871 64.7039 124.267 63.065C126.53 54.5251 127.349 45.6767 127.742 36.8796L127.742 36.8796ZM150.955 66.167C152.112 67.6029 153.239 69.3591 154.254 70.9504C139.69 76.0741 125.145 81.257 110.627 86.5059C111.198 84.1205 111.779 81.7374 112.344 79.3503C112.359 79.2698 112.393 79.1893 112.483 79.1753C125.279 74.7576 138.107 70.4297 150.955 66.167ZM123.285 66.1786C124.415 66.192 125.516 66.6359 126.431 67.2897C128.696 68.7986 131.096 70.1406 133.554 71.2685C126.563 73.6079 119.579 75.9722 112.592 78.3243C113.292 75.4253 113.965 72.5167 114.695 69.6278C116.766 68.7186 118.838 67.8047 120.899 66.8684C121.47 66.6159 122.018 66.2746 122.655 66.2169C122.866 66.1884 123.076 66.1761 123.285 66.1786ZM185.461 69.3954C180.808 81.2823 176.32 93.258 172.675 105.502C171.901 107.964 171.291 110.477 170.477 112.926C169.105 116.705 167.205 120.528 163.909 122.976C141.046 135.221 117.752 146.716 93.7638 156.604C90.4234 157.625 86.8707 157.984 83.3993 157.588C80.1515 157.197 76.8636 156.083 74.1035 154.494C72.6878 153.812 71.4259 152.847 70.1103 151.993C58.9339 144.572 48.5908 135.908 39.2168 126.313C36.6546 123.77 34.4682 120.863 32.533 117.823C25.6045 102.22 18.3151 86.7802 10.8986 71.4072C10.8837 71.3275 10.6386 70.9403 10.899 71.1928C25.6744 84.2251 40.1531 97.5996 54.5012 111.096C56.1353 112.712 58.2571 113.798 60.4916 114.282C63.201 114.769 65.9974 114.314 68.4875 113.179C78.6003 109.11 88.7587 105.155 98.9414 101.267C100.187 101.268 101.466 101.341 102.676 100.953C104.186 100.48 105.512 99.5394 106.603 98.4071C106.693 98.3087 106.823 98.2663 106.946 98.2247C133.034 88.3832 159.273 78.9429 185.463 69.3954L185.461 69.3954ZM163.367 70.1804C163.299 70.1819 163.23 70.1874 163.161 70.1974C162.618 70.2608 162.145 70.6979 162.047 71.2378C161.79 72.5425 163.128 73.8607 164.428 73.5527C165.077 73.4289 165.521 72.7284 165.421 72.0861C165.342 71.0623 164.395 70.1585 163.367 70.1804ZM163.059 70.6209C164.149 70.608 165.124 72.0006 164.529 72.9756C163.863 73.7124 162.699 73.0518 162.389 72.2813C162.047 71.7234 162.155 70.7688 162.898 70.6332C162.952 70.6255 163.005 70.6215 163.059 70.6208L163.059 70.6209ZM154.629 71.4904C154.658 71.4887 154.685 71.4949 154.704 71.5205C155.723 72.973 156.645 74.4956 157.699 75.9232C158.929 77.0402 160.851 77.0866 162.297 77.2546C143.998 83.8908 125.711 90.5586 107.47 97.3493C107.907 96.6549 108.307 95.9326 108.545 95.1429C109.157 92.5414 109.804 89.9482 110.409 87.3455C110.436 87.0961 110.744 87.0764 110.934 86.9933C125.427 81.705 139.976 76.5742 154.547 71.5069C154.571 71.5014 154.601 71.492 154.629 71.4904L154.629 71.4904ZM98.7667 76.2103C98.1799 78.6696 97.5874 81.1284 97.0116 83.5904C96.9932 83.7216 96.8289 83.7207 96.7424 83.7697C88.7727 86.53 80.8135 89.3174 72.8687 92.1482C69.6586 93.2695 66.015 93.5775 62.8127 92.2711C61.5962 91.7483 60.3515 91.1533 59.4016 90.2161C72.5931 85.8212 85.7505 81.3017 98.6999 76.2304C98.7165 76.2256 98.7501 76.2151 98.7667 76.2103ZM168.296 82.1601C168.142 82.1616 167.987 82.1711 167.834 82.1888C165.459 82.4058 163.392 83.9223 161.955 85.7546C160.453 87.7147 159.492 90.2264 159.797 92.722C159.964 94.0832 160.583 95.4521 161.726 96.2624C162.902 97.1156 164.46 97.2657 165.843 96.9117C168.856 96.1172 171.198 93.5949 172.315 90.7471C173.135 88.6706 173.314 86.1365 172.088 84.1795C171.303 82.8853 169.79 82.1463 168.296 82.1601ZM169.041 83.0327C170.897 83.5009 171.974 85.4312 171.995 87.2557C172.063 90.6062 169.975 93.8587 167.023 95.3795C165.287 96.2825 162.858 96.3114 161.508 94.7197C163.367 95.2154 165.298 94.4209 166.729 93.2474C168.606 91.7262 169.895 89.4454 170.131 87.0295C170.307 85.6233 169.937 84.1405 169.041 83.0327ZM166.521 83.0621C167.787 83.1076 168.83 84.1979 169.202 85.3656C170.054 88.4212 168.262 91.7218 165.658 93.3127C164.15 94.2769 161.913 94.4856 160.601 93.083C159.542 88.9125 162.473 84.2709 166.521 83.0621ZM150.098 90.6399C149.907 90.6404 149.717 90.6525 149.527 90.6765C147.453 90.9009 145.604 92.1233 144.239 93.6533C142.051 96.1135 140.733 99.8341 142.106 103C142.946 104.952 145.268 105.958 147.295 105.463C150.725 104.736 153.342 101.765 154.369 98.5023C155.007 96.4578 154.975 94.0187 153.613 92.2664C152.776 91.2021 151.435 90.6363 150.098 90.6399ZM150.872 91.5173C152.435 91.9299 153.518 93.4407 153.717 95.0044C154.126 97.745 152.831 100.496 150.905 102.385C149.536 103.68 147.696 104.646 145.763 104.462C144.848 104.345 143.928 103.936 143.344 103.207C145.163 103.678 147.053 102.912 148.466 101.779C150.018 100.551 151.138 98.8051 151.683 96.9067C152.189 95.1072 152.07 93.0254 150.872 91.5173ZM148.262 91.548C149.746 91.5467 150.903 92.9704 151.126 94.3608C151.636 97.2896 149.914 100.304 147.438 101.801C145.927 102.761 143.617 102.981 142.377 101.497C141.389 97.3508 144.271 92.8023 148.262 91.548ZM102.633 92.6705C102.563 92.6705 102.493 92.6758 102.425 92.6864C100.825 92.945 100.093 95.2074 101.162 96.3961C101.596 96.9317 102.414 97.059 103.011 96.733C104.195 96.1349 104.619 94.4273 103.872 93.3344C103.608 92.9202 103.12 92.6697 102.633 92.6705ZM102.222 93.1981C104.068 93.2227 103.637 96.9065 101.744 96.5199C100.427 95.9358 100.721 93.6393 102.036 93.2075C102.1 93.2004 102.162 93.1974 102.222 93.1981ZM130.915 98.598C130.74 98.6003 130.564 98.6139 130.387 98.6394C129.23 98.754 128.112 99.1722 127.144 99.8123C124.431 101.568 122.56 104.62 122.328 107.856C122.231 109.762 122.893 111.922 124.641 112.919C126.388 113.952 128.619 113.579 130.31 112.608C133.83 110.574 136.256 106.25 135.344 102.16C134.911 100.117 132.982 98.5713 130.915 98.598L130.915 98.598ZM131.633 99.4859C133.536 99.9633 134.605 101.974 134.592 103.833C134.597 106.895 132.82 109.842 130.259 111.464C128.436 112.655 125.65 112.988 124.112 111.171C125.488 111.545 126.941 111.172 128.159 110.499C130.853 108.936 132.698 105.942 132.767 102.811C132.754 101.621 132.398 100.413 131.633 99.486L131.633 99.4859ZM129.115 99.5113C130.53 99.5634 131.62 100.881 131.893 102.203C132.435 104.869 131.045 107.624 128.98 109.264C127.416 110.574 124.757 111.177 123.209 109.54C122.592 107.602 123.106 105.475 124.07 103.735C125.155 101.785 126.931 100.109 129.115 99.5113H129.115ZM157.787 105.569C157.64 105.571 157.492 105.58 157.346 105.596C154.768 105.838 152.556 107.568 151.116 109.642C149.583 111.861 148.722 114.774 149.603 117.413C150.253 119.596 152.685 120.92 154.885 120.414C158.723 119.65 161.594 116.13 162.333 112.385C162.643 110.707 162.48 108.834 161.477 107.405C160.666 106.21 159.213 105.553 157.787 105.569ZM158.549 106.442C161.181 107.133 161.983 110.356 161.296 112.703C160.661 115.209 158.992 117.468 156.703 118.692C154.939 119.676 152.422 119.783 151.02 118.127C152.743 118.592 154.537 117.927 155.924 116.906C157.875 115.451 159.256 113.209 159.603 110.791C159.845 109.283 159.538 107.636 158.549 106.442ZM156.033 106.47C157.235 106.509 158.259 107.517 158.65 108.616C159.355 110.626 158.685 112.859 157.497 114.543C156.371 116.101 154.655 117.421 152.669 117.495C151.73 117.547 150.767 117.178 150.12 116.492C149.672 115.038 149.846 113.453 150.368 112.042C151.323 109.5 153.367 107.214 156.033 106.47L156.033 106.47ZM112.737 106.701C112.577 106.702 112.416 106.713 112.255 106.733C110.296 106.883 108.533 107.984 107.169 109.344C105.275 111.333 103.976 114.053 104.154 116.846C104.23 118.218 104.738 119.627 105.797 120.544C106.839 121.495 108.351 121.803 109.717 121.563C111.968 121.19 113.898 119.704 115.244 117.911C116.949 115.65 117.906 112.579 117.005 109.803C116.44 107.976 114.629 106.686 112.737 106.701ZM113.417 107.576C115.851 108.193 116.756 111.072 116.289 113.312C115.661 116.595 113.206 119.685 109.873 120.449C108.461 120.771 106.854 120.387 105.891 119.265C107.51 119.702 109.222 119.138 110.564 118.212C112.27 117.051 113.514 115.281 114.168 113.333C114.771 111.44 114.765 109.157 113.417 107.576ZM110.939 107.606C112.424 107.692 113.542 109.125 113.738 110.535C114.197 113.648 112.244 116.823 109.468 118.166C108.045 118.858 106.08 118.883 104.984 117.583C104.544 116.046 104.751 114.372 105.356 112.909C106.361 110.482 108.348 108.303 110.939 107.606L110.939 107.606ZM141.072 113.038C140.888 113.041 140.705 113.054 140.524 113.078C137.69 113.412 135.355 115.483 133.946 117.868C132.688 120.044 132.067 122.798 133.046 125.198C133.622 126.673 135.036 127.755 136.606 127.933C138.527 128.147 140.417 127.315 141.885 126.124C144.012 124.37 145.491 121.787 145.767 119.027C145.889 117.448 145.585 115.727 144.505 114.511C143.659 113.526 142.356 113.022 141.072 113.038ZM141.907 113.927C143.632 114.366 144.715 116.139 144.796 117.852C145.024 121.417 142.729 124.96 139.499 126.404C137.855 127.156 135.576 127.096 134.385 125.61C137.174 126.239 139.85 124.358 141.369 122.151C143.004 119.814 143.759 116.342 141.907 113.926L141.907 113.927ZM139.306 113.95C140.726 113.948 141.842 115.272 142.122 116.59C142.748 119.724 140.815 123.001 138.048 124.426C136.607 125.175 134.572 125.249 133.433 123.928C132.771 121.688 133.504 119.269 134.779 117.39C135.867 115.813 137.429 114.455 139.306 113.95ZM94.184 114.804C94.0302 114.801 93.8766 114.807 93.724 114.82C90.0952 115.194 87.2206 118.22 86.0619 121.546C85.365 123.527 85.2719 125.902 86.4337 127.727C87.3893 129.316 89.4101 130.015 91.185 129.651C94.6787 128.981 97.358 125.952 98.3861 122.644C98.9672 120.768 98.9812 118.586 97.9299 116.871C97.1673 115.569 95.6701 114.825 94.184 114.804L94.184 114.804ZM94.8499 115.668C96.0331 115.998 97.0036 116.922 97.4336 118.068C98.0357 119.64 97.8718 121.424 97.2719 122.972C96.3569 125.41 94.423 127.538 91.9299 128.386C90.3657 128.922 88.4244 128.684 87.3154 127.358C88.5528 127.727 89.8654 127.429 91.0036 126.889C93.8611 125.438 95.8544 122.383 95.9772 119.171C96.0344 117.917 95.6368 116.648 94.8499 115.668ZM92.3668 115.702C93.8506 115.809 94.9679 117.224 95.1597 118.637C95.4918 120.58 94.7468 122.553 93.5706 124.078C92.497 125.448 90.9485 126.58 89.1684 126.716C88.1648 126.836 87.1122 126.452 86.4136 125.723C85.8408 123.754 86.3319 121.624 87.3193 119.875C88.427 117.954 90.1817 116.269 92.3668 115.702ZM124.822 120.114C124.609 120.115 124.394 120.132 124.182 120.165C120.067 120.776 116.985 124.614 116.343 128.592C116.107 130.229 116.351 132.02 117.37 133.368C118.571 134.978 120.827 135.401 122.666 134.794C125.663 133.845 127.941 131.253 128.979 128.338C129.59 126.554 129.74 124.526 128.961 122.769C128.278 121.133 126.563 120.106 124.822 120.114L124.822 120.114ZM125.607 121.015C127.445 121.474 128.506 123.429 128.519 125.232C128.577 128.301 126.817 131.291 124.257 132.929C122.445 134.174 119.6 134.506 118.048 132.692C119.605 133.092 121.225 132.585 122.538 131.733C124.831 130.215 126.418 127.636 126.67 124.887C126.81 123.522 126.428 122.104 125.607 121.015L125.607 121.015ZM123.049 121.024C123.884 121.019 124.648 121.579 125.144 122.215C126.198 123.634 126.115 125.6 125.517 127.191C124.745 129.261 123.117 131.081 121.005 131.818C119.687 132.248 117.971 132.13 117.093 130.931C116.126 126.799 119.002 122.295 122.968 121.026C122.995 121.025 123.022 121.024 123.049 121.024L123.049 121.024ZM108.541 126.95C108.336 126.95 108.131 126.963 107.928 126.99C103.807 127.565 100.713 131.407 100.047 135.376C99.7098 137.442 100.224 139.894 102.062 141.128C103.753 142.298 106.006 141.972 107.739 141.065C110.295 139.672 112.191 137.163 112.916 134.349C113.391 132.529 113.306 130.445 112.224 128.852C111.432 127.627 109.979 126.955 108.541 126.95ZM109.266 127.834C110.341 128.1 111.233 128.906 111.704 129.899C112.474 131.524 112.319 133.445 111.691 135.091C110.745 137.594 108.736 139.812 106.131 140.595C104.624 141.054 102.792 140.765 101.745 139.518C103.297 139.918 104.935 139.422 106.241 138.559C108.542 137.028 110.139 134.433 110.372 131.665C110.482 130.312 110.136 128.896 109.266 127.835L109.266 127.834ZM106.707 127.864C108.27 127.895 109.44 129.446 109.583 130.926C109.897 133.097 108.913 135.276 107.454 136.843C106.377 137.952 104.94 138.857 103.351 138.87C102.417 138.931 101.454 138.547 100.821 137.861C100.351 136.314 100.585 134.626 101.187 133.149C102.174 130.735 104.154 128.59 106.707 127.864Z" fill="#261D1A" fill-opacity="0.98039"/>
<path d="M85.5141 1.23537C85.3657 1.23469 85.2144 1.26234 85.0602 1.32732C83.6481 2.63987 81.9794 3.64393 80.288 4.55352C79.6414 4.86241 79.3731 5.74445 79.6178 6.33641C79.6279 6.1404 79.7633 5.99688 79.8856 5.85645C80.15 5.43118 80.739 4.98098 81.2283 5.35331C97.5741 15.344 114.326 24.6482 131.187 33.7324C131.656 33.9927 132.158 34.3227 132.726 34.1892C134.735 33.7841 136.391 32.5043 138.132 31.4993C138.369 31.2946 138.632 31.0885 138.709 30.767C137.357 29.2063 135.413 28.4179 133.627 27.4829C117.981 19.4064 102.216 11.4672 87.2773 2.09993C86.7491 1.77253 86.16 1.23833 85.5168 1.23535L85.5141 1.23537ZM62.7323 6.90122C61.3697 6.90676 59.964 7.24222 58.6368 7.37496C57.4046 7.38896 56.4395 8.34752 55.8286 9.33018C56.2441 9.06679 56.6946 8.81045 57.1971 8.78245C57.9098 8.28281 58.902 8.36372 59.5924 8.8638C76.4804 18.2061 93.1673 27.9054 109.674 37.9049C110.811 38.6005 112.141 39.1894 112.818 40.4053C114.844 41.0462 116.995 40.733 119.077 40.6932C119.471 40.6945 119.893 40.6315 120.18 40.3353C120.051 39.3255 119.536 38.3266 118.599 37.8489C100.798 27.8783 82.9307 18.0145 65.4284 7.52369C64.5754 7.04806 63.6632 6.89738 62.7309 6.90119L62.7323 6.90122ZM3.03827 56.5594C2.99326 56.5791 2.94778 56.5988 2.90234 56.6189C3.51143 58.9193 3.85223 61.3047 3.75654 63.6852C3.8802 64.7291 4.84674 65.3106 5.58691 65.9183C22.4788 80.5278 39.0601 95.4966 55.4368 110.681C57.3716 112.114 59.6078 113.365 62.0612 113.502C63.2042 113.219 63.8273 111.803 63.6001 110.694C63.2348 108.533 61.8387 106.73 60.5227 105.05C58.1663 105.142 55.4307 104.673 53.9669 102.614C37.9633 87.1418 21.358 72.2557 3.94661 58.3724C3.35544 57.9612 3.10858 57.2489 3.0343 56.5624L3.03827 56.5594Z" fill="#C8E9E0"/>
<path d="M80.4882 5.68241C80.2793 5.68502 80.0722 5.73852 79.8848 5.85633C79.7625 5.99677 79.627 6.14029 79.617 6.33628C79.6698 6.5441 79.776 6.734 79.8904 6.91468C82.419 10.8134 84.7846 14.8167 87.0243 18.8878C87.165 19.1267 87.2467 19.4478 87.5155 19.5782C88.8595 20.3456 90.189 21.1467 91.554 21.8734C89.8391 18.4984 87.8095 15.2809 85.6462 12.1749C85.5274 11.9348 85.2076 11.4902 85.5318 11.2986C86.0308 11.3896 86.4271 11.7378 86.8798 11.9443C100.741 19.516 114.173 27.8336 127.676 36.0222C129.466 37.2696 131.271 38.5082 133.004 39.8308C141.425 51.5309 149.89 63.2056 157.885 75.2045C158.822 76.4195 160.588 76.4916 161.939 76.4453C159.364 75.8883 157.661 73.6299 156.308 71.5346C148.632 59.7728 141.097 47.9183 133.715 35.9688C132.966 34.8588 131.55 34.7065 130.49 34.0354C113.868 25.205 97.5208 15.86 81.4657 6.03251C81.1885 5.81512 80.8348 5.67789 80.4865 5.68223L80.4882 5.68241ZM57.342 8.78087C57.2929 8.78069 57.2438 8.78126 57.1947 8.78251C56.6922 8.81051 56.2418 9.06684 55.8262 9.33023C55.6532 9.54374 55.5226 9.78875 55.3827 10.0246C49.8905 19.632 44.3763 29.2307 38.905 38.8478C39.8855 38.5997 40.8581 38.3179 41.8399 38.072C42.0199 38.0086 42.2791 38.0117 42.3533 37.7933C46.3736 30.4601 50.3947 23.1273 54.4167 15.7945C54.7247 15.2017 55.0445 14.5804 55.6012 14.181C56.4847 13.4871 57.7505 13.5593 58.7235 14.0187C75.1702 21.474 90.57 31.0385 105.462 41.2029C107.075 42.6612 106.914 45.0596 106.622 47.0228C102.675 63.4936 98.7088 79.9604 94.7488 96.4272C94.5063 97.1885 94.7759 98.0775 95.3662 98.6078C96.348 99.5847 97.7676 99.9168 99.1011 100.068L99.1108 100.034C98.295 99.8232 97.5767 99.2378 97.2901 98.4319C96.8103 97.0292 97.0485 95.5009 97.4588 94.1114C102.143 77.3724 106.549 60.5556 111.244 43.8188C111.504 42.8672 111.747 41.8688 111.599 40.8791C111.277 39.3001 109.745 38.3944 108.46 37.6301C92.285 27.9242 75.948 18.4935 59.4362 9.36999C58.8189 8.95366 58.078 8.78735 57.3408 8.78472L57.342 8.78087ZM127.868 17.4306C126.699 17.4314 125.529 17.5377 124.395 17.7033C122.541 18.1062 120.708 18.5997 118.859 19.0241C118.81 19.0425 118.665 19.0678 118.771 19.1238C120.661 20.1087 122.551 21.0945 124.441 22.0789C127.906 21.6606 131.494 22.256 134.591 23.8884C151.842 32.3062 169.28 40.385 186.044 49.764C186.953 50.3241 187.974 50.8084 188.588 51.7206C188.962 52.2238 188.758 52.9645 188.301 53.3429C187.384 54.151 186.213 54.5636 185.085 54.9779C178.062 57.257 171.043 59.5443 164.029 61.85C163.964 61.8605 163.945 61.8885 163.971 61.9335C165.179 63.3669 166.43 64.7669 167.603 66.2296C167.656 66.2444 167.714 66.2287 167.771 66.2164C176.827 63.0541 185.886 59.9009 194.95 56.7626C196.504 56.2231 198.085 55.7235 199.525 54.911C200.109 54.5894 200.746 54.2193 200.977 53.5494C201.022 53.4296 201.077 53.3141 201.132 53.1986C200.32 52.1135 199.09 51.4139 197.868 50.8753C176.252 41.0719 155.387 29.7358 134.289 18.899C132.327 17.8116 130.101 17.429 127.871 17.4306L127.868 17.4306ZM104.365 22.5517C101.677 23.2277 98.9243 23.845 96.2747 24.5446C98.0399 25.6336 99.9371 26.6425 101.766 27.6772C104.426 27.1806 107.048 26.3835 109.692 25.7683C107.935 24.6794 106.164 23.5361 104.365 22.5517ZM133.143 23.9842C133.478 25.0132 133.844 26.0326 134.16 27.0678C134.52 27.3539 134.987 27.4891 135.377 27.7389C137.907 28.8528 139.781 30.9958 141.401 33.1694C148.341 42.8814 155.744 52.2674 163.5 61.3359C170.551 59.1277 177.564 56.7454 184.613 54.5093C185.591 54.1321 186.662 53.7962 187.374 52.985C187.812 52.509 187.63 51.7744 187.19 51.3719C186.059 50.2737 184.529 49.7601 183.23 48.9052C167.404 39.8026 150.726 32.3478 134.285 24.4567C133.915 24.2747 133.537 24.1023 133.143 23.9842ZM83.3934 27.7197C60.9459 33.7176 38.4984 39.7134 16.053 45.72C12.1166 46.7298 8.01775 47.7816 4.74948 50.3271C3.58155 51.2608 2.50057 52.5396 2.39003 54.0936C2.34896 54.9647 2.69978 55.7838 2.90076 56.6159C2.9462 56.5958 2.99168 56.5761 3.03668 56.5564C2.97246 55.5414 3.0642 54.403 3.20751 53.4776C3.16294 55.1498 3.53217 56.9808 4.82377 58.1468C21.921 71.8411 38.4346 86.2608 54.429 101.23C55.4043 102.236 56.7456 102.764 58.0634 103.148C60.8227 103.886 63.848 103.946 66.5255 102.865C75.9651 99.2739 85.4295 95.7453 94.9062 92.2535C95.5546 89.7386 96.1357 87.2019 96.7234 84.6713C88.6821 87.4924 80.6603 90.3752 72.6526 93.2926C70.3749 94.2201 67.8927 94.8278 65.4227 94.5089C63.0999 94.2529 60.9389 93.0528 59.365 91.3438C45.9686 79.5659 32.4498 67.9235 18.4548 56.8718C17.3332 55.9946 16.1569 55.019 15.6518 53.6408C15.3434 52.8419 15.4907 51.9051 16.0097 51.2301C16.8701 50.0457 18.2848 49.4384 19.6533 49.0591C42.7278 43.3902 65.6101 36.9749 88.5754 30.8803C86.9544 29.7685 85.1411 28.7027 83.3934 27.7157L83.3934 27.7197ZM143.594 55.5642C144.745 59.2966 146.056 62.9827 147.225 66.7108C148.364 66.3586 149.501 65.9837 150.63 65.5943C148.305 62.2372 145.978 58.8727 143.594 55.5642ZM150.945 66.1674C138.097 70.4301 125.27 74.7581 112.474 79.1757C112.383 79.1897 112.35 79.2702 112.334 79.3507C111.77 81.7378 111.188 84.1209 110.617 86.5063C125.135 81.2574 139.681 76.0745 154.244 70.9508C153.229 69.3595 152.102 67.6033 150.945 66.1674ZM10.7766 71.1092C10.7363 71.1153 10.877 71.348 10.8882 71.4077C18.3047 86.7807 25.5941 102.221 32.5226 117.824C34.4578 120.863 36.6442 123.77 39.2064 126.313C48.5804 135.909 58.9235 144.573 70.0999 151.994C71.4155 152.847 72.6774 153.813 74.0931 154.495C74.9569 154.488 75.9098 154.102 76.2401 153.242C76.7146 151.946 76.3752 150.552 76.1161 149.248C75.4611 144.47 74.7541 139.691 73.6688 134.988C72.7538 131.091 71.5269 127.197 69.3755 123.792C66.7285 124.512 63.431 124.748 61.2612 122.736C55.1353 115.635 48.6556 108.849 41.8874 102.365C32.7468 93.5491 23.1124 85.2669 13.8887 76.5384C13.1367 75.2302 12.4716 73.8678 11.783 72.525C26.1927 85.248 40.3053 98.318 54.0246 111.78C55.7675 113.323 57.8862 114.381 60.0989 115.063C60.5642 115.141 61.0366 115.188 61.5098 115.183C61.1939 114.851 60.8159 114.59 60.486 114.276C58.2515 113.792 56.1297 112.705 54.4956 111.089C40.1475 97.593 25.6688 84.2186 10.8934 71.1862C10.8283 71.1231 10.7948 71.1 10.7814 71.1021L10.7766 71.1092Z" fill="#C8E9E0"/>
<path d="M163.053 70.6195C162.999 70.6201 162.945 70.6241 162.891 70.6318C162.148 70.7674 162.041 71.7221 162.382 72.2799C162.692 73.0504 163.857 73.711 164.522 72.9742C165.117 71.9992 164.142 70.6066 163.053 70.6195ZM166.513 83.0607C162.466 84.2696 159.535 88.9112 160.593 93.0816C161.906 94.4843 164.143 94.2756 165.651 93.3113C168.255 91.7205 170.047 88.4198 169.194 85.3642C168.823 84.1965 167.78 83.1062 166.513 83.0607ZM148.254 91.5485C144.263 92.8029 141.381 97.3513 142.369 101.497C143.609 102.981 145.919 102.761 147.43 101.801C149.906 100.305 151.628 97.2901 151.118 94.3613C150.895 92.9709 149.738 91.5472 148.254 91.5485ZM102.214 93.1987C102.154 93.1979 102.093 93.201 102.028 93.2081C100.713 93.6399 100.419 95.9364 101.736 96.5205C103.629 96.907 104.06 93.2233 102.214 93.1987ZM129.108 99.5116C126.924 100.109 125.147 101.786 124.062 103.735C123.098 105.475 122.585 107.602 123.202 109.54C124.749 111.177 127.409 110.574 128.973 109.265C131.037 107.625 132.428 104.869 131.885 102.204C131.612 100.881 130.523 99.5637 129.108 99.5116ZM156.025 106.47C153.359 107.215 151.316 109.501 150.361 112.043C149.838 113.453 149.664 115.038 150.112 116.493C150.759 117.178 151.723 117.547 152.662 117.495C154.647 117.421 156.363 116.101 157.489 114.543C158.677 112.86 159.347 110.627 158.642 108.616C158.251 107.518 157.227 106.51 156.025 106.47ZM110.933 107.607C108.342 108.303 106.356 110.482 105.35 112.91C104.746 114.373 104.539 116.046 104.979 117.584C106.074 118.884 108.04 118.859 109.463 118.166C112.239 116.823 114.192 113.649 113.732 110.535C113.537 109.125 112.419 107.692 110.933 107.607ZM139.301 113.95C137.424 114.455 135.861 115.813 134.773 117.39C133.499 119.27 132.766 121.689 133.427 123.928C134.566 125.249 136.602 125.175 138.043 124.426C140.81 123.001 142.742 119.725 142.117 116.591C141.837 115.272 140.721 113.949 139.301 113.95ZM92.3611 115.703C90.176 116.27 88.4212 117.954 87.3136 119.875C86.3261 121.625 85.835 123.755 86.4078 125.724C87.1065 126.453 88.1591 126.837 89.1627 126.717C90.9428 126.58 92.4913 125.448 93.5648 124.079C94.7411 122.554 95.4861 120.58 95.154 118.638C94.9622 117.225 93.8449 115.81 92.3611 115.703ZM123.043 121.025C123.016 121.025 122.989 121.026 122.962 121.027C118.997 122.296 116.121 126.8 117.088 130.932C117.966 132.131 119.681 132.249 121 131.819C123.112 131.082 124.739 129.262 125.511 127.192C126.109 125.601 126.192 123.635 125.139 122.216C124.642 121.58 123.878 121.019 123.043 121.025ZM106.702 127.865C104.149 128.591 102.169 130.736 101.181 133.149C100.579 134.627 100.345 136.315 100.816 137.862C101.448 138.548 102.412 138.932 103.345 138.871C104.935 138.858 106.371 137.953 107.449 136.844C108.907 135.277 109.892 133.098 109.578 130.927C109.435 129.447 108.264 127.896 106.702 127.865Z" fill="#7CD8F1"/>
</svg>
