<svg width="20" height="18" viewBox="0 0 20 18" fill="none" xmlns="http://www.w3.org/2000/svg">
<path d="M9.2 4.49996C9.86274 4.49996 10.4 3.95049 10.4 3.27268C10.4 2.59488 9.86274 2.04541 9.2 2.04541C8.53726 2.04541 8 2.59488 8 3.27268C8 3.95049 8.53726 4.49996 9.2 4.49996Z" fill="#3772FE" stroke="#3772FE" stroke-width="2.04545" stroke-linecap="round" stroke-linejoin="round"/>
<path d="M1.59961 3.27271L18.3996 3.27271" stroke="#3772FE" stroke-width="2.04545" stroke-linecap="round" stroke-linejoin="round"/>
<path d="M13.9998 10.2273C14.6625 10.2273 15.1998 9.67778 15.1998 8.99998C15.1998 8.32217 14.6625 7.77271 13.9998 7.77271C13.3371 7.77271 12.7998 8.32217 12.7998 8.99998C12.7998 9.67778 13.3371 10.2273 13.9998 10.2273Z" fill="#3772FE" stroke="#3772FE" stroke-width="2.04545" stroke-linecap="round" stroke-linejoin="round"/>
<path d="M1.59961 9H18.3996" stroke="#3772FE" stroke-width="2.04545" stroke-linecap="round" stroke-linejoin="round"/>
<path d="M5.9998 15.9545C6.66255 15.9545 7.1998 15.4051 7.1998 14.7273C7.1998 14.0495 6.66255 13.5 5.9998 13.5C5.33706 13.5 4.7998 14.0495 4.7998 14.7273C4.7998 15.4051 5.33706 15.9545 5.9998 15.9545Z" fill="#3772FE" stroke="#3772FE" stroke-width="2.04545" stroke-linecap="round" stroke-linejoin="round"/>
<path d="M1.59961 14.7273H18.3996" stroke="#3772FE" stroke-width="2.04545" stroke-linecap="round" stroke-linejoin="round"/>
</svg>
