<svg width="17" height="14" viewBox="0 0 17 14" fill="none" xmlns="http://www.w3.org/2000/svg">
<path d="M13.7878 0.510703C14.0693 0.391101 14.3512 0.271667 14.6337 0.152401C15.2984 -0.131318 15.7317 -0.0264993 16.1983 0.53086C16.4828 0.994487 16.3553 1.48533 16.2838 1.97113C15.9183 4.45354 15.5521 6.93646 15.1853 9.41989C15.01 10.6031 14.8365 11.7884 14.6573 12.9686C14.5158 13.9035 13.5434 14.3076 12.7927 13.7372C11.5566 12.7963 10.3296 11.8504 9.09878 10.9065C8.68464 10.589 8.27082 10.2709 7.85732 9.95205C7.36895 9.5746 7.3332 9.0379 7.76989 8.60754C9.26769 7.13334 10.7637 5.65981 12.258 4.18696C12.3691 4.07659 12.5889 3.97077 12.43 3.76314C12.271 3.55552 12.1247 3.74903 11.9952 3.83823C10.0354 5.16763 8.07373 6.4935 6.12266 7.8365C5.44927 8.29963 4.74787 8.44123 3.96773 8.22353C3.08374 7.97862 2.19443 7.75587 1.30753 7.52255C0.894032 7.4142 0.658782 7.15669 0.627867 6.78125C0.597917 6.41942 0.8037 6.11252 1.19546 5.9432L11.3208 1.57956C12.1433 1.22445 12.9657 0.868166 13.7878 0.510703Z" fill="#868799"/>
</svg>
