<svg width="16" height="16" viewBox="0 0 16 16" fill="none" xmlns="http://www.w3.org/2000/svg">
<g clip-path="url(#clip0_3604_42034)">
<path d="M6.0026 14.6666C6.37079 14.6666 6.66927 14.3681 6.66927 13.9999C6.66927 13.6317 6.37079 13.3333 6.0026 13.3333C5.63441 13.3333 5.33594 13.6317 5.33594 13.9999C5.33594 14.3681 5.63441 14.6666 6.0026 14.6666Z" stroke="#868799" stroke-width="1.5" stroke-linecap="round" stroke-linejoin="round"/>
<path d="M13.3307 14.6666C13.6989 14.6666 13.9974 14.3681 13.9974 13.9999C13.9974 13.6317 13.6989 13.3333 13.3307 13.3333C12.9625 13.3333 12.6641 13.6317 12.6641 13.9999C12.6641 14.3681 12.9625 14.6666 13.3307 14.6666Z" stroke="#868799" stroke-width="1.5" stroke-linecap="round" stroke-linejoin="round"/>
<path d="M0.664062 0.666748H3.33073L5.1174 9.59342C5.17836 9.90035 5.34533 10.1761 5.58909 10.3723C5.83285 10.5685 6.13786 10.6727 6.45073 10.6667H12.9307C13.2436 10.6727 13.5486 10.5685 13.7924 10.3723C14.0361 10.1761 14.2031 9.90035 14.2641 9.59342L15.3307 4.00008H3.9974" stroke="#868799" stroke-width="1.5" stroke-linecap="round" stroke-linejoin="round"/>
</g>
<defs>
<clipPath id="clip0_3604_42034">
<rect width="16" height="16" fill="white"/>
</clipPath>
</defs>
</svg>
