<svg width="5" height="19" viewBox="0 0 5 19" fill="none" xmlns="http://www.w3.org/2000/svg">
<g clip-path="url(#clip0_4059_36323)">
<path d="M2.66406 10.6382C3.21635 10.6382 3.66406 10.1905 3.66406 9.63818C3.66406 9.0859 3.21635 8.63818 2.66406 8.63818C2.11178 8.63818 1.66406 9.0859 1.66406 9.63818C1.66406 10.1905 2.11178 10.6382 2.66406 10.6382Z" stroke="#2C2C2C" stroke-width="2" stroke-linecap="round" stroke-linejoin="round"/>
<path d="M2.66406 3.63818C3.21635 3.63818 3.66406 3.19047 3.66406 2.63818C3.66406 2.0859 3.21635 1.63818 2.66406 1.63818C2.11178 1.63818 1.66406 2.0859 1.66406 2.63818C1.66406 3.19047 2.11178 3.63818 2.66406 3.63818Z" stroke="#2C2C2C" stroke-width="2" stroke-linecap="round" stroke-linejoin="round"/>
<path d="M2.66406 17.6382C3.21635 17.6382 3.66406 17.1905 3.66406 16.6382C3.66406 16.0859 3.21635 15.6382 2.66406 15.6382C2.11178 15.6382 1.66406 16.0859 1.66406 16.6382C1.66406 17.1905 2.11178 17.6382 2.66406 17.6382Z" stroke="#2C2C2C" stroke-width="2" stroke-linecap="round" stroke-linejoin="round"/>
</g>
<defs>
<clipPath id="clip0_4059_36323">
<rect width="5" height="19" fill="white"/>
</clipPath>
</defs>
</svg>
