<svg width="16" height="18" viewBox="0 0 16 18" fill="none" xmlns="http://www.w3.org/2000/svg">
<g clip-path="url(#clip0_3799_28571)">
<path d="M11.3346 7.04997L4.66797 3.15747" stroke="#F69421" stroke-width="1.5" stroke-linecap="round" stroke-linejoin="round"/>
<path d="M14.6654 11.9999V5.99993C14.6651 5.73688 14.5965 5.47853 14.4665 5.2508C14.3365 5.02306 14.1496 4.83395 13.9246 4.70243L8.73944 1.70243C8.51422 1.57077 8.25875 1.50146 7.9987 1.50146C7.73864 1.50146 7.48317 1.57077 7.25796 1.70243L2.07277 4.70243C1.84778 4.83395 1.66091 5.02306 1.53089 5.2508C1.40088 5.47853 1.3323 5.73688 1.33203 5.99993V11.9999C1.3323 12.263 1.40088 12.5213 1.53089 12.7491C1.66091 12.9768 1.84778 13.1659 2.07277 13.2974L7.25796 16.2974C7.48317 16.4291 7.73864 16.4984 7.9987 16.4984C8.25875 16.4984 8.51422 16.4291 8.73944 16.2974L13.9246 13.2974C14.1496 13.1659 14.3365 12.9768 14.4665 12.7491C14.5965 12.5213 14.6651 12.263 14.6654 11.9999Z" stroke="#F69421" stroke-width="1.5" stroke-linecap="round" stroke-linejoin="round"/>
<path d="M1.53516 5.21997L8.00182 9.00747L14.4685 5.21997" stroke="#F69421" stroke-width="1.5" stroke-linecap="round" stroke-linejoin="round"/>
<path d="M8 16.56V9" stroke="#F69421" stroke-width="1.5" stroke-linecap="round" stroke-linejoin="round"/>
</g>
<defs>
<clipPath id="clip0_3799_28571">
<rect width="16" height="18" fill="white"/>
</clipPath>
</defs>
</svg>
