<svg width="18" height="19" viewBox="0 0 18 19" fill="none" xmlns="http://www.w3.org/2000/svg">
<g clip-path="url(#clip0_4084_34422)">
<path d="M1.30469 4.31812H3.01897H16.7333" stroke="#868799" stroke-width="2" stroke-linecap="round" stroke-linejoin="round"/>
<path d="M15.0234 4.31807V16.409C15.0234 16.8671 14.8428 17.3064 14.5213 17.6303C14.1998 17.9543 13.7638 18.1363 13.3092 18.1363H4.73772C4.28307 18.1363 3.84703 17.9543 3.52554 17.6303C3.20405 17.3064 3.02344 16.8671 3.02344 16.409V4.31807M5.59487 4.31807V2.5908C5.59487 2.1327 5.77548 1.69336 6.09697 1.36943C6.41846 1.04551 6.85449 0.863525 7.30915 0.863525H10.7377C11.1924 0.863525 11.6284 1.04551 11.9499 1.36943C12.2714 1.69336 12.452 2.1327 12.452 2.5908V4.31807" stroke="#868799" stroke-width="2" stroke-linecap="round" stroke-linejoin="round"/>
<path d="M7.30469 8.63647V13.8183" stroke="#868799" stroke-width="2" stroke-linecap="round" stroke-linejoin="round"/>
<path d="M10.7344 8.63647V13.8183" stroke="#868799" stroke-width="2" stroke-linecap="round" stroke-linejoin="round"/>
</g>
<defs>
<clipPath id="clip0_4084_34422">
<rect width="18" height="19" fill="white"/>
</clipPath>
</defs>
</svg>
