<svg width="66" height="67" viewBox="0 0 66 67" fill="none" xmlns="http://www.w3.org/2000/svg">
<g clip-path="url(#clip0_3125_19803)">
<path d="M47.4849 7.39991C46.5549 8.58991 45.6849 9.73992 44.7849 10.8499C44.6949 10.9599 44.3649 10.9299 44.1849 10.8499C42.6849 10.2899 41.1849 9.60991 39.6849 9.14991C37.2122 8.4662 34.6481 8.17267 32.0849 8.27992C28.6931 8.2722 25.3306 8.9067 22.1749 10.1499C13.2249 13.7899 7.37488 20.2299 5.32488 29.7199C3.42488 38.5499 5.7249 46.4299 11.7749 53.1099C14.0597 55.7037 16.8374 57.8174 19.9464 59.3281C23.0554 60.8388 26.4337 61.7164 29.8849 61.9099C40.8849 62.6299 49.5549 58.4299 55.6549 49.2399C57.92 45.5195 59.2809 41.3196 59.6283 36.9778C59.9756 32.6359 59.2997 28.2732 57.6549 24.2399C56.9011 22.5791 55.951 21.0146 54.8249 19.5799C54.3849 18.9999 54.3849 18.9999 54.8249 18.4599L57.4148 15.4599C58.0848 16.4099 58.7549 17.2799 59.3449 18.1999C62.466 22.958 64.2111 28.4863 64.3876 34.174C64.564 39.8616 63.165 45.4875 60.3449 50.4299C57.2593 55.8004 52.6998 60.1746 47.206 63.0349C41.7122 65.8952 35.5141 67.1219 29.3449 66.5699C25.0502 66.2338 20.8675 65.034 17.0477 63.0425C13.2278 61.0509 9.84934 58.3086 7.11486 54.9799C3.76945 51.0606 1.50788 46.334 0.554864 41.2699C-0.422106 36.6527 -0.302215 31.8707 0.90484 27.3082C2.11189 22.7457 4.37246 18.53 7.50488 14.9999C12.3739 9.21309 19.1656 5.37514 26.6349 4.18989C31.7882 3.298 37.0796 3.64071 42.0749 5.18989C43.95 5.73694 45.7631 6.47761 47.4849 7.39991Z" fill="#3772FE"/>
<path d="M22.9347 53.32C22.0947 53.32 21.2647 53.22 20.4247 53.2C20.0962 53.1994 19.7729 53.118 19.4834 52.9627C19.1939 52.8075 18.947 52.5833 18.7647 52.3101C18.0521 51.2021 17.4172 50.046 16.8647 48.8501C15.4167 45.3576 14.2235 41.7649 13.2947 38.1001C13.2347 37.8601 13.2047 37.6101 13.1447 37.3601C12.9412 36.6272 12.9791 35.8482 13.2529 35.1386C13.5267 34.4289 14.0217 33.8263 14.6647 33.4201C15.9692 32.3927 17.4649 31.6347 19.0647 31.19C19.406 31.0511 19.7719 30.9828 20.1403 30.989C20.5087 30.9953 20.8721 31.0761 21.2085 31.2265C21.5448 31.377 21.8472 31.5939 22.0975 31.8643C22.3478 32.1348 22.5407 32.4531 22.6647 32.8001C23.3247 34.2801 23.8347 35.8 24.4547 37.32C24.7776 38.0909 25.1518 38.8392 25.5747 39.5601C25.8847 40.1101 26.2347 40.15 26.7347 39.76C27.0063 39.5418 27.2454 39.2859 27.4447 39.0001C29.6947 35.6101 31.9047 32.2 34.1847 28.83C39.2927 21.1927 44.79 13.823 50.6547 6.75008C51.4247 5.83008 52.2347 4.94008 52.9947 4.00008C54.6274 2.03879 56.9151 0.735035 59.4347 0.330036C61.082 0.0189579 62.7625 -0.0784897 64.4347 0.0400581H64.6847C65.6847 0.210058 66.4847 0.670053 65.6247 1.91005C64.8947 2.91005 64.1047 3.91005 63.2847 4.91005C55.8247 13.7701 48.6247 22.84 41.8747 32.26C37.5847 38.26 33.4647 44.38 29.2647 50.45C29.1547 50.61 29.0247 50.77 28.9247 50.94C28.5169 51.6677 27.9146 52.2674 27.1851 52.6719C26.4556 53.0764 25.6279 53.2696 24.7947 53.2301C24.1747 53.2301 23.5547 53.2301 22.9347 53.2301V53.32Z" fill="#3772FE"/>
</g>
<defs>
<clipPath id="clip0_3125_19803">
<rect width="65.99" height="66.69" fill="white" transform="translate(0.00488281)"/>
</clipPath>
</defs>
</svg>
