<svg width="18" height="14" viewBox="0 0 18 14" fill="none" xmlns="http://www.w3.org/2000/svg">
<g clip-path="url(#clip0_2562_2414)">
<path d="M13.8279 12.775V11.4917C13.8279 10.811 13.5656 10.1582 13.0989 9.67681C12.6321 9.19547 11.9991 8.92505 11.339 8.92505H6.3612C5.70111 8.92505 5.06805 9.19547 4.60129 9.67681C4.13454 10.1582 3.87231 10.811 3.87231 11.4917V12.775" stroke="#2C2C2C" stroke-width="1.5" stroke-linecap="round" stroke-linejoin="round"/>
<path d="M8.85022 6.35843C10.2248 6.35843 11.3391 5.20929 11.3391 3.79176C11.3391 2.37423 10.2248 1.2251 8.85022 1.2251C7.47564 1.2251 6.36133 2.37423 6.36133 3.79176C6.36133 5.20929 7.47564 6.35843 8.85022 6.35843Z" stroke="#2C2C2C" stroke-width="1.5" stroke-linecap="round" stroke-linejoin="round"/>
<path d="M16.978 12.7751V11.4918C16.9776 10.9231 16.794 10.3707 16.4562 9.9212C16.1183 9.47174 15.6453 9.15072 15.1113 9.00854" stroke="#2C2C2C" stroke-width="1.5" stroke-linecap="round" stroke-linejoin="round"/>
<path d="M12.6223 1.30835C13.1577 1.44971 13.6322 1.7708 13.9711 2.221C14.3099 2.6712 14.4939 3.2249 14.4939 3.79481C14.4939 4.36472 14.3099 4.91842 13.9711 5.36862C13.6322 5.81882 13.1577 6.13991 12.6223 6.28127" stroke="#2C2C2C" stroke-width="1.5" stroke-linecap="round" stroke-linejoin="round"/>
<path d="M0.722445 12.7749V11.4916C0.722856 10.9229 0.906401 10.3704 1.24426 9.92095C1.58212 9.47149 2.05516 9.15047 2.58911 9.0083" stroke="#2C2C2C" stroke-width="1.5" stroke-linecap="round" stroke-linejoin="round"/>
<path d="M5.07788 1.30835C4.54251 1.44971 4.06799 1.7708 3.72913 2.221C3.39026 2.6712 3.20633 3.2249 3.20633 3.79481C3.20633 4.36472 3.39026 4.91842 3.72913 5.36862C4.06799 5.81882 4.54251 6.13991 5.07788 6.28127" stroke="#2C2C2C" stroke-width="1.5" stroke-linecap="round" stroke-linejoin="round"/>
</g>
<defs>
<clipPath id="clip0_2562_2414">
<rect width="18" height="14" fill="white"/>
</clipPath>
</defs>
</svg>
