<svg width="11" height="11" viewBox="0 0 11 11" fill="none" xmlns="http://www.w3.org/2000/svg">
<g clip-path="url(#clip0_2979_18188)">
<path d="M5.5 10.5C8.26142 10.5 10.5 8.26142 10.5 5.5C10.5 2.73858 8.26142 0.5 5.5 0.5C2.73858 0.5 0.5 2.73858 0.5 5.5C0.5 8.26142 2.73858 10.5 5.5 10.5Z" stroke="#F69421" stroke-linecap="round" stroke-linejoin="round"/>
<path d="M4.77814 6.60547V6.31641C4.77814 6.13932 4.80288 5.98307 4.85236 5.84766C4.90184 5.70964 4.98126 5.57943 5.09064 5.45703C5.20001 5.33203 5.34454 5.20443 5.52423 5.07422C5.68569 4.95964 5.8146 4.85677 5.91095 4.76562C6.00991 4.67448 6.08152 4.58464 6.12579 4.49609C6.17267 4.40495 6.19611 4.30208 6.19611 4.1875C6.19611 4.01823 6.13361 3.88932 6.00861 3.80078C5.88361 3.71224 5.70913 3.66797 5.48517 3.66797C5.26121 3.66797 5.03855 3.70312 4.8172 3.77344C4.59845 3.84375 4.37579 3.9362 4.14923 4.05078L3.72345 3.19531C3.98387 3.04948 4.26642 2.93229 4.57111 2.84375C4.87579 2.7526 5.20913 2.70703 5.57111 2.70703C6.1284 2.70703 6.55939 2.84115 6.86407 3.10938C7.17137 3.375 7.32501 3.71354 7.32501 4.125C7.32501 4.34375 7.28986 4.53385 7.21954 4.69531C7.15184 4.85417 7.04767 5.0026 6.90704 5.14062C6.76902 5.27604 6.59585 5.41927 6.38751 5.57031C6.23126 5.6849 6.11147 5.78125 6.02814 5.85938C5.9448 5.9375 5.88751 6.01562 5.85626 6.09375C5.82762 6.16927 5.81329 6.26172 5.81329 6.37109V6.60547H4.77814ZM4.65314 7.94141C4.65314 7.69661 4.71954 7.52474 4.85236 7.42578C4.98777 7.32682 5.15053 7.27734 5.34064 7.27734C5.52553 7.27734 5.68439 7.32682 5.8172 7.42578C5.95262 7.52474 6.02032 7.69661 6.02032 7.94141C6.02032 8.17578 5.95262 8.34505 5.8172 8.44922C5.68439 8.55339 5.52553 8.60547 5.34064 8.60547C5.15053 8.60547 4.98777 8.55339 4.85236 8.44922C4.71954 8.34505 4.65314 8.17578 4.65314 7.94141Z" fill="#F69421"/>
</g>
<defs>
<clipPath id="clip0_2979_18188">
<rect width="11" height="11" fill="white"/>
</clipPath>
</defs>
</svg>
