<svg width="17" height="18" viewBox="0 0 17 18" fill="none" xmlns="http://www.w3.org/2000/svg">
<g clip-path="url(#clip0_2871_13075)">
<path d="M1.21436 4.09082H2.8334H15.7858" stroke="#868799" stroke-width="1.5" stroke-linecap="round" stroke-linejoin="round"/>
<path d="M14.1666 4.09084V15.5454C14.1666 15.9794 13.996 16.3956 13.6924 16.7025C13.3887 17.0094 12.9769 17.1818 12.5475 17.1818H4.4523C4.0229 17.1818 3.61109 17.0094 3.30746 16.7025C3.00383 16.3956 2.83325 15.9794 2.83325 15.5454V4.09084M5.26182 4.09084V2.45448C5.26182 2.02049 5.4324 1.60427 5.73603 1.2974C6.03966 0.990517 6.45147 0.818115 6.88087 0.818115H10.119C10.5484 0.818115 10.9602 0.990517 11.2638 1.2974C11.5674 1.60427 11.738 2.02049 11.738 2.45448V4.09084" stroke="#868799" stroke-width="1.5" stroke-linecap="round" stroke-linejoin="round"/>
<path d="M6.88086 8.18188V13.091" stroke="#868799" stroke-width="1.5" stroke-linecap="round" stroke-linejoin="round"/>
<path d="M10.1191 8.18188V13.091" stroke="#868799" stroke-width="1.5" stroke-linecap="round" stroke-linejoin="round"/>
</g>
<defs>
<clipPath id="clip0_2871_13075">
<rect width="17" height="18" fill="white"/>
</clipPath>
</defs>
</svg>
