<svg width="17" height="14" viewBox="0 0 17 14" fill="none" xmlns="http://www.w3.org/2000/svg">
<g clip-path="url(#clip0_2562_2407)">
<path d="M12.0417 13.3001V11.9001C12.0417 11.1575 11.7432 10.4453 11.2118 9.9202C10.6804 9.3951 9.95978 9.1001 9.20833 9.1001H3.54167C2.79022 9.1001 2.06955 9.3951 1.5382 9.9202C1.00684 10.4453 0.708332 11.1575 0.708332 11.9001V13.3001" stroke="#2C2C2C" stroke-width="1.5" stroke-linecap="round" stroke-linejoin="round"/>
<path d="M6.375 6.29995C7.93981 6.29995 9.20834 5.04635 9.20834 3.49995C9.20834 1.95355 7.93981 0.699951 6.375 0.699951C4.81019 0.699951 3.54167 1.95355 3.54167 3.49995C3.54167 5.04635 4.81019 6.29995 6.375 6.29995Z" stroke="#2C2C2C" stroke-width="1.5" stroke-linecap="round" stroke-linejoin="round"/>
<path d="M16.2917 13.2999V11.8999C16.2912 11.2795 16.0823 10.6769 15.6976 10.1865C15.313 9.69622 14.7745 9.34602 14.1667 9.19092" stroke="#2C2C2C" stroke-width="1.5" stroke-linecap="round" stroke-linejoin="round"/>
<path d="M11.3333 0.791016C11.9428 0.945226 12.483 1.29551 12.8687 1.78663C13.2545 2.27776 13.4639 2.8818 13.4639 3.50352C13.4639 4.12524 13.2545 4.72927 12.8687 5.2204C12.483 5.71153 11.9428 6.06181 11.3333 6.21602" stroke="#2C2C2C" stroke-width="1.5" stroke-linecap="round" stroke-linejoin="round"/>
</g>
<defs>
<clipPath id="clip0_2562_2407">
<rect width="17" height="14" fill="white"/>
</clipPath>
</defs>
</svg>
