<svg width="478" height="375" viewBox="0 0 478 375" fill="none" xmlns="http://www.w3.org/2000/svg">
<path d="M104.63 136.212C106.044 135.254 107.343 134.438 108.574 133.529C112.643 130.521 117.28 128.825 122.115 127.612C123.758 127.2 124.976 126.343 126.197 125.169C129.4 122.086 132.569 118.89 136.157 116.311C140.274 113.358 144.874 110.981 149.934 110.043C152.271 109.61 154.755 109.973 157.62 109.975C158.993 108.975 159.432 107.268 159.152 105.089C158.934 103.255 158.961 101.399 159.233 99.5712C159.866 95.139 162.83 93.3042 166.347 94.9541C166.549 95.0251 166.759 95.0716 166.971 95.0929C168.511 93.7741 168.527 93.7805 170.168 95.5749C171.909 94.7459 173.516 95.0162 175.064 96.2602C176.554 97.4547 178.195 98.4522 179.721 99.6032C182.244 101.51 182.818 104.051 182.231 107.087C181.977 108.408 181.927 109.904 182.284 111.177C183.06 113.96 181.24 116.901 178.422 117.291C176.962 117.497 175.493 117.627 174.021 117.681C172.647 117.728 171.268 117.617 169.855 117.575C169.277 118.395 168.612 119.274 168.028 120.202C167.805 120.567 167.694 120.99 167.71 121.417C167.795 122.671 167.958 123.919 168.121 125.167C168.297 126.561 168.303 127.871 167.59 129.211C166.837 130.631 166.531 132.278 165.885 133.766C163.974 138.175 160.965 141.804 157.762 145.335C154.471 148.96 151.155 152.535 147.203 155.45C145.773 156.504 144.31 157.522 142.807 158.465C137.991 161.485 132.683 163.525 127.486 165.67C121.97 167.938 116.074 169.257 110.159 170.087C105.705 170.713 101.217 171.053 96.7212 171.105C93.953 171.137 91.1241 170.591 88.4152 169.927C85.34 169.174 82.2495 168.257 79.3731 166.954C74.8424 164.907 71.1647 161.785 68.9295 157.163C68.5743 156.429 67.7977 155.865 67.1322 155.322C66.2829 154.632 65.6954 155.465 64.9662 155.764C63.0171 156.57 61.0463 157.358 58.8434 157.198C55.2375 156.953 53.8276 155.763 53.2256 152.217C53.156 151.78 53.0476 151.303 53.1481 150.889C53.8527 147.961 53.3921 145.011 53.4616 142.072C53.4887 140.708 53.9386 139.331 54.3244 137.997C54.8457 136.238 56.5822 135.759 57.9399 134.971C58.6716 134.548 59.3557 134.322 59.449 133.348C59.4821 133.016 59.7762 132.695 59.9957 132.399C61.6444 130.182 63.265 129.972 65.6856 131.343C67.9164 132.607 68.7311 134.871 69.9769 136.835C70.2495 137.271 70.3553 137.817 70.6472 138.234C70.8778 138.563 71.2771 138.77 71.6025 139.033C71.8023 138.708 71.9356 138.303 72.2132 138.073C73.6615 136.872 75.095 135.641 76.6326 134.561C79.4347 132.594 82.7453 132.395 85.9874 132.255C89.8179 132.088 93.673 132.226 97.361 133.418C99.8623 134.236 102.294 135.307 104.63 136.212Z" fill="white" fill-opacity="0.1"/>
<path d="M278.351 128.86C277.236 127.491 276.227 126.313 275.279 125.079C273.896 123.269 272.324 121.588 271.843 119.209C271.573 117.874 271.586 116.579 272.02 115.359C272.285 114.619 272.898 113.898 273.538 113.415C276.197 111.412 278.932 109.502 281.869 107.923C284.806 106.345 287.847 105.091 291.155 104.826C293.229 104.663 295.356 104.877 297.418 105.191C299.595 105.521 301.36 107.7 301.84 109.837C302.54 112.964 302.127 116.025 301.533 119.293C302.821 119.432 304.069 119.621 305.309 119.672C305.736 119.691 306.336 119.496 306.584 119.181C307.73 117.734 308.778 116.21 309.812 114.78C310.327 114.88 310.719 115.092 310.962 114.981C312.491 114.289 313.839 115.027 315.252 115.382C315.842 115.532 316.488 115.454 317.104 115.48C317.051 113.713 316.906 112.2 316.981 110.68C317.102 108.22 318.219 106.146 319.797 104.296C320.297 103.712 320.96 103.636 321.557 104.253C322.045 104.801 322.467 105.403 322.814 106.049C324.416 108.78 325.286 111.726 325.084 114.902C324.989 116.48 324.692 118.047 324.444 119.611C324.334 120.299 324.485 120.816 325.053 121.244C326.024 121.982 326.959 122.766 328.031 123.625C328.699 122.428 329.294 121.189 330.049 120.044C331.942 117.184 334.222 114.744 337.601 113.609C337.977 113.478 338.395 113.436 338.728 113.24C341.352 111.705 344.303 111.52 347.208 111.139C348.091 111.022 348.75 111.366 349.273 112.107C348.333 122.505 342.882 129.183 332.802 132.105C332.54 132.943 332.2 133.843 331.966 134.767C331.857 135.203 331.816 135.473 331.321 135.752C330.512 136.21 330.421 137.529 330.931 138.325C331.52 139.226 332.041 140.16 332.687 141.011C333.041 141.499 333.511 141.889 334.056 142.147C337.083 143.407 340.129 144.623 343.193 145.795C344.085 146.135 345.071 146.221 345.972 146.544C347.834 147.208 349.723 147.838 351.499 148.694C354.094 149.947 356.345 151.588 357.143 154.634C357.718 156.83 356.744 159.736 354.935 161.123C353.645 162.126 352.493 163.265 351.251 164.309C347.835 167.188 344.4 170.044 340.993 172.921C339.705 174.007 338.594 175.406 337.139 176.164C335.369 177.079 334.063 178.454 332.761 179.791C330.313 182.311 327.613 184.502 324.849 186.639C322.397 188.531 320.052 190.579 317.474 192.282C315.869 193.342 314.448 194.903 312.315 195.027C312.143 195.055 311.98 195.124 311.841 195.228C308.358 197.394 304.664 197.195 300.909 196.187C296.745 195.069 292.789 193.422 288.868 191.639C286.943 190.768 285.191 189.645 283.344 188.648C281.452 187.632 279.531 186.659 277.579 185.764C274.749 184.466 271.87 183.277 269.031 182C266.975 181.076 264.995 179.967 262.902 179.144C257.652 177.084 252.814 174.161 247.655 171.922C245.751 171.096 243.869 170.219 242.01 169.289C239.026 167.799 238.092 165.213 238.381 162.068C238.469 161.233 238.645 160.41 238.905 159.612C239.47 157.814 240.64 156.582 242.287 155.593C245.239 153.827 248.043 151.817 250.922 149.936C251.332 149.668 251.847 149.565 252.305 149.367C252.928 149.092 253.649 148.937 254.133 148.507C254.616 148.077 255.138 147.957 255.682 147.73C256.76 147.279 257.75 146.636 258.764 146.053C259.886 145.408 260.967 144.698 262.113 144.092C263.15 143.538 263.724 142.669 263.973 141.588C264.907 137.519 267.252 134.55 270.641 132.142C272.934 130.487 275.569 129.366 278.351 128.86Z" fill="white" fill-opacity="0.1"/>
<path d="M228.351 86.2108C229.116 87.9233 229.83 89.3877 230.432 90.9022C231.056 92.4742 231.498 94.1236 232.166 95.6739C232.575 96.6114 233.282 97.4406 233.867 98.3088C235.615 100.892 236.804 103.812 237.359 106.882C237.633 108.33 237.757 109.774 237.47 111.254C237.37 111.762 237.512 112.384 237.725 112.873C239.06 115.933 240.378 118.971 242.326 121.752C243.589 123.553 244.293 125.705 243.962 128.031C243.732 129.605 243.087 130.81 241.491 131.389C240.814 131.633 240.275 131.684 239.575 131.35C236.706 129.987 235.035 127.763 234.36 124.688C234.197 123.952 233.754 123.278 233.369 122.417C232.986 122.962 232.646 123.443 232.288 123.915C230.887 125.756 229.637 126.032 227.811 124.592C223.952 121.554 220.089 118.518 216.858 114.764C214.749 112.317 212.438 110.031 210.473 107.476C209.306 105.959 207.869 104.894 206.415 103.754C204.374 102.152 202.426 100.431 200.433 98.7696C199.56 98.0392 198.703 97.3019 197.784 96.648C197.452 96.454 197.057 96.3983 196.684 96.4931C194.757 97.0139 193.243 96.3103 192.048 94.8889C191.214 93.9 190.522 92.7898 189.809 91.7062C189.676 91.5042 189.788 91.1551 189.696 90.9068C189.483 90.3335 189.348 89.6469 188.951 89.238C186.522 86.7972 184.059 84.3868 181.533 82.0455C180.807 81.3727 179.878 80.8802 178.973 80.4514C176.014 79.0451 173.021 77.706 169.851 76.2553C169.218 76.6 168.319 76.9789 167.546 77.5334C164.338 79.8351 160.906 79.9397 157.38 78.5269C154.655 77.4414 152.25 75.8548 150.68 73.2692C150.306 72.6522 150.066 71.9488 149.79 71.2766C149.664 70.9597 149.675 70.5999 149.532 70.3052C147.983 67.2176 148.403 64.197 149.628 61.1118C150.832 58.0737 153.045 56.2017 155.889 54.806C157.392 54.0675 158.731 52.9913 160.127 52.0427C161.234 51.2906 162.254 50.3829 163.427 49.7581C164.852 48.9985 166.399 48.4717 167.884 47.827C168.713 47.468 169.52 47.0569 170.347 46.6932C172.841 45.592 176.971 44.5632 179.115 44.4419C180.061 43.6331 180.742 42.8113 181.617 42.3459C183.258 41.473 185.013 40.8157 186.71 40.0467C187.318 39.7749 187.961 39.5062 188.472 39.1081C191.517 36.7402 195.144 35.2381 198.971 34.7598C203.185 34.1979 207.047 35.1599 210.617 37.4325C210.717 37.4863 210.809 37.5529 210.892 37.6307C213.243 40.2536 215.649 42.8988 215.961 46.6122C216.212 49.611 215.379 52.3135 212.864 54.27C212.461 54.6191 212.076 54.9893 211.711 55.3788C213.396 56.928 214.734 58.8163 215.637 60.9194C216.146 62.0546 216.757 63.1417 217.461 64.1679C217.975 64.9261 218.789 65.4311 219.768 65.2794C221.355 65.0352 222.673 65.608 223.882 66.521C225.643 67.8535 227.366 69.2241 228.509 71.1896C229.02 72.0652 229.757 72.8133 230.248 73.6995C231.395 75.7622 232.088 78.0484 232.017 80.3622C231.934 82.7709 231.193 85.0944 228.351 86.2108Z" fill="white" fill-opacity="0.1"/>
<path d="M314.936 70.296C317.976 72.2996 319.956 74.9154 320.512 78.4814C320.953 81.2834 319.457 83.8798 317.083 85.095C313.458 86.949 309.288 85.9361 306.839 82.8661C305.74 81.4763 304.872 79.9072 303.875 78.4332C303.492 77.8636 303.064 77.3253 302.596 76.8234C301.996 76.1856 301.367 76.06 300.014 76.2476C300.251 76.7169 300.439 77.1481 300.681 77.5471C300.871 77.8592 301.199 78.0996 301.333 78.4272C301.466 78.7549 301.597 79.2401 301.486 79.5706C301.325 80.0311 300.822 79.9699 300.408 79.8529C299.262 79.5264 298.111 79.2053 296.976 78.8539C296.321 78.65 295.675 78.4057 295.041 78.1393C293.723 77.585 293.499 77.7053 292.356 78.6406C290.68 80.0143 289.81 81.9676 288.527 83.619C286.341 86.4361 284.283 89.3801 281.057 91.1753C279.097 92.2669 277.242 93.5777 275.191 94.4348C273.438 95.1635 271.592 95.9566 269.553 95.6199C269.185 95.5591 268.776 95.8235 268.377 95.8823C266.418 96.1764 264.483 96.0127 262.566 95.5484C261.145 95.2048 259.695 94.9622 258.314 94.4892C256.474 93.8702 254.895 92.7217 253.472 91.4395C251.778 89.9121 250.009 88.4093 248.9 86.3576C248.122 84.9183 247.388 83.4459 246.751 81.9385C246.237 80.7216 245.717 79.4603 245.519 78.165C245.084 75.2837 244.715 72.3944 245.113 69.4442C245.501 66.4501 246.456 63.5571 247.926 60.9197C248.592 59.7287 249.177 58.4923 249.861 57.3119C250.218 56.7324 250.632 56.1899 251.097 55.6925C253.032 53.5197 255.242 51.674 257.814 50.3072C258.663 49.8547 259.567 49.5137 260.503 49.2929C262.111 48.9194 263.754 48.689 265.374 48.3916C265.899 48.2939 266.371 48.7419 266.982 48.3531C267.361 48.1159 268.052 48.3302 268.595 48.4131C269.176 48.4993 269.767 48.8318 270.318 48.7633C271.548 48.6102 272.628 49.0321 273.77 49.3168C276.763 50.063 279.261 51.7 281.765 53.4107C283.52 54.6136 285.172 55.8691 286.463 57.5846C288.067 59.7211 289.774 61.7774 291.076 64.126C291.285 64.5025 291.603 64.8169 291.908 65.2073C294.311 63.8393 295.645 61.3685 297.881 59.9864C298.887 61.0713 297.771 61.961 298.064 62.9118C298.321 63.7452 298.14 64.7137 298.155 65.7236L299.773 66.2927C300.112 65.6941 300.567 65.1481 300.749 64.5242C301.393 62.3133 302.96 60.7572 304.413 59.1109C304.564 58.9404 304.745 58.7949 304.901 58.6278C306.79 56.6037 309.249 55.7703 311.894 55.5625C313.288 55.4555 314.727 55.6828 315.843 56.7466C315.876 56.7787 315.912 56.8072 315.951 56.8318C317.34 57.6732 318.338 58.7973 318.589 60.4662C318.778 61.7213 319.062 62.9707 319.139 64.2305C319.167 64.8635 318.945 65.5935 318.629 66.1668C317.391 68.4425 316.988 68.8436 314.936 70.296Z" fill="white" fill-opacity="0.1"/>
<path d="M77.5313 92.2587C77.1022 96.225 76.7598 99.8381 76.3021 103.437C76.0614 105.451 75.6841 107.447 75.1727 109.41C74.9998 110.051 74.1117 110.493 73.5874 111.058C72.516 112.217 71.351 112.528 69.7137 112.211C67.0757 111.705 64.3338 111.732 61.685 111.265C57.1645 110.466 52.6436 109.61 48.1943 108.5C43.4693 107.329 38.7658 105.959 34.1511 104.401C31.068 103.362 27.9372 102.172 25.2158 100.441C22.1216 98.4643 19.3831 95.8716 16.585 93.4416C10.8143 88.4221 8.25246 81.6687 7.41341 74.4424C6.62144 67.6168 8.1272 61.0377 12.6332 55.4687C13.6797 54.1733 14.6716 52.8324 15.6917 51.5166C16.2764 50.7602 16.877 50.0802 17.9815 50.0634C18.3461 50.0567 18.7282 49.7047 19.059 49.4394C19.8608 48.8164 20.5838 48.0859 21.427 47.5289C26.9601 43.8623 33.2269 41.437 39.7945 40.4205C43.095 39.8986 46.3647 39.1316 49.6766 38.7691C52.0802 38.5062 54.5033 38.2255 56.979 38.5396C58.7411 38.7632 60.5695 38.4358 62.3694 38.3712C69.0108 38.1361 75.5668 39.0366 82.1365 39.7496C83.7779 39.9272 85.362 40.5117 87.0031 40.8344C88.5621 41.1415 90.1522 41.3047 91.7102 41.6205C92.77 41.8341 93.7896 42.2345 94.8409 42.4845C95.5678 42.6554 96.3471 42.6277 97.0615 42.8324C101.593 44.1402 106.152 45.3544 110.363 47.59C112.418 48.6759 114.648 49.427 116.722 50.4755C122.854 53.587 128.213 57.6808 131.678 63.7122C134.929 69.3327 136.58 75.7297 136.453 82.2137C136.426 83.9688 136.351 85.7451 136.218 87.5041C136.017 90.1349 135.207 92.6293 134.039 94.9599C132.512 98.0143 130.222 100.625 127.388 102.54C123.417 105.225 119.376 107.88 114.803 109.486C112.612 110.253 110.323 110.759 108.064 111.317C107.649 111.38 107.225 111.295 106.866 111.077C106.184 110.678 105.545 110.303 104.701 110.463C104.411 110.488 104.121 110.41 103.882 110.244C99.3793 107.179 94.4076 104.824 90.261 101.222C86.416 97.8898 82.034 95.3214 77.5313 92.2587Z" fill="white" fill-opacity="0.1"/>
<path d="M60.4173 241.3C60.2602 242.922 60.0469 244.507 58.9111 245.795C58.1936 246.608 57.5125 246.94 56.7594 246.617C55.9488 246.271 55.3878 245.659 55.3604 244.719C55.3367 243.935 55.3807 243.151 55.3614 242.361C55.327 241.957 55.2713 241.554 55.1944 241.156C54.513 241.4 54.0333 241.603 53.5327 241.742C53.0321 241.881 52.4814 242.023 51.9551 242.015C50.9233 242.001 50.2875 241.137 50.6936 240.215C51.0777 239.329 51.6908 238.554 52.196 237.727C52.5636 237.127 53.3876 236.785 53.2109 235.725C52.8584 235.648 52.4509 235.498 52.0381 235.476C48.3524 235.286 44.9368 234.448 41.8255 232.275C39.7325 230.809 37.7085 229.28 35.9458 227.47C34.3177 225.793 33.0233 223.87 32.4374 221.459C31.8015 218.845 31.5426 216.153 31.6686 213.466C31.8046 210.606 32.2073 207.74 33.2033 205.042C33.7531 203.55 34.6836 202.191 35.5006 200.805C36.7275 198.718 38.5299 197.167 40.3441 195.615C41.8131 194.364 43.165 192.967 44.5111 191.58C44.7592 191.325 44.8323 190.8 44.816 190.409C44.7345 188.439 44.7695 186.498 45.53 184.632C45.6169 184.362 45.6214 184.072 45.5429 183.799C44.9437 181.381 44.3842 178.962 44.3757 176.445C44.3732 175.821 44.1393 175.199 44.1206 174.573C44.0749 173.076 44.0704 171.576 44.1027 170.078C44.1218 168.958 44.6575 168.364 45.8221 168.029C46.8291 167.739 47.7387 168.142 48.3726 168.903C50.024 170.893 50.6291 173.315 51.3476 175.699C51.447 176.076 51.6041 176.434 51.8132 176.763C53.6412 179.423 54.7275 182.38 55.3267 185.526C55.4651 186.25 55.7402 186.85 56.3989 187.163C58.5151 188.169 60.2785 189.793 62.5192 190.581C64.1679 191.164 65.7526 191.948 67.4304 192.408C69.9389 193.097 72.2704 194.138 74.5511 195.346C75.6722 195.94 76.8855 196.368 77.948 197.049C80.8236 198.862 83.3677 201.104 85.2289 203.947C87.3169 207.133 88.7811 210.586 88.4004 214.556C88.3259 215.282 88.3288 216.014 88.4091 216.74C88.6593 218.862 87.9966 220.853 87.2892 222.743C86.6052 224.572 85.5337 226.231 84.1484 227.607C83.0589 228.681 81.7861 229.587 80.5205 230.46C79.2299 231.349 77.7416 231.831 76.2055 232.151C75.7358 232.241 75.308 232.481 74.9863 232.835C76.0084 232.987 77.0508 233.066 78.0482 233.314C78.7985 233.506 79.5143 233.814 80.1699 234.226C80.9088 234.688 81.3759 235.415 81.1615 236.337C80.992 237.075 79.8861 237.716 78.9458 237.755C78.6511 237.766 78.3564 237.797 78.0616 237.788C77.3142 237.767 77.0422 238.318 76.8469 238.868C76.6516 239.419 76.9875 239.761 77.4412 240.045C77.8465 240.319 78.2253 240.63 78.5725 240.975C79.5149 241.855 79.7732 243.432 79.0286 244.465C78.8669 244.667 78.6666 244.835 78.4393 244.958C78.2119 245.082 77.9622 245.158 77.7049 245.184C75.9098 245.25 74.1913 244.912 72.7863 243.73C72.6478 243.751 72.5328 243.731 72.4681 243.783C70.7047 245.128 69.408 244.863 68.2493 242.962C67.549 241.814 66.9837 240.512 65.2247 239.999C65.8664 241.24 66.3071 242.353 66.9712 243.298C67.453 243.984 67.6297 244.683 67.7654 245.459C67.9161 246.271 68.1448 247.067 68.3935 248.087C68.2624 248.299 68.1437 248.519 68.0379 248.744C67.2681 250.485 65.8565 250.598 64.1786 249.359C63.1585 248.606 62.6262 247.45 62.184 246.318C61.7268 245.141 61.4373 243.89 61.0802 242.67C60.9472 242.216 60.8333 241.756 60.7106 241.299L60.4173 241.3Z" fill="white" fill-opacity="0.1"/>
<path d="M370.658 91.5419C370.839 90.5814 370.948 90.0185 371.047 89.4554C373.567 89.7112 375.457 88.3988 376.054 85.9762C376.952 82.3224 377.746 78.6402 378.766 75.0133C379.561 72.2021 380.572 69.4478 381.611 66.7174C382.052 65.5531 383.039 64.8126 384.359 64.7223C386.553 64.5716 387.715 65.635 387.895 67.8878C387.948 68.5413 388.058 69.1901 388.179 70.0898C389.242 68.6399 390.261 67.4131 391.092 66.0828C392.453 63.8904 394.359 63.0416 397.158 63.4275C397.37 63.9857 397.647 64.6747 397.89 65.3758C397.986 65.653 397.903 66.054 398.073 66.233C399.097 67.2999 398.843 68.2486 397.907 69.1862C397.781 69.3106 397.681 69.4596 397.615 69.6241C396.933 71.3838 396.262 73.1473 395.582 74.9305C396.431 74.6967 397.3 74.364 398.198 74.2301C399.664 74.0119 400.516 74.7086 400.577 76.1971C400.703 79.2642 399.351 81.5901 396.782 83.2234C394.875 84.4418 392.98 85.6838 391.066 86.8896C390.114 87.4898 389.19 88.2653 388.14 88.5558C386.185 89.0974 384.659 90.4923 382.849 91.1152C381.101 91.6975 379.408 92.4363 377.793 93.3225C377.17 93.6747 376.55 94.027 375.963 94.441C373.985 95.8099 373.414 98.6278 374.684 100.641C375.307 101.63 376.004 101.806 377.034 101.214C377.137 101.156 377.217 101.007 377.312 100.992C381.603 100.387 385.944 99.1759 390.079 101.525C391.332 102.236 392.473 103.127 393.468 104.17C396.335 107.207 398.652 110.612 399.685 114.745C400.092 116.373 400.41 118.027 400.831 119.652C400.987 120.251 401.326 120.802 401.574 121.379C401.635 121.524 401.749 121.742 401.698 121.828C400.976 122.967 401.76 123.607 402.498 124.222C406.418 127.489 408.504 131.877 410.261 136.524C411.615 140.102 412.121 143.831 412.677 147.556C412.757 148.262 413.052 148.927 413.521 149.459C415.335 151.543 416.979 153.821 417.933 156.396C418.752 158.627 419.742 160.855 419.669 163.335C419.617 165.001 419.596 166.722 420.712 168.139C421.111 168.638 421.593 169.065 422.137 169.4C423.762 170.39 425.445 171.282 427.07 172.273C427.489 172.516 427.828 172.876 428.044 173.31C428.26 173.744 428.343 174.232 428.284 174.713C428.213 175.575 427.678 175.994 426.827 175.876C422.992 175.341 419.884 173.42 417.091 170.843C415.323 169.211 414.272 167.108 413.443 164.964C413.005 163.831 412.362 163.391 411.412 163.002C409.648 162.276 407.8 161.691 406.166 160.733C402.509 158.604 399.654 155.664 398.094 151.647C397.63 150.458 396.938 149.704 395.697 149.222C393.478 148.361 391.342 147.281 389.188 146.26C388.846 146.096 388.571 145.772 388.297 145.492C387.712 144.893 387.192 144.215 386.57 143.666C383.272 140.709 380.542 137.367 379.276 133.024C379.046 132.233 378.611 131.848 377.856 131.418C373.922 129.186 370.555 126.27 368.08 122.427C367.96 122.226 367.872 122.007 367.82 121.779C366.778 117.686 366.628 113.589 368.233 109.624C368.83 108.152 369.909 106.875 370.778 105.511C371.122 104.975 371.495 104.439 371.936 103.788C369.935 102.115 368.037 100.524 366.138 98.937C365.314 98.2497 364.432 97.6211 363.673 96.8697C362.391 95.6009 360.798 94.9392 359.137 94.4372C356.045 93.5046 352.93 92.6474 349.82 91.7723C346.657 90.8803 343.461 90.0851 340.33 89.0925C337.997 88.3541 336.177 86.7391 334.53 85.0002C333.073 83.464 333.744 81.3832 335.794 80.8176C336.649 80.584 337.543 80.4932 338.646 80.2972C338.26 79.7871 338.033 79.2791 337.642 79.0214C336.24 78.072 335.526 76.6071 334.738 75.2224C334.134 74.1648 333.801 72.9143 334.634 71.8346C335.492 70.7264 336.636 70.3578 338.139 70.6198C340.081 70.9616 341.778 71.7978 343.442 72.7327C345.105 73.6676 346.669 74.7796 348.327 75.7271C348.84 76.0207 349.517 76.0299 350.302 76.2136C350.266 75.5586 350.25 75.1652 350.219 74.7699C350.136 73.7247 350.094 72.5809 351.137 72.0487C352.268 71.4743 353.605 71.2093 354.688 72.167C356.113 73.4269 357.444 74.799 358.779 76.1551C359.44 76.824 359.961 77.6461 360.672 78.2507C361.388 78.8574 361.988 79.5881 362.445 80.4079C363.149 81.631 364.186 82.6584 365.094 83.7562C365.846 84.6679 366.676 85.5122 367.359 86.4663C367.808 87.0927 368.028 87.8765 368.412 88.5597C368.952 89.5443 369.424 90.5821 370.658 91.5419Z" fill="white" fill-opacity="0.1"/>
<path d="M-11.8111 214.177C-9.56605 216.007 -7.19996 217.759 -5.0445 219.737C-0.264184 224.121 4.40743 228.618 9.12703 233.065C9.49553 233.408 9.88486 233.728 10.2928 234.024C16.3924 238.505 22.5106 242.959 28.5944 247.462C32.2004 250.132 35.6816 252.977 39.3475 255.562C46.1021 260.327 52.2149 265.892 58.736 270.945C60.4281 272.256 62.0946 273.613 63.8743 274.791C65.8295 276.087 66.2093 278.027 65.7638 279.946C65.0213 283.151 64.5342 286.424 63.0908 289.478C61.2566 293.363 58.9524 296.784 55.601 299.524C51.9145 302.531 48.1114 305.354 43.7176 307.224C38.7804 309.32 33.7046 310.678 28.2173 310.279C24.0923 309.968 20.001 309.307 15.9876 308.303C13.9256 307.79 11.8731 307.238 9.82995 306.645C9.45848 306.536 9.20286 306.067 8.83705 305.871C7.26569 305.031 5.71527 304.129 4.07947 303.438C-0.341888 301.569 -3.95091 298.492 -7.62127 295.546C-9.51422 294.027 -11.1672 292.154 -12.7085 290.262C-14.7572 287.752 -16.5625 285.043 -18.5242 282.458C-21.2553 278.842 -23 274.71 -24.6008 270.546C-27.0304 264.221 -27.9018 257.641 -27.5431 250.838C-27.2979 246.131 -26.6539 241.509 -25.2868 237.062C-23.354 230.79 -20.7135 224.78 -16.9396 219.342C-16.2858 218.397 -15.6089 217.47 -14.9339 216.53C-13.8675 215.022 -13.8675 215.022 -11.8111 214.177Z" fill="white" fill-opacity="0.1"/>
<path d="M432.582 88.4081C432.43 87.9065 432.375 87.5962 432.246 87.3212C431.839 86.4564 431.82 85.534 431.744 84.6077C431.67 83.9141 431.524 83.2302 431.307 82.5672C431.093 81.8615 430.781 81.1862 430.527 80.4872C430.394 80.1084 430.347 79.7317 430.769 79.4292C432.053 79.5095 432.556 80.616 433.277 81.4246C433.744 81.9481 434.16 82.518 434.589 83.0731C434.863 83.4262 435.107 83.8028 435.389 84.1487C435.606 84.4161 435.862 84.6535 436.198 85.0062C436.361 84.3854 436.438 83.8605 436.635 83.3864C437.116 82.2337 437.653 81.106 438.165 79.9669C438.347 79.563 438.537 79.1619 438.696 78.7483C439.056 77.8287 439.384 76.8938 439.75 75.9771C439.872 75.6711 440.116 75.3504 440.469 75.4706C440.755 75.5896 440.984 75.8137 441.109 76.0967C441.263 76.4724 441.284 76.9064 441.336 77.3202C441.454 78.2002 441.501 79.0992 441.686 79.9667C441.903 80.9898 442.236 81.9875 442.573 83.1896C442.954 82.7836 443.226 82.529 443.459 82.2421C444.69 80.7231 446.174 79.5228 447.955 78.7098C448.951 78.256 449.865 77.7338 450.665 76.9466C451.336 76.286 452.193 75.8155 452.97 75.2627C453.053 75.2059 453.138 75.1299 453.223 75.1284C453.498 75.1235 453.851 75.0522 454.026 75.1921C454.202 75.3319 454.254 75.7058 454.207 75.9476C454.134 76.3914 453.986 76.8196 453.77 77.214C452.821 78.8358 452.301 80.582 451.959 82.4243C451.71 83.8086 451.265 85.1616 450.764 86.478C450.43 87.3599 449.858 88.1525 449.376 89.0159C449.492 89.0273 449.614 89.0478 449.737 89.0505C451.016 89.0783 452.296 89.0884 453.576 89.1345C455.061 89.1868 456.541 89.3384 458.035 89.1871C458.466 89.1435 458.952 89.3447 459.37 89.5353C459.847 89.7507 459.878 90.3247 459.403 90.6132C458.836 90.9585 458.222 91.295 457.585 91.4369C456.668 91.6416 455.854 92.0069 455.239 92.6744C454.344 93.6465 453.176 94.1827 452.086 94.8419C451.276 95.3323 450.418 95.7375 449.495 96.2343C449.62 96.3228 449.753 96.4011 449.891 96.4683C451.191 96.9239 452.484 97.4057 453.799 97.814C454.63 98.0718 455.529 98.1335 456.335 98.4439C456.873 98.6504 457.337 99.1022 457.765 99.5152C457.975 99.7186 457.82 100.024 457.53 100.122C457.239 100.219 456.892 100.347 456.595 100.31C454.684 100.086 452.843 100.664 450.962 100.762C450.041 100.812 449.127 100.946 448.214 100.7C448.11 100.672 447.983 100.732 447.678 100.787C447.993 101.14 448.202 101.4 448.44 101.633C448.678 101.867 448.923 102.055 449.169 102.263C449.943 102.92 450.35 103.711 450.267 104.769C450.157 106.201 450.174 107.646 450.045 109.076C449.929 110.359 450.282 111.532 450.603 112.74C450.939 114.005 451.126 115.309 451.386 116.594C451.482 117.072 451.565 117.567 451.727 118.027C451.842 118.351 451.73 118.581 451.591 118.828C451.194 119.533 450.788 120.179 450.012 120.606C448.469 121.458 446.995 122.425 445.5 123.36C445.353 123.452 445.164 123.637 445.164 123.778C445.165 124.651 444.665 125.37 444.31 126.066C443.685 127.29 442.914 128.498 441.38 128.875C440.672 129.051 439.986 129.367 439.331 129.701C438.115 130.318 437.011 130.025 435.964 129.359C435.387 128.992 434.771 128.706 434.236 128.237C432.855 127.037 431.348 127.311 429.847 128.093C429.168 128.449 428.479 128.79 427.773 129.081C427.391 129.252 426.978 129.343 426.56 129.347C426.128 129.332 425.591 129.266 425.296 129.002C424.67 128.455 424.127 127.818 423.686 127.112C423.021 126.003 422.167 125.067 421.25 124.191C420.688 123.648 419.955 123.316 419.176 123.251C417.679 123.125 416.181 122.998 414.689 122.83C414.123 122.773 413.568 122.642 413.036 122.442C412.739 122.325 412.375 122.019 412.31 121.736C412.104 120.837 411.671 120.015 411.648 119.044C411.609 117.419 411.393 115.788 411.19 114.168C411.071 113.249 410.646 112.435 409.845 111.921C408.956 111.35 408.456 110.465 407.865 109.65C407.809 109.573 407.787 109.465 407.72 109.403C406.274 108.038 406.626 106.482 407.209 104.884C407.713 103.505 408.178 102.112 408.67 100.729C408.949 99.9434 408.899 99.1532 408.755 98.3562C408.704 98.073 408.617 97.7905 408.612 97.5056C408.598 96.8593 408.624 96.2079 408.295 95.6206C407.906 94.9292 408.201 94.22 408.4 93.6175C408.905 92.0754 409.568 90.5826 410.201 89.0846C410.372 88.6768 410.685 88.4639 411.183 88.3088C412.59 87.8717 413.984 87.7841 415.446 87.8469C416.56 87.8899 417.674 87.7638 418.75 87.4727C419.657 87.2273 420.498 86.6899 421.327 86.2098C422.519 85.522 423.641 84.7144 424.851 84.0663C425.512 83.7123 426.243 84.006 426.826 84.4065C428.147 85.3157 429.421 86.2904 430.729 87.2188C431.267 87.6024 431.84 87.9365 432.582 88.4081Z" fill="white" fill-opacity="0.1"/>
<path d="M107.504 310.126C105.594 309.711 103.759 309.261 101.903 308.937C101.168 308.808 100.323 308.773 99.6313 309.007C97.4304 309.754 95.1897 309.491 93.1565 308.836C91.7896 308.396 90.5168 307.112 89.6191 305.897C88.2025 303.977 87.6023 301.761 88.4656 299.301C88.6824 298.678 88.3974 297.737 88.0588 297.091C86.4701 294.054 85.6337 290.801 85.0534 287.456C84.7733 285.848 84.3859 284.258 84.1621 282.644C83.9731 281.461 83.914 280.26 83.9859 279.064C84.2172 276.267 84.4481 273.458 84.9548 270.703C85.3236 268.778 85.9305 266.907 86.7613 265.132C88.0685 262.303 89.422 259.455 91.1255 256.861C93.6737 252.985 96.9043 249.659 100.315 246.497C103.159 243.86 106.637 242.488 110.078 240.977C113.52 239.465 117.097 238.605 120.752 237.947C123.326 237.497 125.96 237.511 128.53 237.988C130.708 238.38 132.906 238.679 135.104 238.922C135.627 238.979 136.244 238.739 136.731 238.476C138.213 237.671 139.565 236.563 141.121 235.981C145.807 234.219 149.697 234.941 152.195 238.729C153.405 240.564 153.851 242.602 152.965 244.758C152.868 244.996 152.713 245.275 152.758 245.499C153.028 246.871 152.375 248.024 151.885 249.191C151.301 250.581 151.279 251.86 151.808 253.343C152.905 256.397 154.029 259.484 154.652 262.647C155.497 266.963 155.228 271.347 154.23 275.652C153.685 278.001 153.216 280.376 152.503 282.672C151.329 286.452 149.177 289.695 146.744 292.796C143.957 296.36 140.875 299.581 137.325 302.396C131.45 307.023 124.625 309.235 117.42 310.25C114.181 310.717 110.794 310.2 107.504 310.126Z" fill="white" fill-opacity="0.1"/>
</svg>
