<svg width="194" height="259" viewBox="0 0 194 259" fill="none" xmlns="http://www.w3.org/2000/svg">
<path d="M60.6466 145.743C59.1618 145.088 57.5319 146.022 55.9062 146.401C49.4036 147.921 42.8519 148.693 36.1625 148.431C32.5092 148.277 28.8504 148.305 25.1999 148.516C23.1802 148.632 21.1812 149.281 19.2006 149.797C17.998 150.11 17.5653 151.019 17.8361 152.242C17.8931 152.501 18.0192 152.742 18.0959 152.993C18.7535 155.156 18.3062 156.648 16.6494 157.949C15.3873 158.934 12.2984 158.963 10.973 157.909C9.92261 157.071 8.97563 156.324 9.17547 154.538C9.40101 152.606 8.96104 150.569 8.60991 148.613C8.41808 147.543 8.02581 146.37 7.34564 145.556C6.34486 144.362 5.4424 143.203 5.08472 141.655C4.99082 141.242 4.60211 140.897 4.29945 140.444C5.02939 138.884 6.09677 137.684 7.92049 137.193C9.91751 136.62 12.0422 136.667 14.0114 137.33C14.592 137.528 15.0177 138.308 15.4043 138.896C15.646 139.264 15.7226 139.76 15.8087 140.211C15.9932 141.187 16.5489 141.579 17.5193 141.375C19.9196 140.874 22.3641 140.513 24.7072 139.818C26.7745 139.206 28.7278 138.215 30.7331 137.398C30.8546 137.349 31.0707 137.379 31.1131 137.314C31.9498 135.832 33.372 135.4 34.8762 134.826C36.3804 134.251 37.81 133.181 38.9222 131.993C41.1752 129.629 43.9854 127.995 46.5112 126.018C49.1959 123.911 51.592 121.525 53.8661 119.074C55.168 117.667 57.1919 116.822 57.7437 114.744C59.7932 113.72 60.7429 111.729 61.8991 109.948C63.1036 108.117 64.2102 106.223 65.2143 104.275C65.5907 103.537 65.4985 102.562 65.6327 101.62C65.8162 101.64 66.1065 101.669 66.4957 101.711C68.4721 97.5 70.5661 93.3128 71.8584 88.7795C72.1304 87.8297 72.7165 86.9718 73.1331 86.0617C73.7094 84.7923 74.2792 83.5133 73.8914 82.4173C74.6049 81.338 75.2024 80.5415 75.7012 79.6667C78.2706 75.2081 80.1756 70.3496 83.4661 66.3357C84.3107 65.305 84.7497 64.2615 85.1772 63.0887C85.7338 61.5464 86.9461 60.7746 88.5234 60.668C89.8509 60.5703 91.1839 60.5747 92.5107 60.6812C94.9659 60.8903 96.299 62.4262 96.7736 64.8915C97.1936 67.068 97.8864 69.2148 98.5364 71.35C99.5774 74.7751 100.914 78.1552 100.831 81.7928C100.75 85.3544 100.439 88.9151 100.159 92.4681C100.002 94.4496 99.4509 96.3937 99.5888 98.4063C99.5959 98.5299 99.6369 98.7196 99.5739 98.7732C97.8982 100.164 98.4748 102.347 97.7228 104.081C97.3246 104.998 96.8046 105.958 97.019 107.176C97.2029 108.212 95.4849 108.38 95.3729 109.671C95.2774 110.729 94.5176 111.735 94.0228 112.749C93.1263 114.585 92.1414 116.382 91.3087 118.246C90.5217 119.959 89.561 121.587 88.4416 123.104C86.9463 125.191 85.6142 127.398 84.0348 129.417C82.5319 131.337 80.9419 133.241 79.1371 134.861C77.3301 136.49 75.3468 137.913 73.2241 139.104C69.8155 140.996 66.4867 143.091 62.671 144.179C62.0106 144.371 61.488 145.075 60.6466 145.743Z" fill="white" fill-opacity="0.1"/>
<path d="M70.5518 172.216C71.6994 170.663 72.9843 169.186 73.97 167.529C75.8454 164.38 77.4675 161.081 79.3598 157.941C80.3299 156.328 81.5953 154.881 82.834 153.452C83.3103 152.904 84.0897 152.601 84.7575 152.171C86.6165 153.229 87.9778 154.708 89.3343 156.174C89.9887 156.88 89.8651 157.88 89.1169 158.752C87.7344 160.368 86.2971 161.94 84.8744 163.522C83.781 164.741 82.6822 165.934 81.553 167.176C81.9651 167.7 82.5754 167.528 83.1253 167.452C83.5299 167.379 83.921 167.244 84.2848 167.053C87.0962 165.693 90.0853 165.384 93.1367 165.657C95.4855 165.862 97.7859 166.442 99.9502 167.375C102.064 168.286 104.2 169.127 106.12 170.391C108.597 171.996 110.669 174.152 112.173 176.69C113.279 178.571 113.757 180.633 114.385 182.513C112.164 183.635 110.179 184.752 108.105 185.662C103.782 187.564 99.3019 188.649 94.5157 187.983C93.3112 187.816 92.0728 187.926 90.6416 187.903C91.4363 189.78 92.3033 191.452 92.8267 193.224C93.122 194.221 92.8616 195.385 92.8314 196.473C92.7575 199.293 91.8908 201.892 90.6915 204.421C89.5637 206.795 87.9798 208.844 86.2501 210.776C84.7167 212.487 83.1972 214.281 81.3785 215.647C78.9905 217.441 76.3336 218.882 73.7549 220.412C72.2791 221.304 70.7537 222.111 69.186 222.83C67.3224 223.665 65.379 224.326 63.484 225.091C63.0018 225.27 62.555 225.533 62.1643 225.867C59.4158 228.42 56.2429 229.907 52.4613 230.302C48.7698 230.687 45.8406 229.077 42.9011 227.279C41.2968 226.298 40.055 225.084 39.2167 223.339C38.8971 222.67 37.9196 222.241 37.1591 221.879C36.4816 221.555 35.6918 221.438 34.9429 221.292C32.7997 220.888 30.8603 220.184 29.4724 218.337C28.8042 217.449 27.9259 216.719 27.1646 215.899C26.4603 215.127 26.0225 214.149 25.9158 213.11C25.8995 212.933 25.8543 212.76 25.7819 212.597C24.2293 209.512 24.8257 206.432 25.5976 203.271C25.9511 201.828 25.772 200.243 25.7051 198.728C25.6724 197.996 25.5572 197.316 25.6631 196.541C25.7952 195.607 26.2133 194.488 25.2975 193.561C25.1572 193.419 25.6912 192.72 25.7482 192.258C26.0056 190.173 25.843 187.949 26.538 186.029C27.1367 184.378 27.2155 182.585 28.1264 181.01C29.0147 179.488 29.519 177.75 30.3275 176.178C31.1559 174.537 32.0831 172.949 33.1039 171.421C34.0973 169.955 35.374 168.68 36.3433 167.203C37.0858 166.072 37.9917 165.418 39.259 164.983C40.2413 164.643 41.0753 163.889 41.9883 163.336C43.5165 162.411 45.0924 161.638 46.9661 161.811C47.2047 161.83 47.4446 161.804 47.6741 161.737C50.1457 161.037 52.5822 161.579 55.0277 161.893C55.1441 161.909 55.2854 162.01 55.3662 161.971C56.8289 161.257 57.7573 162.237 58.7692 162.999C59.0141 163.167 59.286 163.292 59.5732 163.368C61.1139 163.836 62.2774 164.901 63.4754 165.874C64.0587 166.346 64.4417 166.973 65.3513 167.055C65.7438 167.089 66.0336 167.887 66.4296 168.276C67.6877 169.508 68.9762 170.715 70.5518 172.216Z" fill="white" fill-opacity="0.1"/>
<path d="M153.888 17.3297C153.832 16.8051 153.842 16.3638 153.732 15.9552C152.952 13.0396 152.658 10.1081 153.001 7.08105C153.204 5.29339 153.321 3.49897 153.836 1.77435C154.008 1.19685 154.323 0.484273 154.79 0.221978C155.298 -0.0628323 156.093 -0.0403231 156.701 0.103771C158.435 0.512411 159.892 1.45465 161.233 2.63892C163.543 4.65057 165.644 6.89176 167.502 9.32802C167.791 9.71077 168.04 10.1262 168.32 10.5461C168.694 10.0845 169.048 9.60833 169.444 9.16929C170.221 8.30473 171.218 8.1944 172.048 9.6027C172.161 9.79778 172.252 10.0042 172.321 10.2185C173.109 12.5645 174.774 14.3589 176.134 16.3436C176.397 16.7275 176.69 17.0911 177.006 17.5121C177.182 17.4676 177.353 17.4073 177.518 17.332C179.495 16.2062 181.104 16.9503 181.427 19.1658C181.556 20.0506 181.539 20.9568 181.687 21.8394C181.787 22.454 182.024 23.0496 182.232 23.6406C182.794 25.2369 183.305 26.8309 182.834 28.5578C182.757 28.8392 182.811 29.1544 182.793 29.4584C182.729 30.5312 182.659 31.6029 182.582 32.8356C183.501 32.3189 184.077 31.5972 184.685 30.9601C185.902 29.6824 187.251 28.5724 188.66 27.5322C189.518 26.8973 189.917 26.841 191.153 26.8782C191.277 27.0842 191.42 27.3285 191.579 27.5941C192.636 27.2013 193.65 26.8061 194.675 26.4459C196.431 25.8245 198.193 25.2211 199.959 24.6121C200.345 24.4781 200.753 24.3937 201.116 24.2158C202.358 23.6048 203.7 23.2234 205.078 23.0901C205.333 23.0638 205.591 23.0691 205.846 23.1058C207.27 23.3242 207.56 23.8308 206.763 25.0466C206.186 25.9269 205.439 26.7194 204.665 27.441C203.765 28.2752 202.78 29.0171 201.796 29.7443C201.121 30.2486 200.357 30.6449 199.659 31.1334C199.311 31.3789 199.028 31.7177 198.638 32.0881C199.06 32.3965 199.362 32.5958 199.639 32.8265C200.281 33.3601 200.3 33.9602 199.675 34.5151C198.181 35.8435 196.446 36.7565 194.577 37.4296C193.484 37.8237 192.452 38.2954 191.516 39.026C190.67 39.6868 189.681 40.1674 188.772 40.7517C188.345 41.0264 187.955 41.3607 187.557 41.6613C188.599 43.1619 188.378 43.9128 186.796 44.5882C186.563 44.7049 186.313 44.7828 186.055 44.819C184.275 44.9405 182.503 45.2951 180.71 44.8854C179.922 44.7053 179.088 44.6895 178.291 44.5229C177.353 44.3281 176.411 44.0872 175.748 43.1427C175.748 43.3116 175.689 43.5097 175.757 43.6459C176.62 45.4077 176.737 47.2089 176.076 49.0551C175.888 49.5808 175.731 50.1302 175.45 50.6041C175.201 51.0217 174.801 51.3482 174.461 51.7208C174.461 52.3827 174.489 53.0571 174.461 53.728C174.395 55.0147 173.449 55.6023 172.28 55.0316C171.718 54.7569 170.953 54.6939 170.797 53.8214C170.761 53.6222 170.273 53.5051 169.955 53.3284C169.786 53.4252 169.549 53.4927 169.415 53.6481C168.09 55.1847 166.367 56.1247 164.58 56.9904C163.301 57.6118 162.331 56.8384 162.573 55.5382C162.649 55.1374 162.667 54.7243 162.769 54.3303C163.062 53.182 163.388 52.0428 163.692 50.8968C163.719 50.7989 163.673 50.6806 163.656 50.5208C162.993 50.4499 162.331 50.3553 161.667 50.3148C161.383 50.3098 161.108 50.2176 160.879 50.0506C160.649 49.8837 160.477 49.6501 160.385 49.3816C160.16 48.7928 160.401 48.2322 160.851 47.8719C161.365 47.461 161.976 47.1706 162.553 46.8419C162.746 46.7293 163.009 46.7158 163.163 46.574C164.266 45.5608 165.585 44.8854 166.842 44.1086C166.966 44.0321 167.099 43.9702 167.299 43.8621L163.901 42.9165C163.495 41.9967 162.609 41.551 161.789 41.0579C160.327 40.1787 158.753 39.4627 157.37 38.4687C156.265 37.6807 155.367 36.5899 154.4 35.6105C153.774 34.9756 153.202 34.29 152.589 33.6427C152.027 33.0461 151.451 32.4686 151.219 31.6355C150.962 30.718 151.233 29.9976 152.059 29.5687C152.091 29.5518 152.131 29.5473 152.164 29.5315C153.963 28.6625 153.95 28.6658 153.334 26.7848C153.148 26.2219 153.042 25.6297 152.891 25.0545C152.675 24.2383 152.441 23.4582 152.021 22.6837C151.446 21.6221 151.085 20.3985 150.859 19.2018C150.618 17.9252 151.251 17.3421 152.561 17.3308C152.925 17.3275 153.299 17.3297 153.888 17.3297Z" fill="white" fill-opacity="0.1"/>
<g clip-path="url(#clip0_2658_1340)">
<path d="M158.12 221.7C157.529 219.66 156.779 217.746 155.393 216.106C152.642 212.847 149.96 209.531 147.278 206.217C146.231 204.922 145.867 203.37 146.42 201.82C146.949 200.331 148.374 199.633 149.695 198.924C149.747 198.898 149.805 198.884 149.863 198.884C149.921 198.884 149.978 198.897 150.031 198.923C151.508 200.174 153.849 200.126 154.676 202.469C155.316 204.283 156.574 205.879 157.553 207.573C157.817 208.029 158.066 208.479 158.31 208.937C159.508 211.197 160.698 213.459 161.944 215.813C162.264 215.278 162.69 214.784 162.871 214.218C163.675 211.801 165.529 209.968 166.461 207.622C166.926 206.45 167.529 205.329 167.975 204.149C168.489 202.798 168.902 201.409 169.353 200.033C169.77 198.766 170.443 198.054 171.125 198.163C171.765 198.266 172.539 199.272 172.54 200.371C172.542 202.853 172.414 205.339 172.345 207.815C172.343 208.037 172.312 208.25 172.285 208.566C173.285 208.397 174.192 208.234 175.105 208.093C175.562 208.015 176.024 207.967 176.487 207.947C178.145 207.902 178.814 208.873 177.96 210.235C177.044 211.696 175.97 213.057 174.961 214.46C174.797 214.688 174.611 214.903 174.268 215.333C174.801 215.254 175.124 215.267 175.403 215.157C177.191 214.47 178.844 213.472 180.286 212.211C181.714 210.963 183.34 209.991 184.597 208.485C185.359 207.569 186.675 207.084 187.803 206.522C188.029 206.42 188.275 206.366 188.523 206.364C188.771 206.362 189.018 206.411 189.246 206.509C189.793 206.805 189.789 207.41 189.546 208.038C188.729 210.271 187.872 212.469 186.288 214.301C185.951 214.69 185.682 215.137 185.296 215.679C186.218 216.02 187.048 216.358 187.902 216.639C188.164 216.706 188.44 216.698 188.697 216.615C189.796 216.295 190.893 215.64 191.976 215.672C193.472 215.717 194.028 215.697 195.484 216.143C196.297 216.396 197.279 217.15 197.984 217.643C198.938 218.309 200.56 219.016 201.711 218.313C201.948 218.17 203.313 219.153 203.984 219.143L201.692 220.171C203.689 222.689 204.911 225.607 204.256 229.13C204.666 229.411 205.075 229.71 205.502 229.981C207.477 231.234 208.741 232.993 209.418 235.233C209.854 236.677 210.368 238.078 210.239 239.631C210.187 240.269 210.337 240.855 211.187 241.027C211.587 241.11 211.914 241.542 212.352 241.874C211.5 242.789 211.714 243.578 212.409 244.493C214.035 246.639 214.509 249.172 214.557 251.865C215.18 252.387 216.441 252.363 216.303 253.804L214.434 253.706C213.538 255.161 212.674 256.583 211.784 257.989C211.571 258.323 195.815 227.839 195.484 228C194.984 243 185.484 249.5 185.484 250C174.984 259.5 161.984 257.5 160.984 258C160.573 258.781 191.434 485.203 191.586 486.121C191.729 486.99 191.551 487.943 191.367 488.827C190.562 492.694 188.854 495.865 185.037 497.668C183.374 498.451 181.807 499.389 179.833 499.655L180.175 502.319C179.793 502.393 179.319 502.634 179.016 502.5C177.964 501.991 178.151 501.034 178.45 499.919C175.613 499.689 172.935 498.509 170.849 496.571L167.772 499.446L166.65 498.703C162.97 500.16 159.405 499.696 156.203 497.386C155.291 497.739 155.246 499.177 153.958 498.662C153.564 497.604 154.648 496.925 154.736 495.913C153.987 494.423 152.177 493.373 152.614 490.933C151.741 491.386 151.153 491.726 150.542 492.023C149.869 492.353 149.18 492.651 148.439 492.985C148.573 493.59 148.772 494.138 148.789 494.695C148.793 494.958 148.495 495.313 148.237 495.466C148.071 495.566 152.614 503.726 147.484 495.307C145.987 493.591 161.867 257.969 160.984 258C161.177 258.815 161.882 257.968 160.984 258C153.484 258.5 149.484 258.5 148.484 258.5C148.984 258.5 149.484 258.5 148.484 258.5L147.816 258.325C144.886 256.094 144.037 252.534 142.545 249.43C141.853 249.716 141.061 250.043 140.27 250.374C139.04 250.882 137.83 251.435 136.589 251.906C135.67 252.252 134.73 252.543 133.776 252.776C132.851 253.003 131.813 252.563 131.524 251.928C131.21 251.237 131.524 250.219 132.228 249.606C133.884 248.168 135.584 246.775 137.176 245.268C137.998 244.489 138.631 243.508 139.347 242.615C139.492 242.435 139.623 242.243 139.756 242.053L144.332 235.445C144.091 235.344 143.842 235.262 143.589 235.197C142.74 235.023 141.86 234.951 141.037 234.695C139.777 234.308 139.638 233.575 140.583 232.702C140.918 232.392 141.252 232.081 141.567 231.752C141.632 231.685 141.617 231.531 141.636 231.385C141.522 231.294 141.406 231.135 141.26 231.1C137.217 230.134 134.227 227.451 131.168 224.886C130.502 224.328 129.933 223.639 129.205 223.179C127.932 222.384 128.477 220.862 129.656 220.52C130.709 220.216 131.768 219.883 132.846 219.72C134.223 219.5 135.613 219.384 137.007 219.371C141.438 219.373 145.735 220.21 149.926 221.642C150.442 221.818 151.019 221.822 151.523 221.899C152.18 220.471 151.727 218.721 153.227 217.809C155.43 218.459 156.508 220.357 158.12 221.7Z" fill="white" fill-opacity="0.1"/>
</g>
<path d="M134.975 90.7961C137.234 89.81 139.453 88.8436 141.668 87.8735C143.399 87.1134 145.111 86.2974 146.86 85.5912C150.038 84.3255 153.175 82.8574 156.448 81.9605C161.125 80.6801 165.816 79.2125 170.685 78.9141C176.017 78.5859 181.397 78.8116 186.493 80.5032C190.742 81.912 194.595 84.1599 197.2 88.059C198.531 90.0487 199.971 91.971 201.411 93.8864C201.795 94.401 202.284 94.8295 202.844 95.1443C205.964 96.823 207.973 99.5618 209.498 102.567C211.005 105.529 210.412 108.69 209.154 111.631C208.302 113.62 207.293 115.559 205.706 117.142C205.25 117.598 204.969 118.368 204.879 119.03C204.505 121.837 204.371 124.681 203.897 127.469C202.983 133.085 201.149 138.514 198.469 143.537C196.89 146.461 194.859 148.943 192.83 151.524C190.476 154.579 187.623 157.216 184.389 159.323C181.958 160.89 179.47 162.419 176.858 163.648C173.05 165.455 169.152 167.05 164.997 168.013C162.122 168.675 159.214 168.474 156.345 168.79C151.6 169.326 147.072 168.285 142.56 167.075C140.654 166.561 138.842 166.18 136.779 166.689C135.059 167.091 133.252 166.849 131.701 166.007C130.68 165.464 129.531 165.141 128.558 164.53C126.653 163.344 125.537 161.479 124.522 159.539C124.229 158.978 123.909 158.37 123.438 157.976C121.77 156.578 120.047 155.25 118.317 153.926C117.179 153.063 116.076 152.329 114.575 151.922C109.026 150.407 105.363 146.924 104.199 141.08C103.855 139.359 103.459 137.674 103.754 135.911C103.813 135.553 103.738 135.05 103.949 134.858C105.183 133.736 104.412 132.517 104.259 131.298C103.666 126.565 104.348 122.061 106.521 117.745C108.665 113.489 111.19 109.485 114.555 106.142C117.073 103.649 120.027 101.604 122.787 99.3592C123 99.185 123.219 99.0182 123.61 98.7129C123.194 98.447 122.938 98.1571 122.644 98.1125C117.04 97.2623 113.605 90.3527 115.35 85.8941C115.557 85.2978 115.872 84.7444 116.279 84.2614C117.06 83.4224 117.145 82.6 116.921 81.4746C116.3 78.3431 115.741 75.1973 116.273 71.9596C116.914 68.0653 118.875 65.0493 122.084 62.8281C124.859 60.9102 127.783 59.3172 131.163 58.6662C134.23 58.037 137.415 58.3218 140.32 59.4854C140.947 59.7338 141.75 59.7384 142.221 60.1437C144.355 61.9952 146.84 63.6089 148.098 66.2158C150.157 70.4751 151.061 77.0406 146.543 81.1921C145.055 82.544 143.389 83.6862 141.59 84.5868C139.253 85.7908 137.081 87.2091 135.328 89.2278C134.837 89.7906 134.589 90.2574 134.975 90.7961Z" fill="white" fill-opacity="0.1"/>
<path d="M125.944 47.0364C123.266 47.9675 120.627 47.1918 118.437 45.172C116.807 43.6702 116.437 41.591 116.817 39.4656C117.267 36.9586 121.035 33.4239 123.548 32.9019C129.132 31.7386 131.936 36.659 131.532 40.195C131.364 41.6549 130.777 43.0818 130.308 44.5063C130.132 45.0514 127.289 46.6819 125.944 47.0364Z" fill="white" fill-opacity="0.1"/>
<defs>
<clipPath id="clip0_2658_1340">
<path d="M112.484 180H195.484V229C195.484 245.569 182.053 259 165.484 259H112.484V180Z" fill="white"/>
</clipPath>
</defs>
</svg>
