<svg width="195" height="277" viewBox="0 0 195 277" fill="none" xmlns="http://www.w3.org/2000/svg">
<path d="M68.2643 163.045C66.6055 162.312 64.7846 163.356 62.9684 163.781C55.7036 165.481 48.384 166.345 40.9106 166.052C36.8291 165.879 32.7414 165.911 28.6631 166.147C26.4067 166.277 24.1734 167.003 21.9607 167.58C20.6171 167.93 20.1337 168.947 20.4363 170.315C20.4999 170.604 20.6408 170.874 20.7264 171.155C21.4611 173.575 20.9615 175.244 19.1105 176.7C17.7004 177.801 14.2494 177.834 12.7687 176.655C11.5952 175.717 10.5372 174.881 10.7605 172.883C11.0125 170.722 10.5209 168.443 10.1287 166.255C9.91434 165.058 9.47609 163.745 8.7162 162.836C7.59812 161.499 6.58989 160.203 6.19029 158.471C6.08537 158.01 5.65111 157.623 5.31298 157.116C6.12847 155.371 7.32095 154.029 9.35842 153.48C11.5895 152.838 13.9632 152.891 16.1632 153.632C16.8119 153.855 17.2875 154.727 17.7194 155.385C17.9894 155.797 18.075 156.351 18.1712 156.856C18.3773 157.947 18.9982 158.386 20.0823 158.158C22.7639 157.597 25.4949 157.194 28.1127 156.417C30.4222 155.731 32.6044 154.623 34.8448 153.709C34.9805 153.654 35.222 153.687 35.2694 153.615C36.2041 151.957 37.793 151.474 39.4735 150.831C41.1541 150.188 42.7512 148.991 43.9937 147.662C46.5108 145.017 49.6503 143.19 52.4722 140.977C55.4716 138.621 58.1485 135.951 60.6891 133.209C62.1437 131.635 64.4047 130.69 65.0212 128.366C67.311 127.22 68.372 124.993 69.6637 123.001C71.0094 120.952 72.2457 118.833 73.3675 116.653C73.788 115.828 73.685 114.737 73.8349 113.684C74.0399 113.705 74.3642 113.738 74.7991 113.785C77.0071 109.074 79.3465 104.39 80.7903 99.3187C81.0942 98.2561 81.7489 97.2965 82.2144 96.2783C82.8582 94.8582 83.4948 93.4274 83.0615 92.2012C83.8587 90.9939 84.5262 90.1029 85.0835 89.1242C87.954 84.1363 90.0823 78.701 93.7585 74.2106C94.7021 73.0576 95.1925 71.8902 95.6702 70.5782C96.292 68.8528 97.6464 67.9894 99.4085 67.8702C100.892 67.7608 102.381 67.7658 103.863 67.8849C106.606 68.1188 108.096 69.837 108.626 72.595C109.095 75.0298 109.869 77.4315 110.595 79.8202C111.758 83.6518 113.252 87.4332 113.159 91.5027C113.068 95.4871 112.721 99.4704 112.408 103.445C112.233 105.662 111.617 107.837 111.771 110.088C111.779 110.227 111.825 110.439 111.754 110.499C109.882 112.054 110.526 114.497 109.686 116.436C109.241 117.462 108.66 118.536 108.9 119.899C109.105 121.058 107.186 121.246 107.061 122.69C106.954 123.874 106.105 124.999 105.553 126.134C104.551 128.188 103.451 130.198 102.52 132.284C101.641 134.2 100.568 136.021 99.3172 137.718C97.6466 140.052 96.1584 142.521 94.3938 144.78C92.7148 146.929 90.9384 149.058 88.9221 150.871C86.9033 152.693 84.6876 154.285 82.316 155.617C78.5079 157.734 74.789 160.078 70.526 161.294C69.7882 161.509 69.2044 162.297 68.2643 163.045Z" fill="white" fill-opacity="0.1"/>
<path d="M79.3305 192.66C80.6126 190.923 82.0481 189.271 83.1494 187.417C85.2446 183.893 87.0568 180.203 89.1709 176.69C90.2546 174.886 91.6684 173.267 93.0523 171.668C93.5845 171.056 94.4552 170.717 95.2012 170.236C97.2781 171.419 98.7989 173.073 100.314 174.713C101.046 175.504 100.907 176.623 100.072 177.598C98.527 179.405 96.9213 181.164 95.3318 182.934C94.1103 184.298 92.8827 185.633 91.6212 187.022C92.0815 187.608 92.7634 187.415 93.3777 187.33C93.8298 187.249 94.2667 187.098 94.6731 186.884C97.8141 185.363 101.154 185.017 104.563 185.322C107.187 185.551 109.757 186.2 112.175 187.245C114.536 188.263 116.922 189.204 119.067 190.618C121.835 192.414 124.15 194.825 125.83 197.665C127.066 199.769 127.6 202.076 128.301 204.18C125.82 205.434 123.603 206.684 121.285 207.702C116.455 209.83 111.45 211.044 106.103 210.298C104.757 210.112 103.374 210.235 101.775 210.209C102.663 212.309 103.631 214.179 104.216 216.162C104.546 217.277 104.255 218.579 104.222 219.796C104.139 222.952 103.171 225.859 101.831 228.688C100.571 231.344 98.8012 233.636 96.8688 235.797C95.1557 237.712 93.4581 239.718 91.4262 241.247C88.7583 243.253 85.79 244.865 82.909 246.577C81.2603 247.575 79.5561 248.478 77.8047 249.283C75.7227 250.217 73.5515 250.956 71.4343 251.812C70.8956 252.012 70.3964 252.306 69.96 252.68C66.8893 255.536 63.3446 257.199 59.1198 257.641C54.9956 258.072 51.723 256.271 48.4389 254.26C46.6466 253.162 45.2593 251.804 44.3228 249.851C43.9657 249.104 42.8736 248.624 42.024 248.219C41.2671 247.856 40.3847 247.725 39.548 247.562C37.1536 247.11 34.9869 246.322 33.4364 244.256C32.6898 243.263 31.7086 242.446 30.8581 241.528C30.0712 240.665 29.5822 239.571 29.4629 238.409C29.4447 238.21 29.3941 238.017 29.3132 237.835C27.5787 234.383 28.245 230.938 29.1074 227.402C29.5023 225.787 29.3022 224.014 29.2275 222.319C29.1909 221.5 29.0622 220.74 29.1806 219.872C29.3281 218.828 29.7953 217.576 28.7721 216.539C28.6153 216.38 29.212 215.598 29.2756 215.081C29.5632 212.749 29.3816 210.26 30.158 208.113C30.8268 206.266 30.9149 204.259 31.9326 202.498C32.925 200.795 33.4885 198.851 34.3917 197.092C35.3171 195.257 36.353 193.48 37.4935 191.77C38.6033 190.131 40.0296 188.704 41.1126 187.052C41.9421 185.787 42.9541 185.055 44.37 184.568C45.4674 184.188 46.3992 183.345 47.4192 182.726C49.1265 181.691 50.8872 180.826 52.9805 181.02C53.247 181.041 53.515 181.012 53.7714 180.936C56.5328 180.154 59.2547 180.76 61.9868 181.112C62.1169 181.13 62.2748 181.243 62.3651 181.198C63.9992 180.4 65.0364 181.496 66.167 182.349C66.4405 182.537 66.7443 182.676 67.0652 182.761C68.7865 183.285 70.0863 184.476 71.4248 185.565C72.0764 186.093 72.5043 186.794 73.5205 186.886C73.959 186.925 74.2827 187.817 74.7251 188.252C76.1308 189.63 77.5703 190.981 79.3305 192.66Z" fill="white" fill-opacity="0.1"/>
<path d="M172.434 19.3872C172.372 18.8003 172.383 18.3066 172.26 17.8495C171.389 14.5877 171.06 11.3083 171.443 7.92189C171.671 5.92201 171.801 3.91458 172.377 1.98523C172.569 1.33917 172.92 0.542005 173.442 0.248573C174.01 -0.0700469 174.898 -0.0448658 175.577 0.116333C177.514 0.573484 179.142 1.62758 180.64 2.95243C183.221 5.20289 185.568 7.71012 187.644 10.4356C187.967 10.8638 188.245 11.3285 188.558 11.7982C188.976 11.2819 189.372 10.7492 189.814 10.258C190.682 9.29083 191.796 9.16741 192.723 10.7429C192.849 10.9611 192.951 11.192 193.028 11.4317C193.908 14.0563 195.768 16.0637 197.288 18.284C197.582 18.7134 197.909 19.1202 198.262 19.5912C198.458 19.5414 198.65 19.474 198.834 19.3897C201.043 18.1303 202.84 18.9628 203.201 21.4412C203.345 22.4311 203.327 23.4448 203.491 24.4322C203.603 25.1198 203.868 25.786 204.1 26.4472C204.729 28.233 205.299 30.0162 204.773 31.9481C204.687 32.263 204.747 32.6156 204.727 32.9556C204.656 34.1558 204.578 35.3547 204.491 36.7337C205.519 36.1557 206.162 35.3484 206.841 34.6356C208.201 33.2062 209.708 31.9645 211.282 30.8008C212.241 30.0905 212.687 30.0276 214.067 30.0691C214.205 30.2996 214.365 30.5729 214.543 30.8701C215.724 30.4306 216.857 29.9885 218.001 29.5855C219.964 28.8904 221.932 28.2153 223.906 27.534C224.336 27.3841 224.792 27.2897 225.198 27.0907C226.586 26.4072 228.085 25.9805 229.624 25.8314C229.909 25.802 230.198 25.8079 230.482 25.849C232.073 26.0933 232.397 26.66 231.507 28.0201C230.862 29.005 230.027 29.8915 229.163 30.6988C228.158 31.632 227.057 32.4619 225.957 33.2755C225.203 33.8397 224.35 34.283 223.57 34.8295C223.181 35.1041 222.865 35.4831 222.43 35.8975C222.901 36.2425 223.239 36.4655 223.548 36.7236C224.265 37.3206 224.286 37.9918 223.588 38.6127C221.918 40.0987 219.98 41.1201 217.892 41.8732C216.671 42.3139 215.518 42.8416 214.473 43.659C213.527 44.3982 212.423 44.9359 211.406 45.5896C210.93 45.8968 210.494 46.2709 210.05 46.6071C211.214 48.2859 210.967 49.1259 209.199 49.8815C208.939 50.012 208.66 50.0992 208.372 50.1397C206.383 50.2757 204.403 50.6724 202.4 50.214C201.52 50.0125 200.588 49.9948 199.697 49.8084C198.65 49.5906 197.597 49.3211 196.856 48.2645C196.856 48.4534 196.791 48.675 196.866 48.8274C197.831 50.7983 197.961 52.8133 197.223 54.8787C197.013 55.4668 196.837 56.0813 196.523 56.6115C196.245 57.0788 195.798 57.444 195.419 57.8608C195.419 58.6013 195.45 59.3557 195.419 60.1063C195.345 61.5457 194.288 62.2031 192.982 61.5646C192.354 61.2574 191.5 61.1868 191.325 60.2108C191.285 59.9879 190.74 59.8569 190.384 59.6592C190.196 59.7675 189.931 59.8431 189.781 60.0169C188.301 61.7359 186.376 62.7875 184.379 63.7559C182.951 64.4511 181.867 63.5859 182.137 62.1314C182.223 61.683 182.243 61.2208 182.356 60.7801C182.684 59.4955 183.048 58.221 183.387 56.939C183.417 56.8294 183.366 56.6972 183.347 56.5183C182.607 56.439 181.867 56.3332 181.125 56.2879C180.808 56.2823 180.501 56.1792 180.244 55.9924C179.988 55.8056 179.795 55.5443 179.693 55.2439C179.441 54.5852 179.71 53.9581 180.214 53.5551C180.788 53.0954 181.47 52.7705 182.115 52.4027C182.331 52.2768 182.625 52.2617 182.797 52.103C184.029 50.9696 185.503 50.214 186.907 49.345C187.045 49.2594 187.193 49.1901 187.417 49.0692L183.621 48.0113C183.167 46.9824 182.177 46.4837 181.262 45.9321C179.629 44.9485 177.87 44.1476 176.325 43.0356C175.09 42.154 174.086 40.9337 173.006 39.838C172.307 39.1278 171.668 38.3608 170.983 37.6367C170.355 36.9692 169.712 36.3231 169.452 35.3912C169.166 34.3648 169.468 33.5588 170.39 33.079C170.427 33.0601 170.471 33.0551 170.509 33.0375C172.518 32.0652 172.503 32.069 171.815 29.9646C171.608 29.3349 171.49 28.6725 171.32 28.0289C171.079 27.1159 170.818 26.2432 170.349 25.3767C169.706 24.1891 169.303 22.8202 169.05 21.4815C168.781 20.0534 169.489 19.401 170.952 19.3884C171.359 19.3847 171.776 19.3872 172.434 19.3872Z" fill="white" fill-opacity="0.1"/>
<g clip-path="url(#clip0_2658_2656)">
<path d="M158.63 221.701C158.039 219.66 157.289 217.747 155.902 216.106C153.152 212.847 150.469 209.531 147.788 206.217C146.741 204.922 146.377 203.37 146.929 201.82C147.459 200.332 148.883 199.633 150.205 198.924C150.257 198.898 150.314 198.884 150.373 198.884C150.431 198.884 150.488 198.897 150.54 198.923C152.018 200.174 154.359 200.126 155.186 202.469C155.826 204.283 157.084 205.88 158.062 207.573C158.326 208.029 158.576 208.479 158.82 208.937C160.017 211.197 161.208 213.459 162.454 215.813C162.774 215.278 163.2 214.785 163.381 214.218C164.185 211.801 166.039 209.969 166.971 207.622C167.436 206.45 168.038 205.33 168.485 204.15C168.999 202.798 169.411 201.409 169.863 200.034C170.28 198.767 170.953 198.054 171.635 198.163C172.275 198.266 173.049 199.273 173.05 200.372C173.051 202.854 172.924 205.339 172.855 207.815C172.853 208.037 172.821 208.251 172.794 208.566C173.794 208.398 174.702 208.235 175.615 208.093C176.072 208.016 176.534 207.967 176.997 207.947C178.655 207.902 179.323 208.874 178.47 210.236C177.554 211.696 176.48 213.057 175.471 214.46C175.306 214.688 175.121 214.904 174.778 215.333C175.31 215.255 175.634 215.267 175.913 215.158C177.701 214.47 179.354 213.473 180.796 212.212C182.223 210.964 183.85 209.991 185.106 208.485C185.869 207.569 187.185 207.084 188.313 206.523C188.539 206.42 188.784 206.366 189.033 206.364C189.281 206.362 189.527 206.411 189.756 206.509C190.302 206.805 190.299 207.41 190.055 208.038C189.239 210.271 188.382 212.47 186.798 214.301C186.461 214.69 186.192 215.137 185.805 215.68C186.727 216.02 187.558 216.358 188.412 216.639C188.674 216.707 188.949 216.698 189.207 216.615C190.306 216.296 191.403 215.641 192.485 215.673C193.982 215.717 194.538 215.698 195.994 216.143C196.807 216.396 197.789 217.151 198.494 217.643C199.447 218.309 201.07 219.016 202.221 218.313C202.457 218.17 203.822 219.153 204.494 219.143L202.202 220.171C204.199 222.689 205.421 225.607 204.766 229.13C205.176 229.412 205.585 229.71 206.011 229.982C207.987 231.234 209.251 232.993 209.928 235.234C210.364 236.677 210.877 238.078 210.749 239.631C210.697 240.27 210.847 240.855 211.696 241.027C212.097 241.11 212.423 241.542 212.862 241.875C212.009 242.79 212.224 243.579 212.918 244.493C214.545 246.639 215.019 249.172 215.067 251.865C215.69 252.388 216.95 252.363 216.813 253.804L214.944 253.706C214.047 255.161 213.184 256.584 212.294 257.989C212.081 258.323 196.325 227.839 195.994 228C195.494 243 185.994 249.5 185.994 250C175.494 259.5 162.494 257.5 161.494 258C161.083 258.781 191.944 485.203 192.096 486.121C192.239 486.99 192.061 487.943 191.876 488.827C191.071 492.694 189.364 495.865 185.547 497.668C183.884 498.451 182.317 499.389 180.343 499.655L180.685 502.319C180.303 502.394 179.829 502.634 179.526 502.5C178.474 501.992 178.661 501.034 178.96 499.919C176.123 499.689 173.445 498.51 171.359 496.571L168.282 499.446L167.16 498.703C163.48 500.16 159.915 499.696 156.713 497.386C155.801 497.74 155.756 499.178 154.468 498.662C154.074 497.604 155.157 496.925 155.245 495.913C154.497 494.423 152.686 493.373 153.124 490.933C152.251 491.387 151.662 491.726 151.052 492.023C150.379 492.353 149.69 492.652 148.949 492.985C149.083 493.59 149.282 494.138 149.298 494.695C149.303 494.958 149.005 495.313 148.747 495.466C148.58 495.566 153.124 503.726 147.994 495.308C146.497 493.592 162.377 257.969 161.494 258C161.686 258.815 162.392 257.969 161.494 258C153.994 258.5 149.994 258.5 148.994 258.5C149.494 258.5 149.994 258.5 148.994 258.5L148.326 258.326C145.396 256.094 144.547 252.534 143.055 249.431C142.363 249.716 141.571 250.043 140.78 250.374C139.55 250.883 138.34 251.435 137.099 251.906C136.179 252.253 135.24 252.543 134.285 252.776C133.361 253.003 132.323 252.563 132.033 251.928C131.72 251.237 132.034 250.219 132.737 249.606C134.394 248.168 136.094 246.775 137.686 245.268C138.508 244.489 139.141 243.508 139.857 242.615C140.002 242.435 140.133 242.244 140.266 242.054L144.842 235.445C144.6 235.345 144.352 235.262 144.099 235.197C143.25 235.023 142.37 234.951 141.546 234.696C140.287 234.308 140.148 233.575 141.093 232.703C141.427 232.392 141.762 232.082 142.077 231.752C142.142 231.685 142.127 231.532 142.146 231.385C142.032 231.295 141.916 231.136 141.77 231.101C137.727 230.134 134.737 227.451 131.677 224.886C131.012 224.328 130.443 223.639 129.715 223.18C128.442 222.384 128.987 220.862 130.166 220.52C131.219 220.216 132.277 219.884 133.356 219.72C134.732 219.501 136.123 219.384 137.517 219.371C141.948 219.374 146.245 220.21 150.435 221.642C150.952 221.818 151.528 221.822 152.032 221.899C152.689 220.471 152.237 218.722 153.736 217.809C155.939 218.46 157.018 220.357 158.63 221.701Z" fill="white" fill-opacity="0.1"/>
</g>
<path d="M151.304 101.575C153.828 100.472 156.307 99.3904 158.782 98.3052C160.716 97.4549 162.628 96.542 164.583 95.752C168.133 94.336 171.637 92.6936 175.294 91.6902C180.519 90.2578 185.76 88.6161 191.2 88.2822C197.157 87.9151 203.167 88.1676 208.861 90.06C213.608 91.636 217.912 94.1508 220.823 98.5127C222.309 100.739 223.918 102.889 225.527 105.032C225.957 105.608 226.502 106.087 227.129 106.439C230.614 108.317 232.858 111.381 234.562 114.743C236.246 118.057 235.584 121.593 234.178 124.883C233.226 127.108 232.099 129.277 230.326 131.048C229.817 131.558 229.502 132.419 229.402 133.161C228.984 136.3 228.834 139.482 228.304 142.601C227.284 148.884 225.235 154.957 222.24 160.577C220.477 163.848 218.207 166.625 215.941 169.512C213.311 172.929 210.123 175.879 206.511 178.237C203.794 179.989 201.015 181.7 198.096 183.075C193.842 185.096 189.487 186.881 184.845 187.958C181.634 188.699 178.385 188.474 175.18 188.828C169.878 189.426 164.819 188.263 159.778 186.909C157.649 186.334 155.625 185.908 153.32 186.477C151.399 186.927 149.379 186.656 147.646 185.714C146.506 185.107 145.222 184.746 144.135 184.061C142.007 182.735 140.76 180.648 139.626 178.478C139.299 177.85 138.941 177.17 138.416 176.729C136.552 175.166 134.627 173.68 132.694 172.198C131.423 171.233 130.19 170.412 128.514 169.957C122.314 168.263 118.222 164.366 116.921 157.828C116.537 155.903 116.095 154.018 116.424 152.045C116.49 151.645 116.407 151.082 116.642 150.867C118.021 149.611 117.16 148.249 116.988 146.885C116.326 141.589 117.088 136.552 119.516 131.723C121.911 126.961 124.732 122.482 128.492 118.742C131.304 115.953 134.604 113.666 137.688 111.154C137.926 110.959 138.171 110.773 138.608 110.431C138.143 110.134 137.857 109.81 137.529 109.76C131.268 108.809 127.43 101.079 129.379 96.0908C129.61 95.4237 129.962 94.8046 130.417 94.2644C131.289 93.3257 131.385 92.4057 131.135 91.1467C130.441 87.6434 129.817 84.1242 130.411 80.5022C131.127 76.1456 133.317 72.7715 136.903 70.2866C140.003 68.141 143.27 66.359 147.045 65.6307C150.472 64.9268 154.03 65.2455 157.276 66.5471C157.977 66.825 158.874 66.8302 159.4 67.2835C161.784 69.3548 164.56 71.1601 165.966 74.0765C168.266 78.8414 169.276 86.1863 164.228 90.8307C162.566 92.3431 160.704 93.6209 158.695 94.6284C156.083 95.9753 153.657 97.5619 151.699 99.8202C151.151 100.45 150.873 100.972 151.304 101.575Z" fill="white" fill-opacity="0.1"/>
<path d="M141.215 52.6203C138.223 53.662 135.275 52.7943 132.828 50.5347C131.007 48.8546 130.594 46.5285 131.019 44.1509C131.521 41.3462 135.73 37.392 138.538 36.808C144.776 35.5065 147.909 41.0111 147.458 44.9669C147.27 46.6 146.615 48.1963 146.091 49.7899C145.894 50.3997 142.718 52.2238 141.215 52.6203Z" fill="white" fill-opacity="0.1"/>
<defs>
<clipPath id="clip0_2658_2656">
<path d="M112.994 180H195.994V229C195.994 245.569 182.563 259 165.994 259H112.994V180Z" fill="white"/>
</clipPath>
</defs>
</svg>
