<svg width="282" height="233" viewBox="0 0 282 233" fill="none" xmlns="http://www.w3.org/2000/svg">
<path d="M55.8551 87.7253C56.7114 87.1451 57.4982 86.651 58.2434 86.1002C60.7079 84.2786 63.5164 83.2512 66.4442 82.5166C67.4397 82.2672 68.177 81.7482 68.9163 81.0371C70.8563 79.1703 72.7754 77.2345 74.9485 75.6725C77.4421 73.8838 80.2281 72.4447 83.2925 71.8761C84.7077 71.6139 86.2121 71.8342 87.9474 71.8352C88.7789 71.2294 89.0449 70.1958 88.8754 68.8761C88.7431 67.7653 88.7595 66.6414 88.9242 65.5343C89.3079 62.85 91.1026 61.7388 93.2331 62.7381C93.3552 62.781 93.4821 62.8092 93.611 62.8221C94.5432 62.0234 94.5533 62.0273 95.5472 63.114C96.6015 62.612 97.5743 62.7757 98.5123 63.529C99.4142 64.2525 100.409 64.8566 101.332 65.5537C102.861 66.7082 103.208 68.2477 102.853 70.0861C102.699 70.8863 102.669 71.7923 102.885 72.5631C103.355 74.2487 102.253 76.0299 100.546 76.266C99.6617 76.3907 98.7721 76.4695 97.8802 76.5021C97.0483 76.5306 96.2129 76.4636 95.3572 76.4381C95.0073 76.9346 94.6044 77.4672 94.2509 78.0291C94.1157 78.2501 94.0487 78.5061 94.0584 78.7649C94.1096 79.5242 94.2084 80.2801 94.3073 81.0361C94.4137 81.8805 94.4172 82.6735 93.9858 83.485C93.5299 84.3449 93.3441 85.343 92.9531 86.2441C91.7959 88.9143 89.9733 91.1122 88.0337 93.2503C86.0401 95.4458 84.0322 97.6111 81.6387 99.3762C80.7727 100.015 79.8865 100.631 78.976 101.202C76.0592 103.031 72.8448 104.267 69.697 105.566C66.3568 106.94 62.7857 107.738 59.2034 108.241C56.5061 108.62 53.7877 108.826 51.065 108.858C49.3885 108.877 47.6752 108.547 46.0346 108.144C44.1722 107.688 42.3005 107.133 40.5584 106.343C37.8145 105.104 35.5871 103.213 34.2334 100.414C34.0183 99.9694 33.548 99.6278 33.1449 99.2991C32.6305 98.8809 32.2747 99.3853 31.8331 99.5666C30.6527 100.055 29.4591 100.532 28.1249 100.435C25.941 100.287 25.0872 99.5659 24.7226 97.4182C24.6804 97.1539 24.6147 96.8646 24.6756 96.6142C25.1024 94.8411 24.8234 93.0541 24.8655 91.2741C24.8819 90.4483 25.1544 89.6144 25.388 88.806C25.7038 87.7409 26.7555 87.451 27.5778 86.9736C28.0209 86.7175 28.4352 86.5808 28.4917 85.9909C28.5118 85.7899 28.6899 85.595 28.8228 85.416C29.8213 84.0732 30.8028 83.9459 32.2688 84.7763C33.6198 85.5417 34.1132 86.913 34.8678 88.1027C35.0329 88.3668 35.0969 88.6975 35.2737 88.9501C35.4133 89.1492 35.6552 89.2747 35.8523 89.4337C35.9733 89.237 36.054 88.9914 36.2221 88.8521C37.0993 88.1248 37.9675 87.3796 38.8987 86.7255C40.5957 85.5343 42.6007 85.4136 44.5643 85.329C46.8842 85.2273 49.2189 85.3112 51.4525 86.0329C52.9673 86.5284 54.4401 87.1772 55.8551 87.7253Z" fill="white" fill-opacity="0.1"/>
<path d="M161.066 83.2726C160.391 82.4434 159.78 81.7302 159.206 80.9826C158.368 79.8865 157.416 78.8685 157.125 77.4275C156.961 76.6194 156.969 75.835 157.232 75.0959C157.392 74.6479 157.763 74.2114 158.151 73.9189C159.762 72.7055 161.418 71.549 163.197 70.5927C164.976 69.6364 166.817 68.877 168.821 68.7167C170.077 68.6179 171.365 68.7479 172.614 68.9381C173.932 69.1379 175.001 70.4573 175.292 71.7518C175.716 73.6454 175.465 75.4993 175.106 77.4785C175.886 77.5629 176.642 77.6769 177.393 77.7083C177.651 77.7197 178.015 77.6011 178.165 77.4107C178.859 76.5344 179.494 75.6111 180.12 74.7451C180.432 74.8059 180.669 74.9344 180.817 74.8673C181.742 74.4481 182.559 74.8947 183.415 75.1099C183.772 75.2006 184.164 75.1536 184.537 75.169C184.504 74.0988 184.416 73.1825 184.462 72.262C184.535 70.7722 185.212 69.516 186.167 68.3958C186.47 68.0422 186.872 67.9964 187.233 68.3699C187.529 68.7014 187.784 69.0665 187.995 69.4577C188.965 71.1113 189.491 72.8955 189.369 74.8194C189.312 75.775 189.132 76.7236 188.982 77.6712C188.915 78.0877 189.007 78.4009 189.35 78.6604C189.938 79.1072 190.505 79.5819 191.154 80.1019C191.559 79.3771 191.919 78.6267 192.376 77.9335C193.523 76.2015 194.903 74.7233 196.95 74.036C197.178 73.9567 197.431 73.9311 197.632 73.8127C199.222 72.8827 201.009 72.7707 202.768 72.5404C203.303 72.4695 203.702 72.6778 204.019 73.1265C203.45 79.4235 200.148 83.4681 194.044 85.2381C193.885 85.7454 193.679 86.2902 193.537 86.8503C193.471 87.1143 193.446 87.2777 193.147 87.4468C192.657 87.7241 192.602 88.5231 192.911 89.0052C193.267 89.5506 193.582 90.1166 193.974 90.6315C194.188 90.9269 194.473 91.1635 194.803 91.3194C196.637 92.0829 198.481 92.8194 200.337 93.5291C200.877 93.7351 201.474 93.7873 202.02 93.9824C203.147 94.3848 204.292 94.7662 205.367 95.2845C206.939 96.0434 208.302 97.0375 208.785 98.8825C209.134 100.212 208.544 101.972 207.448 102.812C206.667 103.42 205.969 104.11 205.217 104.742C203.148 106.485 201.068 108.215 199.004 109.958C198.224 110.615 197.551 111.462 196.67 111.922C195.598 112.476 194.807 113.308 194.019 114.118C192.536 115.645 190.901 116.972 189.227 118.265C187.742 119.411 186.322 120.651 184.761 121.683C183.788 122.325 182.928 123.27 181.636 123.346C181.532 123.363 181.433 123.404 181.349 123.467C179.239 124.779 177.002 124.659 174.728 124.048C172.206 123.371 169.81 122.374 167.436 121.294C166.27 120.766 165.209 120.086 164.09 119.482C162.944 118.867 161.781 118.278 160.599 117.735C158.885 116.95 157.141 116.229 155.422 115.456C154.176 114.897 152.977 114.225 151.71 113.726C148.53 112.479 145.6 110.708 142.476 109.353C141.322 108.852 140.183 108.321 139.057 107.758C137.249 106.855 136.684 105.289 136.859 103.384C136.912 102.879 137.019 102.38 137.177 101.897C137.519 100.808 138.227 100.062 139.224 99.4628C141.012 98.3933 142.711 97.1759 144.454 96.0371C144.702 95.8749 145.014 95.8121 145.292 95.6926C145.669 95.5256 146.106 95.4316 146.399 95.1715C146.692 94.9113 147.008 94.8385 147.337 94.7007C147.99 94.4275 148.589 94.0385 149.204 93.6853C149.883 93.2946 150.538 92.8648 151.232 92.4974C151.86 92.1624 152.207 91.636 152.358 90.9813C152.924 88.5165 154.344 86.7186 156.397 85.2601C157.786 84.2579 159.381 83.5788 161.066 83.2726Z" fill="white" fill-opacity="0.1"/>
<path d="M130.784 57.4428C131.248 58.4799 131.68 59.3669 132.045 60.2841C132.422 61.2361 132.69 62.2351 133.095 63.174C133.343 63.7418 133.771 64.244 134.125 64.7698C135.184 66.3345 135.904 68.1029 136.24 69.9617C136.406 70.8388 136.481 71.7134 136.307 72.6098C136.247 72.9173 136.333 73.2941 136.462 73.5904C137.27 75.4436 138.068 77.2835 139.248 78.9676C140.013 80.0586 140.44 81.3622 140.239 82.7705C140.1 83.7239 139.709 84.4537 138.742 84.8042C138.333 84.9522 138.006 84.9827 137.582 84.7807C135.845 83.9554 134.833 82.6082 134.424 80.7461C134.325 80.3004 134.057 79.8921 133.824 79.3707C133.591 79.7007 133.386 79.9916 133.169 80.2775C132.32 81.3926 131.563 81.56 130.457 80.688C128.12 78.8478 125.781 77.0089 123.824 74.7357C122.547 73.2534 121.147 71.8689 119.957 70.322C119.25 69.4028 118.38 68.7578 117.499 68.0676C116.263 67.0974 115.083 66.0548 113.877 65.0489C113.348 64.6065 112.828 64.1599 112.272 63.764C112.071 63.6464 111.832 63.6127 111.606 63.6701C110.439 63.9855 109.522 63.5594 108.798 62.6986C108.293 62.0997 107.874 61.4273 107.442 60.771C107.361 60.6487 107.43 60.4372 107.374 60.2869C107.245 59.9397 107.163 59.5238 106.922 59.2762C105.452 57.7979 103.96 56.3382 102.43 54.9202C101.99 54.5127 101.427 54.2144 100.879 53.9547C99.0872 53.103 97.2747 52.292 95.3551 51.4135C94.9714 51.6222 94.4273 51.8517 93.9591 52.1875C92.0159 53.5815 89.9372 53.6448 87.8018 52.7892C86.1517 52.1318 84.695 51.1709 83.7445 49.605C83.5177 49.2313 83.3726 48.8053 83.2054 48.3981C83.1288 48.2062 83.1354 47.9883 83.0489 47.8098C82.1107 45.9399 82.3651 44.1105 83.1072 42.242C83.8361 40.402 85.1767 39.2683 86.8993 38.423C87.8095 37.9757 88.6204 37.3239 89.4658 36.7495C90.1361 36.294 90.7541 35.7442 91.4645 35.3658C92.3272 34.9058 93.2642 34.5867 94.1636 34.1963C94.6655 33.9788 95.1545 33.7299 95.6552 33.5096C97.1658 32.8427 99.667 32.2196 100.966 32.1461C101.538 31.6563 101.951 31.1586 102.481 30.8767C103.474 30.348 104.538 29.95 105.565 29.4842C105.934 29.3196 106.323 29.1569 106.633 28.9158C108.477 27.4817 110.673 26.572 112.991 26.2823C115.543 25.942 117.882 26.5247 120.044 27.901C120.105 27.9336 120.161 27.974 120.211 28.0211C121.635 29.6096 123.092 31.2116 123.28 33.4605C123.433 35.2767 122.928 36.9134 121.405 38.0984C121.161 38.3098 120.928 38.534 120.707 38.7699C121.727 39.7081 122.537 40.8517 123.084 42.1255C123.393 42.813 123.763 43.4714 124.189 44.0929C124.5 44.5521 124.993 44.8579 125.586 44.766C126.548 44.6181 127.346 44.9651 128.078 45.518C129.145 46.325 130.188 47.1551 130.88 48.3455C131.19 48.8758 131.636 49.3288 131.933 49.8655C132.628 51.1148 133.048 52.4994 133.005 53.9007C132.954 55.3595 132.506 56.7667 130.784 57.4428Z" fill="white" fill-opacity="0.1"/>
<path d="M183.223 47.8043C185.065 49.0178 186.263 50.6019 186.6 52.7617C186.868 54.4587 185.962 56.0311 184.524 56.7671C182.329 57.89 179.803 57.2765 178.32 55.4172C177.654 54.5755 177.128 53.6252 176.525 52.7325C176.292 52.3875 176.033 52.0615 175.75 51.7575C175.386 51.3712 175.006 51.2952 174.186 51.4088C174.33 51.693 174.443 51.9542 174.59 52.1958C174.705 52.3848 174.904 52.5304 174.985 52.7289C175.066 52.9273 175.145 53.2211 175.078 53.4213C174.98 53.7002 174.676 53.6631 174.425 53.5923C173.73 53.3945 173.034 53.2001 172.346 52.9873C171.95 52.8638 171.558 52.7158 171.174 52.5545C170.376 52.2188 170.241 52.2916 169.548 52.8581C168.533 53.6901 168.006 54.873 167.229 55.8732C165.905 57.5793 164.659 59.3623 162.705 60.4495C161.518 61.1107 160.394 61.9045 159.152 62.4236C158.091 62.8649 156.973 63.3453 155.738 63.1413C155.515 63.1045 155.267 63.2646 155.026 63.3003C153.839 63.4784 152.668 63.3792 151.506 63.098C150.646 62.89 149.768 62.743 148.931 62.4566C147.817 62.0816 146.861 61.3861 145.999 60.6095C144.973 59.6845 143.902 58.7743 143.23 57.5318C142.758 56.66 142.314 55.7684 141.928 54.8554C141.617 54.1184 141.302 53.3545 141.182 52.5701C140.919 50.825 140.695 49.0752 140.936 47.2884C141.171 45.4751 141.75 43.723 142.64 42.1257C143.043 41.4044 143.398 40.6556 143.812 39.9407C144.028 39.5897 144.279 39.2612 144.561 38.9599C145.732 37.644 147.071 36.5262 148.629 35.6984C149.143 35.4243 149.69 35.2178 150.257 35.0841C151.231 34.8579 152.226 34.7184 153.207 34.5383C153.525 34.4791 153.811 34.7504 154.181 34.5149C154.41 34.3712 154.829 34.5011 155.158 34.5513C155.509 34.6035 155.867 34.8048 156.201 34.7634C156.946 34.6707 157.6 34.9261 158.292 35.0986C160.105 35.5505 161.617 36.5419 163.134 37.578C164.197 38.3065 165.197 39.0669 165.979 40.1058C166.951 41.3998 167.984 42.6451 168.773 44.0675C168.9 44.2956 169.092 44.4859 169.277 44.7224C170.732 43.8939 171.54 42.3975 172.894 41.5604C173.503 42.2175 172.828 42.7563 173.005 43.3322C173.161 43.8369 173.051 44.4235 173.06 45.0351L174.04 45.3798C174.245 45.0172 174.521 44.6866 174.631 44.3087C175.021 42.9697 175.97 42.0273 176.85 41.0302C176.942 40.927 177.051 40.8388 177.146 40.7376C178.29 39.5118 179.779 39.007 181.381 38.8812C182.225 38.8164 183.097 38.954 183.773 39.5983C183.793 39.6178 183.815 39.635 183.838 39.6499C184.679 40.1595 185.284 40.8403 185.436 41.851C185.55 42.6111 185.722 43.3679 185.769 44.1308C185.786 44.5142 185.651 44.9563 185.46 45.3035C184.71 46.6817 184.466 46.9247 183.223 47.8043Z" fill="white" fill-opacity="0.1"/>
<path d="M39.4429 61.1056C39.183 63.5078 38.9757 65.696 38.6985 67.8753C38.5527 69.0954 38.3242 70.3041 38.0145 71.4933C37.9098 71.8812 37.3719 72.1491 37.0544 72.4914C36.4055 73.1931 35.6999 73.3816 34.7083 73.1891C33.1107 72.8832 31.4501 72.8992 29.8459 72.6165C27.1081 72.1326 24.3701 71.6141 21.6754 70.9419C18.8138 70.233 15.9652 69.4031 13.1704 68.4592C11.3032 67.8299 9.40707 67.1097 7.75886 66.0609C5.88494 64.864 4.22637 63.2937 2.53177 61.822C-0.963186 58.782 -2.51471 54.692 -3.02287 50.3155C-3.50252 46.1817 -2.59057 42.1971 0.138392 38.8243C0.772217 38.0398 1.37295 37.2277 1.99075 36.4308C2.34484 35.9727 2.70862 35.5609 3.37752 35.5507C3.59834 35.5467 3.82976 35.3335 4.03012 35.1728C4.51571 34.7955 4.95358 34.3531 5.46423 34.0157C8.81531 31.7951 12.6107 30.3262 16.5882 29.7106C18.5871 29.3945 20.5674 28.93 22.5732 28.7105C24.0289 28.5512 25.4964 28.3813 26.9957 28.5715C28.0629 28.7069 29.1703 28.5086 30.2604 28.4695C34.2826 28.3271 38.2532 28.8725 42.232 29.3043C43.2261 29.4119 44.1855 29.7659 45.1794 29.9613C46.1236 30.1473 47.0866 30.2462 48.0302 30.4374C48.672 30.5668 49.2895 30.8093 49.9262 30.9607C50.3665 31.0642 50.8384 31.0474 51.2711 31.1714C54.0156 31.9634 56.7769 32.6987 59.327 34.0527C60.5714 34.7104 61.9219 35.1653 63.1782 35.8003C66.8916 37.6847 70.1374 40.1641 72.2358 43.8169C74.2047 47.2209 75.2046 51.0951 75.1277 55.022C75.1116 56.085 75.066 57.1608 74.9854 58.2261C74.8638 59.8194 74.3731 61.3301 73.6661 62.7416C72.7414 64.5914 71.3541 66.1725 69.638 67.3326C67.2329 68.9583 64.7858 70.5661 62.016 71.5388C60.6888 72.0034 59.3027 72.31 57.9345 72.6477C57.6832 72.686 57.4262 72.6347 57.209 72.5027C56.7957 72.261 56.4089 72.0341 55.8976 72.1305C55.7219 72.1457 55.5464 72.0989 55.4017 71.9984C52.6748 70.1421 49.6638 68.7157 47.1525 66.5341C44.8238 64.516 42.1699 62.9605 39.4429 61.1056Z" fill="white" fill-opacity="0.1"/>
<path d="M29.078 151.37C28.9828 152.352 28.8536 153.312 28.1658 154.092C27.7312 154.585 27.3187 154.786 26.8627 154.59C26.3717 154.381 26.0319 154.01 26.0154 153.441C26.001 152.966 26.0277 152.491 26.016 152.013C25.9951 151.768 25.9614 151.524 25.9148 151.283C25.5021 151.431 25.2116 151.554 24.9084 151.638C24.6052 151.722 24.2717 151.808 23.953 151.803C23.3281 151.795 22.943 151.272 23.189 150.713C23.4216 150.176 23.7929 149.707 24.0989 149.206C24.3215 148.843 24.8206 148.636 24.7136 147.994C24.5 147.947 24.2533 147.856 24.0033 147.843C21.7711 147.728 19.7025 147.22 17.8181 145.904C16.5506 145.017 15.3248 144.091 14.2572 142.995C13.2712 141.978 12.4872 140.814 12.1324 139.354C11.7473 137.77 11.5905 136.14 11.6668 134.513C11.7491 132.781 11.9931 131.045 12.5963 129.411C12.9292 128.508 13.4928 127.684 13.9876 126.845C14.7306 125.581 15.8222 124.641 16.9209 123.702C17.8106 122.944 18.6294 122.098 19.4447 121.258C19.5949 121.104 19.6392 120.786 19.6293 120.549C19.5799 119.355 19.6011 118.18 20.0617 117.05C20.1144 116.886 20.1171 116.711 20.0695 116.546C19.7066 115.081 19.3678 113.616 19.3626 112.092C19.3611 111.714 19.2195 111.337 19.2082 110.958C19.1804 110.051 19.1777 109.143 19.1973 108.236C19.2089 107.557 19.5333 107.197 20.2386 106.995C20.8485 106.819 21.3994 107.063 21.7833 107.524C22.7834 108.729 23.1499 110.196 23.5851 111.64C23.6453 111.868 23.7404 112.085 23.867 112.284C24.9741 113.895 25.632 115.686 25.9949 117.591C26.0788 118.03 26.2454 118.394 26.6443 118.583C27.9259 119.192 28.9939 120.176 30.351 120.653C31.3495 121.006 32.3092 121.481 33.3253 121.76C34.8446 122.177 36.2567 122.807 37.6379 123.539C38.3169 123.899 39.0517 124.158 39.6952 124.57C41.4367 125.668 42.9776 127.026 44.1047 128.748C45.3693 130.677 46.2561 132.769 46.0255 135.173C45.9804 135.613 45.9822 136.056 46.0308 136.496C46.1823 137.781 45.7809 138.987 45.3525 140.132C44.9383 141.239 44.2894 142.244 43.4503 143.077C42.7906 143.728 42.0197 144.276 41.2532 144.805C40.4715 145.344 39.5702 145.635 38.6399 145.829C38.3554 145.884 38.0963 146.029 37.9015 146.244C38.5205 146.336 39.1518 146.383 39.7559 146.533C40.2103 146.65 40.6438 146.836 41.0409 147.086C41.4883 147.365 41.7713 147.806 41.6414 148.364C41.5387 148.811 40.869 149.199 40.2995 149.223C40.121 149.23 39.9425 149.248 39.764 149.243C39.3113 149.23 39.1466 149.564 39.0283 149.897C38.91 150.231 39.1135 150.438 39.3882 150.61C39.6337 150.776 39.8631 150.964 40.0734 151.173C40.6442 151.706 40.8006 152.662 40.3496 153.287C40.2517 153.409 40.1304 153.511 39.9927 153.586C39.855 153.66 39.7038 153.707 39.5479 153.722C38.4608 153.762 37.42 153.558 36.5691 152.842C36.4852 152.855 36.4155 152.842 36.3764 152.874C35.3084 153.688 34.5231 153.528 33.8213 152.377C33.3972 151.682 33.0548 150.893 31.9895 150.582C32.3781 151.334 32.6451 152.008 33.0473 152.58C33.339 152.996 33.4461 153.419 33.5283 153.889C33.6195 154.38 33.758 154.863 33.9087 155.481C33.8293 155.609 33.7574 155.742 33.6933 155.879C33.2271 156.933 32.3721 157.001 31.3559 156.251C30.7382 155.795 30.4158 155.095 30.1479 154.409C29.871 153.697 29.6957 152.939 29.4794 152.2C29.3989 151.925 29.3299 151.646 29.2556 151.37L29.078 151.37Z" fill="white" fill-opacity="0.1"/>
<path d="M216.971 60.6715C217.08 60.0898 217.146 59.7489 217.206 59.4079C218.732 59.5628 219.877 58.768 220.238 57.3007C220.782 55.0879 221.263 52.8578 221.881 50.6612C222.363 48.9586 222.975 47.2906 223.604 45.6369C223.871 44.9318 224.469 44.4834 225.268 44.4286C226.597 44.3374 227.301 44.9814 227.41 46.3458C227.442 46.7416 227.509 47.1345 227.582 47.6794C228.226 46.8013 228.843 46.0583 229.346 45.2526C230.17 43.9248 231.325 43.4108 233.02 43.6445C233.148 43.9826 233.316 44.3998 233.463 44.8244C233.521 44.9923 233.471 45.2352 233.574 45.3436C234.194 45.9897 234.04 46.5643 233.474 47.1321C233.397 47.2075 233.337 47.2977 233.296 47.3973C232.884 48.4631 232.477 49.5311 232.065 50.611C232.579 50.4695 233.106 50.268 233.649 50.1869C234.538 50.0547 235.054 50.4767 235.09 51.3782C235.167 53.2357 234.348 54.6444 232.792 55.6335C231.637 56.3714 230.49 57.1237 229.331 57.8539C228.754 58.2174 228.194 58.6871 227.559 58.863C226.374 59.191 225.45 60.0358 224.354 60.4131C223.295 60.7658 222.27 61.2132 221.292 61.7499C220.914 61.9632 220.539 62.1766 220.183 62.4273C218.986 63.2564 218.639 64.963 219.409 66.1823C219.786 66.7815 220.208 66.8877 220.832 66.5292C220.895 66.494 220.943 66.404 221.001 66.3949C223.599 66.0282 226.228 65.2949 228.733 66.7179C229.491 67.1485 230.183 67.688 230.785 68.3193C232.522 70.1589 233.925 72.2211 234.55 74.7239C234.797 75.7101 234.989 76.712 235.245 77.6961C235.339 78.0589 235.544 78.3925 235.694 78.7418C235.731 78.8297 235.8 78.9617 235.769 79.0137C235.332 79.7034 235.807 80.091 236.254 80.464C238.628 82.4422 239.891 85.0999 240.956 87.9144C241.776 90.0812 242.082 92.3394 242.418 94.5958C242.467 95.0233 242.646 95.4256 242.93 95.7483C244.029 97.0103 245.024 98.39 245.602 99.9496C246.098 101.301 246.697 102.65 246.653 104.152C246.622 105.161 246.609 106.203 247.285 107.061C247.526 107.364 247.818 107.622 248.148 107.825C249.132 108.425 250.152 108.965 251.136 109.565C251.39 109.712 251.595 109.93 251.725 110.193C251.856 110.456 251.907 110.751 251.871 111.043C251.828 111.565 251.504 111.818 250.988 111.747C248.666 111.423 246.783 110.26 245.092 108.699C244.021 107.71 243.385 106.437 242.883 105.138C242.617 104.452 242.228 104.186 241.652 103.95C240.584 103.511 239.465 103.156 238.475 102.576C236.261 101.287 234.532 99.5062 233.587 97.0734C233.306 96.3532 232.886 95.8965 232.135 95.6046C230.791 95.083 229.498 94.4288 228.193 93.8105C227.986 93.7116 227.819 93.515 227.653 93.3457C227.299 92.9827 226.984 92.5722 226.608 92.2395C224.61 90.4487 222.957 88.4246 222.19 85.7944C222.05 85.3152 221.787 85.0823 221.33 84.8217C218.947 83.4703 216.908 81.7041 215.409 79.3763C215.336 79.2548 215.283 79.1225 215.252 78.9843C214.621 76.5055 214.53 74.0241 215.502 71.6227C215.863 70.731 216.517 69.9579 217.043 69.1317C217.252 68.8069 217.478 68.4823 217.745 68.0884C216.533 67.075 215.383 66.1115 214.233 65.1502C213.734 64.734 213.2 64.3533 212.74 63.8982C211.964 63.1298 210.999 62.7291 209.993 62.425C208.12 61.8602 206.234 61.3411 204.35 60.8111C202.434 60.2708 200.499 59.7892 198.603 59.1881C197.19 58.7409 196.088 57.7628 195.09 56.7096C194.208 55.7793 194.614 54.519 195.856 54.1765C196.374 54.035 196.915 53.9801 197.583 53.8613C197.349 53.5524 197.212 53.2447 196.975 53.0886C196.126 52.5137 195.694 51.6265 195.216 50.7879C194.85 50.1474 194.649 49.39 195.153 48.7361C195.673 48.065 196.366 47.8417 197.276 48.0003C198.452 48.2074 199.48 48.7138 200.487 49.28C201.495 49.8462 202.442 50.5197 203.446 51.0935C203.757 51.2714 204.167 51.2769 204.642 51.3882C204.621 50.9914 204.611 50.7532 204.592 50.5138C204.542 49.8808 204.516 49.1881 205.148 48.8657C205.833 48.5179 206.643 48.3574 207.298 48.9374C208.161 49.7004 208.968 50.5315 209.776 51.3527C210.177 51.7578 210.492 52.2557 210.923 52.6219C211.356 52.9893 211.72 53.4319 211.996 53.9284C212.423 54.6691 213.051 55.2913 213.601 55.9562C214.056 56.5084 214.559 57.0197 214.972 57.5976C215.244 57.9769 215.378 58.4516 215.61 58.8654C215.937 59.4617 216.223 60.0902 216.971 60.6715Z" fill="white" fill-opacity="0.1"/>
<path d="M-14.6659 134.944C-13.3062 136.052 -11.8732 137.113 -10.5678 138.311C-7.67267 140.966 -4.84338 143.689 -1.98503 146.383C-1.76185 146.591 -1.52606 146.785 -1.27899 146.963C2.41511 149.677 6.12053 152.375 9.80511 155.102C11.989 156.719 14.0973 158.442 16.3175 160.008C20.4083 162.893 24.1105 166.264 28.0599 169.324C29.0847 170.118 30.094 170.94 31.1718 171.654C32.3559 172.438 32.5859 173.613 32.3161 174.776C31.8664 176.716 31.5715 178.699 30.6973 180.548C29.5864 182.901 28.1909 184.973 26.1612 186.633C23.9285 188.454 21.6252 190.163 18.9642 191.296C15.9741 192.566 12.9 193.388 9.57667 193.146C7.07843 192.958 4.6006 192.558 2.16996 191.95C0.921164 191.639 -0.321928 191.304 -1.55931 190.945C-1.78429 190.879 -1.9391 190.595 -2.16065 190.477C-3.11232 189.968 -4.05131 189.421 -5.042 189.003C-7.71973 187.871 -9.90547 186.007 -12.1284 184.224C-13.2748 183.303 -14.2759 182.169 -15.2094 181.023C-16.4501 179.503 -17.5435 177.862 -18.7316 176.297C-20.3856 174.107 -21.4422 171.604 -22.4117 169.083C-23.8832 165.252 -24.4109 161.267 -24.1937 157.147C-24.0452 154.296 -23.6552 151.496 -22.8273 148.804C-21.6566 145.005 -20.0575 141.365 -17.7718 138.072C-17.3759 137.499 -16.966 136.938 -16.5571 136.369C-15.9113 135.455 -15.9113 135.455 -14.6659 134.944Z" fill="white" fill-opacity="0.1"/>
<path d="M254.474 58.7736C254.382 58.4698 254.348 58.2819 254.27 58.1153C254.024 57.5915 254.013 57.0329 253.966 56.4719C253.921 56.0519 253.833 55.6377 253.702 55.2361C253.572 54.8087 253.383 54.3997 253.229 53.9764C253.148 53.747 253.12 53.5189 253.376 53.3357C254.154 53.3843 254.458 54.0544 254.895 54.5441C255.177 54.8612 255.429 55.2064 255.69 55.5425C255.855 55.7564 256.003 55.9844 256.174 56.194C256.305 56.3559 256.46 56.4997 256.664 56.7132C256.762 56.3373 256.809 56.0194 256.929 55.7322C257.22 55.0342 257.545 54.3512 257.855 53.6613C257.965 53.4167 258.08 53.1738 258.177 52.9233C258.395 52.3663 258.593 51.8001 258.815 51.245C258.889 51.0596 259.037 50.8654 259.25 50.9382C259.424 51.0103 259.562 51.146 259.638 51.3174C259.731 51.5449 259.744 51.8077 259.775 52.0584C259.847 52.5913 259.875 53.1358 259.987 53.6612C260.119 54.2808 260.321 54.8851 260.525 55.6131C260.756 55.3672 260.92 55.213 261.061 55.0392C261.807 54.1193 262.705 53.3923 263.784 52.8999C264.387 52.6251 264.941 52.3088 265.426 51.8321C265.832 51.432 266.351 51.147 266.822 50.8122C266.872 50.7779 266.923 50.7318 266.975 50.7309C267.141 50.728 267.355 50.6848 267.461 50.7695C267.568 50.8542 267.599 51.0806 267.571 51.2271C267.526 51.4958 267.437 51.7552 267.306 51.994C266.732 52.9763 266.417 54.0338 266.209 55.1496C266.058 55.988 265.789 56.8074 265.486 57.6046C265.283 58.1387 264.937 58.6188 264.645 59.1417C264.715 59.1486 264.789 59.161 264.863 59.1626C265.638 59.1795 266.413 59.1856 267.188 59.2135C268.088 59.2452 268.984 59.337 269.889 59.2454C270.15 59.2189 270.444 59.3408 270.697 59.4562C270.987 59.5867 271.005 59.9343 270.717 60.109C270.374 60.3182 270.002 60.522 269.616 60.6079C269.061 60.7319 268.568 60.9531 268.196 61.3574C267.654 61.9462 266.946 62.2709 266.286 62.6701C265.796 62.9671 265.276 63.2125 264.717 63.5134C264.793 63.567 264.873 63.6144 264.957 63.6551C265.744 63.931 266.527 64.2228 267.324 64.4701C267.827 64.6262 268.371 64.6636 268.86 64.8516C269.185 64.9767 269.466 65.2503 269.726 65.5004C269.853 65.6236 269.759 65.8087 269.583 65.8677C269.407 65.9267 269.197 66.004 269.017 65.9819C267.86 65.8463 266.745 66.1964 265.605 66.2556C265.047 66.2856 264.494 66.3668 263.941 66.2182C263.878 66.2008 263.801 66.2373 263.617 66.2707C263.808 66.4843 263.934 66.6419 264.078 66.7833C264.222 66.9246 264.37 67.0386 264.519 67.1647C264.988 67.5622 265.235 68.0414 265.185 68.6825C265.118 69.5494 265.128 70.4248 265.05 71.2907C264.98 72.0678 265.194 72.778 265.388 73.5095C265.591 74.2756 265.704 75.0656 265.862 75.8441C265.92 76.1337 265.971 76.4334 266.069 76.7119C266.138 76.9083 266.071 77.0474 265.986 77.1969C265.746 77.624 265.5 78.0153 265.03 78.2736C264.095 78.7895 263.203 79.3756 262.297 79.9419C262.208 79.9975 262.094 80.1092 262.094 80.1946C262.095 80.7235 261.792 81.1591 261.577 81.5804C261.198 82.3216 260.731 83.0533 259.802 83.2819C259.373 83.3881 258.958 83.5798 258.561 83.7818C257.825 84.1553 257.156 83.9781 256.522 83.5749C256.173 83.3528 255.8 83.1793 255.476 82.8955C254.639 82.1687 253.726 82.3344 252.818 82.8083C252.406 83.0235 251.989 83.2303 251.561 83.4067C251.33 83.5103 251.08 83.5649 250.827 83.5673C250.565 83.5586 250.24 83.5183 250.061 83.3586C249.682 83.0271 249.353 82.6414 249.086 82.2142C248.684 81.542 248.166 80.9755 247.611 80.4446C247.27 80.1158 246.827 79.9148 246.355 79.8756C245.448 79.7993 244.541 79.7225 243.637 79.6204C243.295 79.586 242.958 79.5071 242.636 79.3856C242.456 79.3146 242.236 79.1294 242.196 78.9579C242.072 78.4139 241.809 77.9161 241.795 77.3275C241.772 76.3435 241.641 75.3558 241.518 74.3746C241.446 73.8178 241.189 73.3249 240.704 73.0136C240.165 72.6678 239.863 72.1321 239.505 71.6382C239.47 71.592 239.457 71.5266 239.417 71.4888C238.541 70.6622 238.754 69.7195 239.107 68.7519C239.413 67.9167 239.694 67.0732 239.992 66.2356C240.161 65.7598 240.131 65.2812 240.043 64.7985C240.013 64.627 239.96 64.4559 239.957 64.2833C239.948 63.8919 239.964 63.4974 239.765 63.1417C239.529 62.723 239.708 62.2935 239.828 61.9286C240.134 60.9946 240.536 60.0905 240.919 59.1833C241.023 58.9363 241.213 58.8074 241.514 58.7135C242.366 58.4487 243.211 58.3957 244.096 58.4337C244.77 58.4598 245.445 58.3834 246.096 58.2071C246.646 58.0585 247.155 57.733 247.658 57.4422C248.379 57.0256 249.059 56.5366 249.792 56.1441C250.192 55.9296 250.635 56.1075 250.988 56.3501C251.788 56.9007 252.56 57.491 253.351 58.0533C253.677 58.2856 254.025 58.4879 254.474 58.7736Z" fill="white" fill-opacity="0.1"/>
<path d="M57.5951 193.054C56.4388 192.802 55.3274 192.53 54.2033 192.334C53.7579 192.255 53.2461 192.234 52.8274 192.376C51.4945 192.829 50.1374 192.669 48.906 192.272C48.0782 192.006 47.3074 191.228 46.7637 190.492C45.9057 189.329 45.5423 187.987 46.0651 186.497C46.1964 186.12 46.0238 185.551 45.8187 185.159C44.8566 183.32 44.35 181.35 43.9985 179.324C43.8289 178.35 43.5942 177.387 43.4587 176.409C43.3443 175.693 43.3085 174.966 43.352 174.241C43.4921 172.547 43.6319 170.846 43.9388 169.178C44.1622 168.012 44.5297 166.879 45.0329 165.803C45.8246 164.09 46.6443 162.366 47.676 160.794C49.2193 158.447 51.1759 156.433 53.2415 154.517C54.9642 152.921 57.0704 152.09 59.1546 151.174C61.2387 150.259 63.4052 149.738 65.6187 149.339C67.1779 149.067 68.7732 149.075 70.3293 149.365C71.6483 149.602 72.9796 149.783 74.3107 149.93C74.6276 149.964 75.0011 149.819 75.2962 149.66C76.1935 149.172 77.0124 148.501 77.9552 148.149C80.7928 147.082 83.149 147.519 84.6616 149.813C85.3946 150.924 85.6646 152.159 85.1283 153.464C85.0692 153.609 84.9756 153.777 85.0028 153.913C85.1665 154.744 84.7711 155.443 84.4741 156.149C84.1204 156.991 84.1069 157.766 84.4272 158.664C85.0916 160.513 85.7724 162.383 86.1496 164.299C86.6616 166.913 86.4985 169.568 85.8944 172.175C85.5643 173.598 85.28 175.036 84.8486 176.426C84.1375 178.716 82.8343 180.68 81.3604 182.558C79.6723 184.716 77.8059 186.667 75.6559 188.372C72.0978 191.175 67.9647 192.514 63.6008 193.129C61.6393 193.411 59.5879 193.098 57.5951 193.054Z" fill="white" fill-opacity="0.1"/>
</svg>
