<svg width="16" height="16" viewBox="0 0 16 16" fill="none" xmlns="http://www.w3.org/2000/svg">
<path fill-rule="evenodd" clip-rule="evenodd" d="M14.5456 14.4768V12.3426C14.5456 12.0059 14.871 11.7332 15.2728 11.7332C15.6746 11.7332 16 12.0059 16 12.3426V15.087C16 15.5929 15.5089 15.9998 14.906 15.9998H1.09404C0.492119 15.9998 0 15.5899 0 15.087V12.3426C0 12.0059 0.325441 11.7332 0.72722 11.7332C1.129 11.7332 1.45444 12.0059 1.45444 12.3426V14.4768C1.45444 14.6427 1.61729 14.7808 1.81819 14.7808H14.182C14.3801 14.7808 14.5456 14.6448 14.5456 14.4768Z" fill="#3772FE"/>
<path d="M3.22176 7.83029L7.38659 12.6982C7.73238 13.1024 8.29325 13.1007 8.64077 12.6924L12.7782 7.8303C13.4506 7.05289 12.4426 5.88713 11.7702 6.66448L8.96309 9.91374C8.82483 10.0736 8.71297 10.0175 8.71297 9.79069L8.71297 0.826301C8.71297 0.370008 8.39632 5.91052e-07 7.99997 5.59832e-07C7.60634 5.28827e-07 7.28722 0.369184 7.28722 0.826301L7.28722 9.79069C7.28722 10.0187 7.17462 10.0733 7.03685 9.91374L4.22973 6.66448C3.55782 5.88713 2.54938 7.05294 3.22176 7.83029Z" fill="#3772FE"/>
</svg>
