<svg width="16" height="12" viewBox="0 0 16 12" fill="none" xmlns="http://www.w3.org/2000/svg">
<g clip-path="url(#clip0_2735_8865)">
<path d="M12.2666 10.9508V9.85076C12.2666 9.26728 12.0418 8.7077 11.6418 8.29512C11.2417 7.88254 10.6991 7.65076 10.1333 7.65076H5.86661C5.30081 7.65076 4.75819 7.88254 4.35812 8.29512C3.95804 8.7077 3.73328 9.26728 3.73328 9.85076V10.9508" stroke="white" stroke-linecap="round" stroke-linejoin="round"/>
<path d="M8.00003 5.45078C9.17824 5.45078 10.1334 4.46581 10.1334 3.25078C10.1334 2.03575 9.17824 1.05078 8.00003 1.05078C6.82182 1.05078 5.8667 2.03575 5.8667 3.25078C5.8667 4.46581 6.82182 5.45078 8.00003 5.45078Z" stroke="white" stroke-linecap="round" stroke-linejoin="round"/>
<path d="M14.9667 10.9508V9.85079C14.9663 9.36334 14.809 8.88981 14.5194 8.50456C14.2298 8.11931 13.8244 7.84415 13.3667 7.72229" stroke="white" stroke-linecap="round" stroke-linejoin="round"/>
<path d="M11.2334 1.12219C11.6923 1.24336 12.099 1.51858 12.3895 1.90446C12.6799 2.29035 12.8376 2.76495 12.8376 3.25344C12.8376 3.74194 12.6799 4.21654 12.3895 4.60242C12.099 4.98831 11.6923 5.26353 11.2334 5.38469" stroke="white" stroke-linecap="round" stroke-linejoin="round"/>
<path d="M1.0333 10.9507V9.85067C1.03365 9.36322 1.19098 8.88969 1.48057 8.50444C1.77017 8.11919 2.17563 7.84403 2.6333 7.72217" stroke="white" stroke-linecap="round" stroke-linejoin="round"/>
<path d="M4.7666 1.12219C4.30771 1.24336 3.90098 1.51858 3.61053 1.90446C3.32007 2.29035 3.16242 2.76495 3.16242 3.25344C3.16242 3.74194 3.32007 4.21654 3.61053 4.60242C3.90098 4.98831 4.30771 5.26353 4.7666 5.38469" stroke="white" stroke-linecap="round" stroke-linejoin="round"/>
</g>
<defs>
<clipPath id="clip0_2735_8865">
<rect width="15" height="12" fill="white" transform="translate(0.5 0.000732422)"/>
</clipPath>
</defs>
</svg>
