<svg width="30" height="30" viewBox="0 0 30 30" fill="none" xmlns="http://www.w3.org/2000/svg">
<g clip-path="url(#clip0_2621_9434)">
<path d="M29.999 14.9613C30.0085 17.9085 29.1523 20.7935 27.5368 23.257C25.9213 25.7204 23.6181 27.6536 20.9137 28.8157C18.2094 29.9779 15.2235 30.3177 12.3278 29.7928C9.43204 29.2679 6.7544 27.9016 4.62829 25.8639C2.50217 23.8262 1.02148 21.2072 0.370573 18.3329C-0.280337 15.4586 -0.0727346 12.4561 0.967577 9.69917C2.00789 6.94221 3.83495 4.55261 6.22123 2.82791C8.60752 1.10321 11.4477 0.119601 14.388 -0.000466515C16.4035 -0.0827689 18.4148 0.242886 20.3018 0.957079C22.1887 1.67127 23.9124 2.75933 25.3698 4.1561C26.8272 5.55288 27.9883 7.2297 28.7837 9.08627C29.5791 10.9428 29.9924 12.941 29.999 14.9613ZM6.85739 15.1908C6.85739 16.5064 6.85739 17.8221 6.85739 19.1224C6.87172 19.7367 7.02321 20.34 7.30075 20.888C7.57829 21.436 7.97486 21.9148 8.46129 22.2892C9.37251 22.9824 10.4949 23.3391 11.6385 23.2988H18.0387C18.5105 23.2993 18.9812 23.2532 19.444 23.1612C20.369 22.9787 21.2082 22.4963 21.8322 21.7884C22.4561 21.0806 22.83 20.1867 22.8961 19.2448C22.8961 18.1892 22.9725 17.1336 22.9725 16.078C22.9725 14.4258 22.9725 12.7583 22.8961 11.1214C22.8335 10.0297 22.3549 9.00371 21.5591 8.25506C20.7633 7.50641 19.7109 7.09221 18.6191 7.09793C16.2362 7.09793 13.8534 7.09793 11.4705 7.09793C11.0542 7.09755 10.6392 7.14372 10.2332 7.23561C9.28901 7.44124 8.44127 7.95889 7.82625 8.70526C7.21122 9.45163 6.86463 10.3834 6.84215 11.3509C6.82688 12.6359 6.85739 13.921 6.85739 15.1449V15.1908Z" fill="#3772FE"/>
<path d="M14.8921 10.9842C15.4558 10.9499 16.0206 11.0314 16.5517 11.2239C17.0828 11.4163 17.5689 11.7155 17.9802 12.1032C18.3916 12.4908 18.7193 12.9587 18.9433 13.4779C19.1674 13.9971 19.2829 14.5567 19.2829 15.1224C19.2829 15.688 19.1674 16.2477 18.9433 16.7669C18.7193 17.2862 18.3916 17.754 17.9802 18.1417C17.5689 18.5293 17.0828 18.8285 16.5517 19.021C16.0206 19.2134 15.4558 19.295 14.8921 19.2606C14.3283 19.295 13.7636 19.2134 13.2325 19.021C12.7014 18.8285 12.2152 18.5293 11.8039 18.1417C11.3926 17.754 11.0648 17.2862 10.8408 16.7669C10.6168 16.2477 10.5012 15.688 10.5012 15.1224C10.5012 14.5567 10.6168 13.9971 10.8408 13.4779C11.0648 12.9587 11.3926 12.4908 11.8039 12.1032C12.2152 11.7155 12.7014 11.4163 13.2325 11.2239C13.7636 11.0314 14.3283 10.9499 14.8921 10.9842ZM14.8921 12.4223C14.3568 12.4132 13.8309 12.5635 13.381 12.8542C12.9311 13.1448 12.5774 13.5626 12.3649 14.0548C12.1524 14.5469 12.0905 15.0911 12.1872 15.6185C12.2838 16.1459 12.5346 16.6326 12.9077 17.0171C13.2809 17.4015 13.7597 17.6664 14.2833 17.7781C14.8069 17.8898 15.3518 17.8432 15.849 17.6444C16.3462 17.4456 16.7732 17.1034 17.0761 16.6612C17.3789 16.2191 17.5438 15.6968 17.5499 15.1607C17.5581 14.4451 17.2831 13.7554 16.7851 13.2423C16.287 12.7291 15.6065 12.4343 14.8921 12.4223Z" fill="#3772FE"/>
<path d="M19.184 11.7489C19.0584 11.7509 18.9336 11.7279 18.8169 11.6812C18.7002 11.6344 18.594 11.5649 18.5044 11.4766C18.4149 11.3883 18.3437 11.283 18.2952 11.167C18.2466 11.0509 18.2217 10.9263 18.2217 10.8004C18.2216 10.5419 18.322 10.2935 18.5016 10.1079C18.6812 9.92223 18.926 9.81399 19.184 9.80603C19.313 9.80396 19.441 9.82787 19.5606 9.87634C19.6801 9.92481 19.7887 9.99683 19.8799 10.0882C19.9711 10.1795 20.043 10.2883 20.0914 10.408C20.1398 10.5277 20.1637 10.656 20.1616 10.7851C20.1684 10.9148 20.1476 11.0444 20.1007 11.1655C20.0538 11.2865 19.9817 11.3962 19.8893 11.4873C19.7969 11.5784 19.6862 11.6488 19.5647 11.6939C19.4431 11.739 19.3134 11.7577 19.184 11.7489Z" fill="#3772FE"/>
</g>
<defs>
<clipPath id="clip0_2621_9434">
<rect width="30" height="30" fill="white" transform="translate(-0.000976562)"/>
</clipPath>
</defs>
</svg>
