<svg width="51" height="50" viewBox="0 0 51 50" fill="none" xmlns="http://www.w3.org/2000/svg">
	<circle cx="25.5" cy="25.0001" r="21.5" transform="rotate(180 25.5 25.0001)" stroke="#E3EEF2" stroke-width="3"/>
	<path d="M2.45022 25.0001C1.37314 25.0001 0.492088 25.8746 0.576027 26.9484C0.844551 30.3837 1.82104 33.7338 3.45197 36.785C5.39001 40.4109 8.19234 43.5028 11.6107 45.7869C15.0291 48.071 18.9581 49.4768 23.0496 49.8797C27.141 50.2827 31.2688 49.6704 35.0671 48.0971C38.8654 46.5238 42.2171 44.038 44.8253 40.86C47.4334 37.6819 49.2176 33.9097 50.0196 29.8774C50.8217 25.8451 50.6169 21.6773 49.4235 17.743C48.4192 14.4322 46.7408 11.3728 44.5015 8.75385C43.8016 7.9352 42.5603 7.93986 41.7987 8.70147C41.037 9.46308 41.045 10.6926 41.733 11.5212C43.525 13.6793 44.873 16.1785 45.691 18.8752C46.6983 22.1957 46.8711 25.7133 46.1941 29.1164C45.5172 32.5196 44.0114 35.7033 41.8102 38.3855C39.6089 41.0678 36.7802 43.1657 33.5745 44.4936C30.3687 45.8214 26.885 46.3382 23.4319 45.9981C19.9787 45.658 16.6628 44.4715 13.7777 42.5438C10.8926 40.616 8.52752 38.0065 6.89185 34.9464C5.56339 32.461 4.74941 29.7407 4.49051 26.9476C4.39109 25.8751 3.5273 25.0001 2.45022 25.0001Z" fill="#3772FE"/>
</svg>