<svg width="20" height="16" viewBox="0 0 20 16" fill="none" xmlns="http://www.w3.org/2000/svg">
<g clip-path="url(#clip0_2694_8838)">
<path d="M9.96974 15.0369H1.26174C1.00544 15.0446 0.750423 14.9974 0.513314 14.8984C0.34946 14.8205 0.212691 14.6941 0.121028 14.5359C0.0293651 14.3776 -0.0128971 14.1949 -0.000208489 14.0118V2.07105C-0.0157634 1.96675 0.00245704 1.86015 0.0517072 1.76723C0.100957 1.67432 0.178581 1.60011 0.272941 1.55574C0.369111 1.51266 0.476185 1.50124 0.579084 1.52311C0.681983 1.54498 0.775519 1.59903 0.846548 1.67765C3.5398 3.89404 6.24399 6.11041 8.92631 8.3268C9.21142 8.58423 9.57985 8.72648 9.96156 8.72648C10.3433 8.72648 10.7117 8.58423 10.9968 8.3268C13.6627 6.11041 16.3505 3.89403 19.0328 1.72197C19.0711 1.68872 19.1148 1.66103 19.1476 1.62778C19.2212 1.55125 19.3163 1.49956 19.4199 1.47974C19.5235 1.45991 19.6306 1.4729 19.7266 1.51695C19.8213 1.56398 19.8988 1.64032 19.9479 1.73494C19.997 1.82956 20.0152 1.93757 19.9998 2.04335C19.9998 3.3344 19.9998 4.62545 19.9998 5.92204C19.9998 8.55585 19.9998 11.1878 19.9998 13.8179C20.0239 13.9793 20.0102 14.144 19.96 14.299C19.9097 14.454 19.8243 14.5949 19.7105 14.7103C19.5968 14.8257 19.4579 14.9123 19.3051 14.9633C19.1523 15.0142 18.9898 15.0281 18.8307 15.0037H9.96974V15.0369Z" fill="#3772FE"/>
<path d="M10.0081 0.962891C12.5429 0.962891 15.0778 0.962891 17.6126 0.962891C17.8026 0.989922 17.9871 1.04792 18.1589 1.13466C18.082 1.29901 17.9807 1.45039 17.8584 1.58348C15.564 3.48403 13.2586 5.36796 10.9587 7.25743C10.8353 7.38358 10.6885 7.4837 10.5267 7.55203C10.365 7.62036 10.1915 7.65555 10.0163 7.65555C9.84109 7.65555 9.66762 7.62036 9.50588 7.55203C9.34414 7.4837 9.19735 7.38358 9.07395 7.25743L2.16872 1.61119C2.13594 1.58349 2.09223 1.56686 2.07584 1.53361C1.99936 1.40063 1.93381 1.26764 1.86279 1.12911C1.99356 1.0541 2.13571 1.00167 2.28344 0.973966C4.58882 0.973966 6.89603 0.973966 9.20505 0.973966L10.0081 0.962891Z" fill="#3772FE"/>
</g>
<defs>
<clipPath id="clip0_2694_8838">
<rect width="20" height="14.0741" fill="white" transform="translate(0 0.962891)"/>
</clipPath>
</defs>
</svg>
