<svg width="25" height="17" viewBox="0 0 25 17" fill="none" xmlns="http://www.w3.org/2000/svg">
<g clip-path="url(#clip0_3852_27610)">
<path d="M19.1693 15.6999V14.0999C19.1693 13.2512 18.8181 12.4373 18.193 11.8372C17.5678 11.237 16.72 10.8999 15.8359 10.8999H9.16927C8.28522 10.8999 7.43737 11.237 6.81225 11.8372C6.18713 12.4373 5.83594 13.2512 5.83594 14.0999V15.6999" stroke="#3772FE" stroke-width="2" stroke-linecap="round" stroke-linejoin="round"/>
<path d="M12.4974 7.70005C14.3383 7.70005 15.8307 6.26736 15.8307 4.50005C15.8307 2.73274 14.3383 1.30005 12.4974 1.30005C10.6564 1.30005 9.16406 2.73274 9.16406 4.50005C9.16406 6.26736 10.6564 7.70005 12.4974 7.70005Z" stroke="#3772FE" stroke-width="2" stroke-linecap="round" stroke-linejoin="round"/>
<path d="M24.1641 15.6999V14.0999C24.1635 13.3909 23.9177 12.7021 23.4652 12.1418C23.0127 11.5814 22.3792 11.1812 21.6641 11.0039" stroke="#3772FE" stroke-width="2" stroke-linecap="round" stroke-linejoin="round"/>
<path d="M18.3359 1.40405C19.0529 1.58029 19.6885 1.98061 20.1423 2.5419C20.5961 3.10319 20.8425 3.79352 20.8425 4.50405C20.8425 5.21459 20.5961 5.90492 20.1423 6.4662C19.6885 7.02749 19.0529 7.42781 18.3359 7.60405" stroke="#3772FE" stroke-width="2" stroke-linecap="round" stroke-linejoin="round"/>
<path d="M0.835938 15.6999V14.0999C0.836488 13.3909 1.08231 12.7021 1.5348 12.1418C1.98729 11.5814 2.62083 11.1812 3.33594 11.0039" stroke="#3772FE" stroke-width="2" stroke-linecap="round" stroke-linejoin="round"/>
<path d="M6.66406 1.40381C5.94705 1.58005 5.31153 1.98037 4.8577 2.54166C4.40386 3.10294 4.15753 3.79327 4.15753 4.50381C4.15753 5.21434 4.40386 5.90467 4.8577 6.46596C5.31153 7.02725 5.94705 7.42757 6.66406 7.60381" stroke="#3772FE" stroke-width="2" stroke-linecap="round" stroke-linejoin="round"/>
</g>
<defs>
<clipPath id="clip0_3852_27610">
<rect width="25" height="16" fill="white" transform="translate(0 0.5)"/>
</clipPath>
</defs>
</svg>
