<svg width="30" height="30" viewBox="0 0 30 30" fill="none" xmlns="http://www.w3.org/2000/svg">
<g clip-path="url(#clip0_2621_9427)">
<path d="M30.0005 15.0134C29.9833 15.4774 29.9802 15.9425 29.9451 16.4054C29.896 17.062 29.7767 17.7093 29.628 18.3506C29.1067 20.599 28.1396 22.6344 26.6837 24.4273C24.7703 26.7846 22.3643 28.4223 19.4657 29.3404C18.4827 29.6476 17.4715 29.8561 16.4472 29.9626C16.1901 29.9895 15.9318 30.0018 15.6734 29.9996C14.9902 29.9955 14.3069 30.0103 13.6266 29.9601C13.0619 29.9183 12.4981 29.8189 11.9426 29.7035C9.85406 29.2696 7.93169 28.4435 6.20839 27.181C3.44691 25.1584 1.57292 22.5056 0.586441 19.2226C0.317014 18.3288 0.131241 17.4151 0.0573745 16.4851C0.00862283 15.8791 -0.00578084 15.268 0.00566841 14.6599C0.0712246 11.1184 1.28632 8.00013 3.55604 5.30034C5.7351 2.7075 8.51597 1.08619 11.8122 0.337405C12.4639 0.189644 13.1247 0.106158 13.7891 0.0418823C14.4932 -0.026088 15.1972 0.00180239 15.9 0.0365263C18.2807 0.153627 20.4982 0.837393 22.5498 2.03888C25.2886 3.64271 27.3229 5.89053 28.6526 8.78234C29.187 9.94338 29.5508 11.1585 29.7826 12.4152C29.938 13.2724 30.0109 14.1424 30.0005 15.0134V15.0134ZM19.8031 24.1855C20.1058 24.1506 20.267 24.0206 20.3296 23.7354C20.5009 22.9554 20.6738 22.1756 20.8383 21.3943C21.2132 19.6149 21.5855 17.8349 21.9552 16.0544C22.2867 14.4575 22.6152 12.8598 22.9406 11.2614C23.1915 10.0239 23.4332 8.78493 23.6761 7.54595C23.6852 7.48916 23.6788 7.43096 23.6576 7.3775C23.6313 7.30987 23.5914 7.24841 23.5402 7.19698C23.489 7.14555 23.4278 7.10526 23.3603 7.07865C23.2521 7.0334 23.1472 7.02176 23.0318 7.07182C22.8575 7.14754 22.6757 7.20609 22.4981 7.27499C17.8961 9.0448 13.2943 10.8152 8.69251 12.5863C7.24289 13.145 5.79751 13.7146 4.35048 14.2804C4.16821 14.3517 4.01808 14.5642 4.01678 14.7401C4.01679 14.8435 4.04777 14.9445 4.10574 15.0301C4.16371 15.1157 4.24599 15.1819 4.34198 15.2203C4.86175 15.425 5.38257 15.6274 5.90443 15.8276C6.85952 16.1922 7.81547 16.5546 8.77229 16.9148C8.8576 16.9471 8.90322 16.9973 8.93073 17.0851C9.11687 17.68 9.31022 18.2725 9.49765 18.8671C9.88933 20.1088 10.2768 21.3509 10.6705 22.5925C10.7837 22.9488 11.206 23.0727 11.5 22.84C11.9432 22.4891 12.3823 22.1313 12.8233 21.7767C13.2307 21.4492 13.6373 21.1206 14.0458 20.7946C14.306 20.587 14.5796 20.5635 14.8637 20.7477C15.026 20.853 15.1929 20.952 15.3499 21.065C16.4353 21.8467 17.5198 22.6292 18.6033 23.4128C18.9226 23.6425 19.2467 23.8658 19.5724 24.0864C19.6404 24.1325 19.7257 24.153 19.8031 24.1855Z" fill="#3772FE"/>
<path d="M9.96802 16.7569C9.9706 16.4856 10.0788 16.2675 10.305 16.1247C11.3657 15.4559 12.4257 14.786 13.4933 14.129C15.3431 12.9895 17.1959 11.8548 19.0517 10.7248C19.1256 10.6799 19.2015 10.64 19.2733 10.5938C19.3451 10.5476 19.3957 10.5803 19.4406 10.6337C19.4855 10.6871 19.4715 10.7366 19.4209 10.7848C18.92 11.2624 18.4251 11.7464 17.9201 12.2194C16.0614 13.9596 14.2008 15.6982 12.3384 17.4352C12.2276 17.5381 12.1253 17.6483 12.0163 17.7523C11.7947 17.9632 11.7055 18.2366 11.6583 18.5247C11.5779 19.016 11.5096 19.5092 11.4343 20.0012C11.4139 20.1348 11.3886 20.2676 11.3604 20.3998C11.3375 20.5106 11.271 20.5631 11.1615 20.5686C11.0607 20.5738 11.0127 20.5431 10.9768 20.4281C10.754 19.6885 10.5253 18.9497 10.3115 18.2056C10.1902 17.7839 10.094 17.3559 9.9887 16.9289C9.97485 16.8728 9.97374 16.8133 9.96802 16.7569Z" fill="#3772FE"/>
</g>
<defs>
<clipPath id="clip0_2621_9427">
<rect width="30" height="30" fill="white" transform="translate(0.000976562)"/>
</clipPath>
</defs>
</svg>
