<svg width="18" height="21" viewBox="0 0 18 21" fill="none" xmlns="http://www.w3.org/2000/svg">
<g clip-path="url(#clip0_3417_31611)">
<path d="M0.898438 5.04541H2.69844H17.0984" stroke="#F69421" stroke-width="2" stroke-linecap="round" stroke-linejoin="round"/>
<path d="M15.2992 5.04554V17.7728C15.2992 18.255 15.1096 18.7175 14.772 19.0585C14.4344 19.3994 13.9766 19.591 13.4992 19.591H4.49922C4.02183 19.591 3.56399 19.3994 3.22643 19.0585C2.88886 18.7175 2.69922 18.255 2.69922 17.7728V5.04554M5.39922 5.04554V3.22736C5.39922 2.74515 5.58886 2.28269 5.92643 1.94171C6.26399 1.60074 6.72183 1.40918 7.19922 1.40918H10.7992C11.2766 1.40918 11.7344 1.60074 12.072 1.94171C12.4096 2.28269 12.5992 2.74515 12.5992 3.22736V5.04554" stroke="#F69421" stroke-width="1.5" stroke-linecap="round" stroke-linejoin="round"/>
<path d="M7.19922 9.59082V15.0454" stroke="#F69421" stroke-width="1.5" stroke-linecap="round" stroke-linejoin="round"/>
<path d="M10.8008 9.59082V15.0454" stroke="#F69421" stroke-width="1.5" stroke-linecap="round" stroke-linejoin="round"/>
</g>
<defs>
<clipPath id="clip0_3417_31611">
<rect width="18" height="20" fill="white" transform="translate(0 0.5)"/>
</clipPath>
</defs>
</svg>
