<svg width="24" height="24" viewBox="0 0 24 24" fill="none" xmlns="http://www.w3.org/2000/svg">
<path d="M11.2845 0.732729C11.6769 0.330909 12.3231 0.330908 12.7155 0.732729L15.1909 3.26782C15.382 3.46349 15.6448 3.57238 15.9183 3.56912L19.4612 3.52692C20.0228 3.52023 20.4798 3.97719 20.4731 4.53876L20.4309 8.08172C20.4276 8.35518 20.5365 8.61805 20.7322 8.80911L23.2673 11.2845C23.6691 11.6769 23.6691 12.3231 23.2673 12.7155L20.7322 15.1909C20.5365 15.382 20.4276 15.6448 20.4309 15.9183L20.4731 19.4612C20.4798 20.0228 20.0228 20.4798 19.4612 20.4731L15.9183 20.4309C15.6448 20.4276 15.382 20.5365 15.1909 20.7322L12.7155 23.2673C12.3231 23.6691 11.6769 23.6691 11.2845 23.2673L8.80911 20.7322C8.61805 20.5365 8.35518 20.4276 8.08172 20.4309L4.53876 20.4731C3.97719 20.4798 3.52023 20.0228 3.52692 19.4612L3.56912 15.9183C3.57238 15.6448 3.46349 15.382 3.26782 15.1909L0.732729 12.7155C0.330909 12.3231 0.330908 11.6769 0.732729 11.2845L3.26782 8.80911C3.46349 8.61805 3.57238 8.35518 3.56912 8.08172L3.52692 4.53876C3.52023 3.97719 3.97719 3.52023 4.53876 3.52692L8.08172 3.56912C8.35518 3.57238 8.61805 3.46349 8.80911 3.26782L11.2845 0.732729Z" fill="#3772FE"/>
<path d="M15.5984 9.6001L10.6484 14.4001L8.39844 12.2183" stroke="white" stroke-width="2" stroke-linecap="round" stroke-linejoin="round"/>
</svg>
