<svg width="30" height="30" viewBox="0 0 30 30" fill="none" xmlns="http://www.w3.org/2000/svg">
<g clip-path="url(#clip0_2621_9431)">
<path d="M0.00292969 29.9979C0.662263 27.5466 1.31226 25.1453 1.94693 22.7406C1.99018 22.5645 1.97086 22.3787 1.89226 22.2153C0.978263 20.5533 0.371596 18.7846 0.15893 16.9033C-0.311737 12.7279 0.692263 8.94661 3.3256 5.63661C5.37426 3.06328 8.00493 1.35261 11.1736 0.493944C12.8018 0.0563784 14.4934 -0.0958719 16.1736 0.0439442C18.2411 0.196722 20.2539 0.779692 22.083 1.75551C23.9122 2.73132 25.5173 4.07846 26.7956 5.71061C28.2375 7.52165 29.2289 9.64907 29.6883 11.9179C29.9762 13.3079 30.066 14.7315 29.9549 16.1466C29.7436 18.7693 28.9169 21.1706 27.4423 23.3413C25.4863 26.2219 22.8423 28.2013 19.5263 29.2746C18.1985 29.6995 16.816 29.9287 15.4223 29.9553C12.8763 30.0153 10.4703 29.4799 8.20693 28.3166C7.97928 28.1916 7.71162 28.1609 7.4616 28.2313C4.98893 28.8259 2.51626 29.4059 0.00292969 29.9979ZM19.0763 22.1399C19.1763 22.1399 19.2763 22.1446 19.3756 22.1399C21.0309 22.0566 22.2316 21.0419 22.5803 19.4333C22.7369 18.7093 22.6409 18.5073 21.9803 18.1779C21.5676 17.9726 21.1576 17.7626 20.7396 17.5686C20.2103 17.3233 19.6729 17.0919 19.1396 16.8546C18.8589 16.7293 18.6536 16.8319 18.4729 17.0546C18.0949 17.5319 17.7056 18.0006 17.3283 18.4786C17.1143 18.7506 16.8763 18.8119 16.5463 18.6786C14.3147 17.7897 12.5972 16.3093 11.3936 14.2373C11.2183 13.9366 11.2643 13.7239 11.4816 13.4653C11.8239 13.0637 12.1359 12.6372 12.4149 12.1893C12.5123 12.0319 12.5189 11.7519 12.4509 11.5713C12.1416 10.7466 11.7576 9.94861 11.4656 9.11794C11.1823 8.31261 10.7036 7.93728 9.82426 8.04528C9.39626 8.09794 9.03093 8.20394 8.7296 8.51194C7.4576 9.80994 7.12426 11.3313 7.6456 13.0579C7.97293 14.1433 8.60026 15.0619 9.2496 15.9713C11.0789 18.5326 13.2996 20.5879 16.3769 21.5579C17.2603 21.8406 18.1316 22.1559 19.0743 22.1419L19.0763 22.1399Z" fill="#3772FE"/>
</g>
<defs>
<clipPath id="clip0_2621_9431">
<rect width="29.998" height="30" fill="white" transform="translate(0.000976562)"/>
</clipPath>
</defs>
</svg>
